<svg width="327" height="748" viewBox="0 0 327 748" fill="none" xmlns="http://www.w3.org/2000/svg">
<path d="M326.5 484.5C326.5 486.784 325.436 489.06 323.314 491.312C321.19 493.566 318.033 495.764 313.923 497.873C305.705 502.092 293.782 505.905 279.006 509.114C249.462 515.528 208.625 519.5 163.5 519.5C118.375 519.5 77.5376 515.528 47.9941 509.114C33.2183 505.905 21.2946 502.092 13.077 497.873C8.9675 495.764 5.80987 493.566 3.68561 491.312C1.56357 489.06 0.5 486.784 0.5 484.5C0.5 482.216 1.56357 479.94 3.68561 477.688C5.80987 475.434 8.9675 473.236 13.077 471.127C21.2946 466.908 33.2183 463.095 47.9941 459.886C77.5376 453.472 118.375 449.5 163.5 449.5C208.625 449.5 249.462 453.472 279.006 459.886C293.782 463.095 305.705 466.908 313.923 471.127C318.033 473.236 321.19 475.434 323.314 477.688C325.436 479.94 326.5 482.216 326.5 484.5Z" stroke="#F0F0F8"/>
<path d="M148.139 105.544C143.249 104.139 138.998 102.02 135.385 99.1847C131.772 96.3498 128.957 93.082 126.94 89.3813L135.303 85.3989C137.012 88.1599 139.024 90.5351 141.34 92.5246C143.745 94.5395 146.814 96.0833 150.549 97.156C154.194 98.2031 157.246 98.1338 159.703 96.9481C162.25 95.788 163.888 93.941 164.616 91.4071C165.318 88.9606 164.975 86.6391 163.584 84.4426C162.194 82.2462 160.309 80.0968 157.93 77.9944C155.55 75.8921 152.891 73.7568 149.953 71.5886C147.04 69.333 144.468 66.892 142.239 64.2654C140.01 61.6388 138.339 58.7467 137.224 55.5891C136.135 52.3441 136.168 48.712 137.323 44.6927C138.452 40.7608 140.53 37.7161 143.556 35.5585C146.67 33.4265 150.27 31.9538 154.353 31.1405C153.51 29.3849 152.927 27.5622 152.603 25.6722C152.394 23.7203 152.616 21.6085 153.268 19.3368C153.921 17.065 154.936 15.0392 156.313 13.2594C157.805 11.4178 159.621 9.95322 161.762 8.8657C163.903 7.77817 166.344 7.15508 169.084 6.99641C171.85 6.75037 174.922 7.11259 178.3 8.08306C182.746 9.36001 186.533 11.252 189.663 13.7589C192.881 16.2914 195.536 18.9455 197.626 21.7213L190.296 27.1354C188.486 24.7238 186.5 22.5926 184.337 20.7416C182.174 18.8907 179.536 17.5182 176.424 16.6244C172.69 15.5517 169.74 15.6029 167.574 16.7778C165.433 17.8653 164.036 19.5449 163.383 21.8167C162.706 24.1759 163.075 26.41 164.49 28.5191C165.905 30.6281 167.803 32.7338 170.182 34.8362C172.651 36.9641 175.297 39.143 178.122 41.3731C181.035 43.6286 183.593 46.1134 185.797 48.8274C188.115 51.4795 189.819 54.4281 190.908 57.673C192.022 60.8306 192.002 64.4191 190.847 68.4384C189.642 72.6324 187.552 75.7208 184.577 77.7036C181.69 79.7119 178.103 81.1409 173.817 81.9906C174.66 83.7461 175.186 85.5998 175.396 87.5516C175.63 89.4161 175.421 91.4842 174.768 93.756C174.015 96.3772 172.792 98.6268 171.097 100.505C169.403 102.383 167.396 103.84 165.078 104.876C162.759 105.913 160.14 106.485 157.222 106.592C154.367 106.813 151.34 106.463 148.139 105.544ZM146.98 46.7573C146.151 49.6407 146.35 52.2989 147.576 54.7319C148.916 57.1032 150.751 59.4273 153.081 61.7044C155.524 63.9197 158.171 66.0986 161.02 68.2413C163.958 70.4095 166.611 72.7323 168.98 75.2097C172.176 74.8036 174.768 73.9876 176.757 72.7617C178.834 71.5612 180.299 69.4756 181.153 66.5048C182.006 63.5341 181.775 60.8194 180.46 58.3608C179.234 55.9278 177.444 53.6164 175.089 51.4267C172.76 49.1496 170.126 46.9269 167.188 44.7587C164.364 42.5287 161.755 40.2187 159.361 37.8286C156.204 38.4349 153.517 39.4129 151.3 40.7626C149.198 42.0504 147.758 44.0486 146.98 46.7573Z" fill="#ABABBA"/>
<path d="M161.508 26.7409C161.73 24.3175 165.27 24.3175 165.492 26.7409L219.159 612.568C219.266 613.739 218.344 614.75 217.167 614.75H109.833C108.656 614.75 107.734 613.739 107.841 612.568L161.508 26.7409Z" fill="url(#paint0_linear_103_12)"/>
<g clip-path="url(#clip0_103_12)">
<path d="M148.139 105.544C143.249 104.139 138.998 102.02 135.385 99.1847C131.772 96.3498 128.957 93.082 126.94 89.3813L135.302 85.3989C137.012 88.1599 139.024 90.5351 141.34 92.5246C143.745 94.5395 146.814 96.0833 150.549 97.156C154.194 98.2031 157.245 98.1338 159.703 96.9481C162.25 95.788 163.888 93.941 164.616 91.4071C165.318 88.9606 164.975 86.6391 163.584 84.4426C162.194 82.2462 160.309 80.0968 157.93 77.9944C155.55 75.8921 152.891 73.7568 149.953 71.5886C147.039 69.333 144.468 66.892 142.239 64.2654C140.01 61.6388 138.339 58.7467 137.224 55.5891C136.135 52.3441 136.168 48.712 137.323 44.6927C138.452 40.7608 140.53 37.7161 143.556 35.5585C146.67 33.4265 150.27 31.9538 154.353 31.1405C153.51 29.3849 152.927 27.5622 152.603 25.6722C152.394 23.7203 152.616 21.6085 153.268 19.3368C153.921 17.065 154.936 15.0392 156.313 13.2594C157.805 11.4178 159.621 9.95322 161.762 8.8657C163.903 7.77817 166.344 7.15508 169.084 6.99641C171.85 6.75037 174.922 7.11259 178.3 8.08306C182.746 9.36001 186.533 11.252 189.663 13.7589C192.881 16.2914 195.536 18.9455 197.626 21.7213L190.296 27.1354C188.486 24.7238 186.5 22.5926 184.337 20.7416C182.173 18.8907 179.536 17.5182 176.424 16.6244C172.69 15.5517 169.74 15.6029 167.574 16.7778C165.433 17.8653 164.036 19.5449 163.383 21.8167C162.706 24.1759 163.075 26.41 164.49 28.5191C165.905 30.6281 167.803 32.7338 170.182 34.8362C172.651 36.9641 175.297 39.143 178.122 41.3731C181.035 43.6286 183.593 46.1134 185.797 48.8274C188.115 51.4795 189.819 54.4281 190.908 57.673C192.022 60.8306 192.002 64.4191 190.847 68.4384C189.642 72.6324 187.552 75.7208 184.577 77.7036C181.69 79.7119 178.103 81.1409 173.817 81.9906C174.66 83.7461 175.186 85.5998 175.396 87.5516C175.63 89.4161 175.421 91.4842 174.768 93.756C174.015 96.3772 172.792 98.6268 171.097 100.505C169.403 102.383 167.396 103.84 165.078 104.876C162.759 105.913 160.14 106.485 157.222 106.592C154.367 106.813 151.34 106.463 148.139 105.544ZM146.98 46.7573C146.151 49.6407 146.35 52.2989 147.576 54.7319C148.916 57.1032 150.751 59.4273 153.081 61.7044C155.524 63.9197 158.17 66.0986 161.02 68.2413C163.958 70.4095 166.611 72.7323 168.98 75.2097C172.176 74.8036 174.768 73.9876 176.757 72.7617C178.834 71.5612 180.299 69.4756 181.153 66.5048C182.006 63.5341 181.775 60.8194 180.46 58.3608C179.234 55.9278 177.444 53.6164 175.089 51.4267C172.76 49.1496 170.126 46.9269 167.188 44.7587C164.363 42.5287 161.755 40.2187 159.361 37.8286C156.204 38.4349 153.517 39.4129 151.3 40.7626C149.198 42.0504 147.758 44.0486 146.98 46.7573Z" fill="#ABABBA"/>
</g>
<defs>
<linearGradient id="paint0_linear_103_12" x1="163.5" y1="5" x2="163.5" y2="818" gradientUnits="userSpaceOnUse">
<stop stop-color="#E7F4B2"/>
<stop offset="0.662644" stop-color="#E7F4B2" stop-opacity="0"/>
</linearGradient>
<clipPath id="clip0_103_12">
<rect width="84" height="42" fill="white" transform="translate(122 65)"/>
</clipPath>
</defs>
</svg>
