<svg width="428" height="578" viewBox="0 0 428 578" fill="none" xmlns="http://www.w3.org/2000/svg">
<mask id="mask0_103_19" style="mask-type:alpha" maskUnits="userSpaceOnUse" x="-64" y="22" width="556" height="556">
<circle cx="214" cy="300" r="278" fill="#C4C4C4"/>
</mask>
<g mask="url(#mask0_103_19)">
<path d="M-23.0403 527.192C-28.5058 475.537 -34.1754 428.919 -48.2243 381.547C-55.4158 357.287 -59.8791 336.446 -58.2645 313.593C-56.2695 285.47 -46.2478 258.788 -36.5602 232.977C-28.9697 212.781 -21.1287 191.89 -17.3613 170.722C-14.6332 155.328 -17.083 142.322 -19.6719 128.554C-21.4628 119.084 -23.3094 109.288 -23.3929 98.4861C-23.5785 75.7678 -13.0001 60.6837 -2.76498 46.1024C5.15955 34.8145 13.3532 23.1328 16.9257 7.72186C22.8366 -17.7786 14.7543 -34.899 6.18955 -53.0334C0.250797 -65.6286 -5.90138 -78.6596 -7.56238 -95.1263L-5.75291 -95.2688C-4.12904 -79.0618 1.96747 -66.1565 7.85983 -53.6703C16.536 -35.3013 24.7296 -17.9462 18.6981 8.05707C15.0606 23.7613 6.78342 35.5603 -1.23389 46.9823C-11.7937 62.0245 -21.7597 76.2371 -21.5834 98.4693C-21.4906 109.145 -19.6626 118.866 -17.8902 128.277C-15.2642 142.188 -12.7866 155.328 -15.5704 170.982C-19.3564 192.284 -27.2252 213.242 -34.8435 233.505C-44.494 259.215 -54.4786 285.797 -56.455 313.702C-58.0511 336.328 -53.6156 357.019 -46.4705 381.128C-32.3845 428.618 -26.7056 475.303 -21.2308 527.033L-23.0403 527.192Z" fill="url(#paint0_linear_103_19)"/>
<path d="M1.31771 530.301C-3.66528 482.526 -9.34421 435.632 -23.9406 387.304C-30.5845 365.281 -36.4676 341.256 -34.5561 314.808C-32.4033 285.126 -22.6507 256.936 -13.2137 229.684C-6.82952 211.223 -0.222656 192.141 3.89735 172.867C7.39565 156.518 5.90168 142.322 4.31492 127.296C3.38699 118.472 2.43122 109.338 2.51474 99.5669C2.70033 77.6364 12.3694 62.569 21.7136 47.9962C28.9793 36.6664 36.4955 24.9594 39.8825 9.85022C45.5614 -15.491 37.6833 -33.4662 29.3319 -52.4973C23.653 -65.4528 17.7699 -78.8525 16.0718 -95.1433L17.8813 -95.3025C19.5608 -79.2296 25.3882 -65.9472 31.0208 -53.0922C39.4649 -33.8349 47.4451 -15.6419 41.6641 10.177C38.2122 25.546 30.6217 37.3786 23.2818 48.8174C13.6313 63.868 4.50979 78.0805 4.3242 99.5753C4.24069 109.271 5.19646 118.355 6.12439 127.137C7.72043 142.288 9.22367 156.593 5.67898 173.177C1.54041 192.543 -5.08501 211.667 -11.4877 230.17C-20.8877 257.338 -30.6124 285.428 -32.7466 314.917C-34.6396 341.121 -28.7936 364.988 -22.1868 386.868C-7.56258 435.33 -1.86509 482.3 3.12717 530.15L1.31771 530.301Z" fill="url(#paint1_linear_103_19)"/>
<path d="M27.6803 542.888C24.5346 512.016 17.0183 480.448 9.74336 449.928C-1.29901 403.57 -12.7218 355.627 -9.25138 308.599C-6.5975 272.623 2.60757 237.419 11.5157 203.379C19.7928 171.744 28.3576 139.037 31.559 105.936C33.4241 86.6701 40.3279 72.6754 47.64 57.8595C52.7065 47.594 57.9401 36.9849 61.392 24.3897C68.7968 -2.61082 60.6682 -25.1112 52.057 -48.9357C46.7585 -63.6091 41.2744 -78.7854 39.6969 -95.1683L41.5064 -95.3108C43.0653 -79.1122 48.5123 -64.0281 53.7829 -49.4385C62.4776 -25.3878 70.6805 -2.66947 63.155 24.7835C59.666 37.5212 54.3954 48.1974 49.301 58.5299C42.0539 73.2202 35.2058 87.0891 33.3685 106.07C30.1485 139.297 21.5745 172.063 13.2881 203.756C4.3892 237.737 -4.79731 272.866 -7.44191 308.708C-10.8938 355.51 0.501168 403.335 11.5157 449.584C18.8 480.155 26.3348 511.764 29.4804 542.737L27.6803 542.888Z" fill="url(#paint2_linear_103_19)"/>
<path d="M55.1191 560.603C51.6301 525.784 43.0468 491.082 34.7418 457.529C23.6252 412.586 12.1188 366.111 12.8704 319.074C13.5107 279.051 16.9441 227.287 37.9339 181.809C40.6063 176.018 43.3251 170.604 45.9512 165.384C53.7087 149.948 61.0394 135.375 64.2407 116.092C66.6255 101.729 70.3372 87.9773 73.9283 74.6782C77.1761 62.6947 80.5259 50.3006 82.855 37.563C88.0329 9.33903 80.8321 -17.5358 73.8634 -43.5222C69.3815 -60.232 64.7511 -77.4949 63.3221 -95.1768L65.1315 -95.3025C66.5513 -77.7547 71.1631 -60.5505 75.6264 -43.9161C82.6323 -17.762 89.8887 9.27199 84.6459 37.8312C82.2982 50.6275 78.9391 63.0551 75.6914 75.072C72.1096 88.3293 68.4071 102.047 66.0316 116.335C62.8024 135.844 55.4161 150.518 47.6029 166.054C44.9861 171.275 42.2673 176.672 39.6041 182.437C18.735 227.656 15.3295 279.227 14.6892 319.099C13.9376 365.943 25.4161 412.318 36.5141 457.168C44.8284 490.781 53.4303 525.533 56.9286 560.461L55.1191 560.603Z" fill="url(#paint3_linear_103_19)"/>
<path d="M82.6696 579.031C78.8929 539.293 69.0104 500.292 59.462 462.574C48.067 417.548 36.273 370.98 34.8347 322.979C34.677 317.683 34.4171 312.135 34.148 306.412C32.6355 274.09 30.9188 237.452 44.9956 209.295C51.2034 196.884 59.8053 186.661 68.1196 176.781C80.2291 162.392 91.6705 148.808 95.7163 129.383C106.786 76.279 100.588 26.5518 94.0274 -26.1C91.2251 -48.5836 88.3207 -71.8382 86.9473 -95.1766L88.7568 -95.2688C90.1301 -71.9723 93.0253 -48.7428 95.8276 -26.2843C102.407 26.4932 108.624 76.3376 97.4979 129.685C93.3686 149.495 81.8159 163.23 69.5672 177.77C61.3086 187.583 52.7716 197.723 46.6473 209.974C32.7469 237.779 34.4543 274.207 35.9575 306.345C36.2266 312.077 36.4864 317.632 36.6442 322.937C38.0825 370.779 49.8486 417.254 61.2343 462.205C70.792 499.982 80.6838 539.041 84.479 578.897L82.6696 579.031Z" fill="url(#paint4_linear_103_19)"/>
<path d="M109.347 593.763C105.469 549.986 94.2778 506.602 83.4489 464.652C73.353 425.534 62.9231 385.083 58.3391 344.18C57.4019 335.834 56.0842 327.454 54.813 319.342C49.7743 287.263 45.0233 256.969 61.6425 226.575C68.9917 213.15 80.6929 202.533 92.023 192.267C107.714 178.029 122.543 164.588 127.136 144.149C130.634 128.554 128.314 108.592 126.069 89.2847C124.909 79.3292 123.823 69.9268 123.591 61.5635C122.83 34.3452 119.861 6.92569 116.984 -19.5888C114.312 -44.2847 111.537 -69.8271 110.563 -95.1767L112.382 -95.2354C113.347 -69.936 116.121 -44.4188 118.794 -19.7396C121.67 6.79999 124.64 34.2446 125.401 61.5216C125.633 69.8179 126.718 79.1951 127.878 89.1171C130.133 108.542 132.471 128.637 128.908 144.476C124.213 165.401 108.503 179.647 93.3035 193.423C82.0848 203.597 70.4857 214.114 63.2757 227.296C46.8977 257.237 51.6116 287.297 56.6039 319.116C57.8844 327.236 59.2021 335.633 60.1393 344.021C64.714 384.815 75.1346 425.215 85.212 464.283C96.0595 506.292 107.26 549.734 111.157 593.629L109.347 593.763Z" fill="url(#paint5_linear_103_19)"/>
<path d="M134.188 600.366C130.013 551.636 117.476 502.32 105.357 454.621C96.9875 421.712 88.3484 387.689 82.5303 354.178C80.8693 344.624 78.5959 335.624 76.3967 326.926C69.4187 299.322 63.3964 275.489 78.9021 246.301C86.8545 231.326 100.514 220.131 113.718 209.312C131.126 195.032 147.578 181.54 152.422 160.029C155.892 144.585 151.958 127.079 148.144 110.151C145.704 99.3155 143.393 89.0835 142.892 79.3291C141.964 61.5886 140.897 43.5129 139.858 26.0405C137.51 -13.706 135.079 -54.8101 134.188 -95.1684L135.998 -95.2019C136.888 -54.8688 139.32 -13.7815 141.677 25.9567C142.707 43.4291 143.774 61.5048 144.702 79.2537C145.203 88.874 147.495 99.0558 149.917 109.824C153.768 126.911 157.748 144.585 154.204 160.356C149.239 182.395 131.803 196.692 114.934 210.519C101.859 221.245 88.3392 232.323 80.5353 247.005C65.2987 275.682 71.2653 299.263 78.1691 326.565C80.3682 335.289 82.651 344.314 84.3212 353.918C90.1301 387.371 98.7691 421.377 107.12 454.252C119.258 502.01 131.813 551.393 135.998 600.241L134.188 600.366Z" fill="url(#paint6_linear_103_19)"/>
<path d="M160.003 600.215C156.245 563.812 146.66 530.845 136.517 495.943C134.031 487.395 131.46 478.554 128.992 469.68C123.582 450.28 120.678 430.729 117.875 411.815C115.583 396.404 113.217 380.474 109.515 364.787C107.38 355.736 104.699 347.616 102.1 339.772C94.3522 316.358 87.6711 296.137 102.936 268.198C111.435 252.645 126.672 241.952 141.398 231.603C160.217 218.396 177.987 205.918 183.044 184.172C187.192 166.314 180.167 148.498 173.365 131.26C168.689 119.411 163.863 107.168 162.769 95.0835C158.231 44.9876 158.101 -7.11104 157.971 -57.4834C157.943 -70.1038 157.906 -82.6738 157.804 -95.1517L159.623 -95.1685C159.716 -82.6822 159.753 -70.1121 159.781 -57.4834C159.92 -7.14456 160.05 44.9122 164.578 94.9494C165.654 106.816 170.443 118.967 175.073 130.715C181.958 148.163 189.075 166.205 184.816 184.515C179.629 206.84 160.755 220.089 142.512 232.902C127.943 243.134 112.874 253.709 104.559 268.919C89.6105 296.28 95.8926 315.269 103.836 339.303C106.452 347.18 109.143 355.334 111.287 364.443C115.008 380.197 117.383 396.161 119.675 411.597C122.469 430.461 125.373 449.978 130.746 469.277C133.214 478.143 135.784 486.984 138.271 495.532C148.441 530.493 158.036 563.528 161.813 600.056L160.003 600.215Z" fill="url(#paint7_linear_103_19)"/>
<path d="M188.045 598.23C179.814 535.48 163.297 470.711 147.318 408.078C144.609 397.486 141.927 386.961 139.301 376.519C136.814 366.639 133.269 358.225 130.142 350.801C122.106 331.761 115.759 316.719 131.608 290.741C141.175 275.07 158.853 265.852 175.954 256.944C196.916 246.025 216.718 235.701 222.648 214.499C228.494 193.6 215.753 172.038 203.43 151.18C194.578 136.18 186.208 122.017 184.129 107.989C177.263 61.6056 178.775 11.7444 180.232 -36.466C180.817 -55.9076 181.42 -76.003 181.429 -95.1514H183.239C183.239 -75.9778 182.626 -55.8657 182.042 -36.4241C180.585 11.7276 179.081 61.5218 185.93 107.771C187.962 121.506 196.257 135.543 205.036 150.409C217.516 171.543 230.424 193.39 224.411 214.902C218.296 236.774 197.232 247.751 176.854 258.369C159.975 267.16 142.521 276.26 133.205 291.529C117.754 316.836 123.962 331.569 131.831 350.223C134.986 357.689 138.559 366.161 141.073 376.159C143.699 386.6 146.381 397.117 149.081 407.71C165.07 470.384 181.605 535.195 189.845 598.037L188.045 598.23Z" fill="url(#paint8_linear_103_19)"/>
<path d="M215.317 596.369C207.82 545.611 194.801 501.105 181.847 460.562C177.625 447.347 175.982 433.771 174.396 420.648C172.948 408.681 171.454 396.304 167.993 384.438C165.2 374.851 161.312 367.15 157.878 360.345C149.295 343.309 143.087 330.998 159.929 305.674C170.545 289.727 190.207 281.992 209.23 274.509C231.686 265.659 252.908 257.313 259.765 236.564C267.281 213.837 249.595 188.437 232.484 163.875C220.467 146.629 209.119 130.338 206.474 115.346C198.299 69.1054 200.665 18.5235 202.957 -30.4075C204.015 -52.9247 205.008 -74.2016 205.054 -95.1685L206.873 -95.1601C206.827 -74.1681 205.834 -52.8744 204.776 -30.3321C202.484 18.5068 200.118 69.0132 208.265 115.087C210.854 129.743 222.11 145.9 234.015 163.004C251.34 187.876 269.258 213.594 261.51 237.033C254.402 258.511 231.807 267.402 209.954 276.009C191.2 283.391 171.797 291.017 161.488 306.52C145.129 331.107 151.169 343.082 159.53 359.666C162.991 366.53 166.907 374.306 169.747 384.019C173.245 396.002 174.748 408.438 176.196 420.464C177.782 433.528 179.416 447.028 183.591 460.118C196.564 500.711 209.601 545.293 217.117 596.151L215.317 596.369Z" fill="url(#paint9_linear_103_19)"/>
<path d="M239.183 597.165C226.183 514.194 210.807 442.252 193.474 383.323C191.042 375.061 187.971 368.013 185.252 361.795C177.272 343.518 171.509 330.311 188.361 305.171C198.818 289.593 217.869 281.883 236.288 274.425C257.881 265.693 278.277 257.438 285.218 237.578C293.402 214.13 274.686 189.082 256.582 164.856C243.675 147.576 231.472 131.252 228.754 115.732C220.996 71.5441 223.641 23.5349 226.202 -22.8989C227.519 -46.9161 228.893 -71.7546 228.698 -95.1684L230.517 -95.1768C230.702 -71.721 229.338 -46.8575 228.011 -22.8151C225.459 23.5349 222.824 71.4603 230.544 115.472C233.208 130.632 245.289 146.814 258.095 163.942C276.431 188.488 295.397 213.871 286.944 238.072C279.762 258.637 258.039 267.419 237.031 275.925C218.862 283.274 200.071 290.875 189.92 306.026C173.523 330.462 179.156 343.359 186.941 361.2C189.669 367.452 192.768 374.549 195.227 382.904C212.58 441.891 227.974 513.901 240.984 596.931L239.183 597.165Z" fill="url(#paint10_linear_103_19)"/>
<path d="M260.405 604.347C249.474 535.052 237.003 452.92 227.371 369.111C227.056 366.379 226.731 363.697 226.406 361.058C223.316 335.825 220.653 314.029 236.084 289.174C243.731 276.855 257.037 268.207 269.917 259.844C286.48 249.084 302.135 238.927 306.505 221.681C312.824 196.742 294.785 177.04 277.331 157.984C264.164 143.596 250.542 128.721 247.182 111.567C239.128 70.4045 243.415 25.1607 247.563 -18.6083C249.985 -44.1422 252.49 -70.5477 252.342 -95.1599H254.161C254.309 -70.4807 251.794 -44.0417 249.372 -18.4658C245.234 25.1942 240.956 70.3291 248.973 111.274C252.249 128.017 265.713 142.716 278.732 156.937C296.456 176.303 314.791 196.323 308.277 222.041C303.749 239.891 287.093 250.709 270.975 261.176C258.262 269.43 245.113 277.97 237.662 289.978C222.518 314.372 225.153 335.926 228.216 360.873C228.531 363.521 228.865 366.203 229.171 368.943C238.803 452.727 251.275 534.834 262.206 604.112L260.405 604.347Z" fill="url(#paint11_linear_103_19)"/>
<path d="M280.56 616.439L280.077 613.271C267.04 527.033 253.548 437.861 267.272 349.166C270.696 327.018 279.938 299.196 294.73 266.447C298.441 258.234 303.601 250.282 308.584 242.597C317.52 228.812 326.762 214.558 327.829 198.451C329.583 172.029 313.186 159.384 295.834 145.992C281.618 135.023 266.919 123.685 262.178 104.126C252.926 65.9629 260.146 22.2023 267.124 -20.1252C271.494 -46.5894 275.614 -71.5787 275.967 -95.1685L277.785 -95.1517C277.424 -71.453 273.294 -46.3966 268.924 -19.8822C261.964 22.2945 254.764 65.9042 263.95 103.782C268.562 122.796 283.019 133.95 297.012 144.744C313.938 157.808 331.448 171.317 329.638 198.552C328.543 215.044 319.19 229.474 310.152 243.419C305.197 251.061 300.074 258.964 296.409 267.067C281.674 299.682 272.478 327.378 269.072 349.392C255.376 437.861 268.85 526.924 281.878 613.054L282.36 616.221L280.56 616.439Z" fill="url(#paint12_linear_103_19)"/>
<path d="M301.021 631.289C285.487 523.245 275.939 433.051 305.317 338.071C310.337 321.814 319.273 308.615 327.912 295.844C338.788 279.78 350.025 263.179 353.467 240.385C356.687 219.117 356.298 198.317 352.27 176.789C347.51 151.314 331.206 142.314 313.938 132.785C299.694 124.925 284.968 116.805 277.099 98.7542C262.419 65.0496 274.454 18.3225 286.1 -26.8626C292.549 -51.8854 298.636 -75.5255 299.582 -95.2102L301.392 -95.1348C300.436 -75.3076 294.33 -51.5921 287.863 -26.4939C276.282 18.4482 264.312 64.9239 278.788 98.1508C286.434 115.69 300.9 123.668 314.884 131.386C331.745 140.688 349.162 150.3 354.061 176.521C358.116 198.208 358.506 219.167 355.268 240.603C351.769 263.74 340.43 280.492 329.462 296.699C320.888 309.37 312.017 322.476 307.062 338.507C277.776 433.193 287.315 523.22 302.821 631.079L301.021 631.289Z" fill="url(#paint13_linear_103_19)"/>
<path d="M323.189 646.716C321.306 633.333 319.116 619.774 317 606.668C306.969 544.731 296.604 480.674 317.046 417.539C320.508 406.829 323.097 395.173 325.834 382.821C330.77 360.597 335.865 337.602 346.564 319.752C353.932 307.459 361.847 299.665 369.493 292.123C381.732 280.073 392.292 269.673 396.848 244.156C401.302 219.209 391.698 194.479 382.419 170.563L380.508 165.635C369.289 136.506 368.11 133.464 335.911 120.14C331.754 118.414 327.625 117.014 323.625 115.657C311.089 111.4 299.249 107.377 290.638 94.6311C270.678 65.125 289.088 13.2022 305.327 -32.6114C313.752 -56.3856 321.714 -78.8441 323.189 -95.2522L324.999 -95.1181C323.514 -78.5256 315.515 -55.9833 307.053 -32.117C290.934 13.3615 272.654 64.9071 292.187 93.7847C300.474 106.036 311.497 109.782 324.266 114.123C328.293 115.489 332.45 116.897 336.672 118.648C368.658 131.889 370.644 135.048 382.224 165.099L384.126 170.018C393.489 194.127 403.168 219.058 398.639 244.416C394 270.419 383.263 280.986 370.839 293.23C363.257 300.696 355.426 308.414 348.16 320.532C337.591 338.172 332.524 361.032 327.616 383.147C324.869 395.525 322.271 407.223 318.782 418C298.46 480.792 308.333 541.823 318.791 606.433C320.916 619.548 323.106 633.107 324.989 646.515L323.189 646.716Z" fill="url(#paint14_linear_103_19)"/>
<path d="M346.814 661.222C345.079 647.353 342.973 633.258 340.931 619.632C332.097 560.503 322.957 499.362 342.008 439.612C345.432 428.894 348.086 417.053 350.897 404.525C356.131 381.145 361.55 356.968 372.509 338.557C378.828 327.931 385.528 319.292 391.995 310.937C404.3 295.065 415.908 280.081 421.049 255.234C427.182 225.611 419.972 189.652 411.194 165.878C400.189 136.087 378.262 127.942 355.045 119.319C336.19 112.313 316.684 105.064 303.434 85.3125C282.648 54.3566 304.464 7.59599 323.709 -33.6589C334.371 -56.5113 344.448 -78.0983 346.805 -95.3025L348.605 -95.093C346.211 -77.6709 336.097 -55.9834 325.379 -33.022C306.31 7.87254 284.68 54.2225 304.983 84.4661C317.928 103.757 337.145 110.897 355.732 117.802C378.308 126.182 401.646 134.855 412.911 165.359C421.773 189.326 429.029 225.603 422.83 255.536C417.615 280.727 405.896 295.853 393.48 311.875C387.04 320.188 380.378 328.786 374.105 339.337C363.276 357.538 357.885 381.589 352.67 404.843C349.858 417.413 347.195 429.288 343.752 440.065C324.804 499.487 333.916 560.452 342.731 619.414C344.773 633.048 346.879 647.144 348.614 661.038L346.814 661.222Z" fill="url(#paint15_linear_103_19)"/>
<path d="M370.449 674.697C368.955 661.172 367.025 647.353 365.159 633.987C358.154 583.824 350.906 531.96 364.798 481.638C368.519 468.18 371.683 453.925 374.745 440.14C379.125 420.439 383.644 400.067 389.907 381.287C395.716 363.898 403.808 347.842 411.621 332.314C423.972 307.802 435.636 284.648 439.524 256.173C442.076 237.452 445.258 201.359 437.826 170.026C429.948 136.774 402.945 126.207 374.365 115.02C350.572 105.71 325.982 96.0809 313.613 72.2145C296.975 40.1106 319.524 2.58479 341.33 -33.7091C354.59 -55.7654 367.117 -76.6149 370.421 -95.3359L372.212 -95.0762C368.853 -76.0786 356.261 -55.1118 342.926 -32.9214C321.333 3.01218 299.007 40.1693 315.255 71.519C327.328 94.8239 351.602 104.327 375.088 113.511C402.833 124.372 431.525 135.609 439.598 169.683C447.086 201.25 443.894 237.553 441.324 256.374C437.399 285.093 425.141 309.445 413.273 332.993C405.478 348.471 397.414 364.477 391.652 381.765C385.407 400.461 380.888 420.799 376.527 440.467C373.455 454.269 370.291 468.54 366.561 482.04C352.753 532.052 359.972 583.766 366.96 633.786C368.825 647.16 370.764 660.988 372.249 674.53L370.449 674.697Z" fill="url(#paint16_linear_103_19)"/>
<path d="M394.083 685.65C392.877 672.795 391.179 659.621 389.527 646.875C384.247 605.989 378.791 563.712 388.237 522.742C393.795 498.641 398.416 474.456 402.88 451.076C404.661 441.766 406.452 432.413 408.308 422.994C413.764 395.315 424.037 366.572 433.975 338.783C452.997 285.578 472.66 230.572 462.434 175.917C455.698 139.917 425.725 127.238 394 113.821C367.776 102.734 340.653 91.2705 328.154 65.4097C311.803 31.5962 336.31 -1.98257 360 -34.4552C375.395 -55.5478 389.935 -75.4671 394.046 -95.3613L395.828 -95.0596C391.652 -74.847 377.018 -54.7852 361.522 -33.5585C338.092 -1.44624 313.863 31.7555 329.815 64.7561C342.045 90.047 368.843 101.377 394.77 112.338C425.521 125.344 457.321 138.794 464.225 175.641C474.525 230.698 454.788 285.897 435.701 339.286C425.781 367.024 415.527 395.709 410.09 423.279C408.243 432.698 406.452 442.042 404.671 451.352C400.198 474.749 395.577 498.943 390.009 523.069C380.628 563.787 386.075 605.93 391.327 646.683C392.979 659.445 394.686 672.627 395.892 685.516L394.083 685.65Z" fill="url(#paint17_linear_103_19)"/>
<path d="M417.708 692.605C416.743 679.34 415.035 665.68 413.384 652.473C409.319 620.017 405.116 586.455 411.194 554.033L412.716 545.971C418.46 515.418 423.879 486.557 427.377 455.299C431.571 417.765 442.409 380.139 452.895 343.753C457.164 328.962 461.571 313.66 465.422 298.702C467.25 291.629 469.384 284.196 471.639 276.327C480.575 245.195 490.699 209.915 486.096 180.677C480.167 142.984 448.33 128.687 414.618 113.561C386.817 101.075 358.061 88.1699 345.598 60.9012C329.527 25.7218 355.184 -4.95749 379.997 -34.6312C396.301 -54.1315 413.17 -74.3023 417.68 -95.3613L419.462 -95.0513C414.868 -73.6151 397.878 -53.2935 381.444 -33.6507C356.938 -4.33736 331.596 25.9648 347.278 60.2811C359.48 86.9799 387.921 99.7427 415.425 112.095C448.07 126.752 481.828 141.903 487.897 180.451C492.546 210.007 482.375 245.463 473.393 276.737C471.138 284.598 469.013 292.023 467.194 299.07C463.334 314.054 458.917 329.364 454.649 344.163C444.182 380.491 433.362 418.058 429.177 455.467C425.679 486.775 420.25 515.661 414.497 546.248L412.985 554.309C406.953 586.505 411.138 619.95 415.184 652.289C416.836 665.521 418.552 679.189 419.517 692.496L417.708 692.605Z" fill="url(#paint18_linear_103_19)"/>
<path d="M441.157 693.795C440.35 679.759 438.512 665.27 436.749 651.267C433.065 622.104 429.252 591.953 434.077 562.899C435.645 553.447 437.334 544.053 438.958 534.977C443.226 511.161 447.253 488.661 449.564 464.375C453.832 419.441 466.192 374.65 478.144 331.342C480.612 322.401 483.072 313.493 485.456 304.593C487.73 296.129 490.541 287.137 493.52 277.618C503.235 246.595 514.241 211.424 509.703 182.261C503.829 144.568 471.547 129.551 437.371 113.654C409.143 100.522 379.951 86.9467 367.609 59.3847C351.695 23.845 377.501 -5.63599 402.453 -34.1533C419.304 -53.4106 436.74 -73.3299 441.213 -94.9504L442.994 -94.6488C438.438 -72.6344 420.863 -52.5558 403.873 -33.1309C378.113 -3.69183 353.774 24.1131 369.289 58.773C381.38 85.7735 410.266 99.2066 438.197 112.196C471.287 127.59 505.5 143.495 511.503 182.035C516.087 211.541 505.026 246.888 495.265 278.07C492.295 287.573 489.483 296.548 487.219 304.978C484.835 313.878 482.376 322.794 479.907 331.736C467.974 374.985 455.623 419.71 451.373 464.518C449.054 488.87 445.017 511.396 440.749 535.237C439.125 544.312 437.445 553.698 435.877 563.142C431.08 591.986 434.875 622.02 438.549 651.074C440.322 665.111 442.15 679.616 442.966 693.712L441.157 693.795Z" fill="url(#paint19_linear_103_19)"/>
<path d="M461.005 681.87C456.403 599.997 455.661 529.898 466.935 453.858C471.992 419.751 482.366 385.108 492.397 351.613C496.944 336.42 501.649 320.724 505.722 305.464C508.051 296.741 511.012 287.506 514.139 277.735C523.446 248.656 533.996 215.689 529.784 188.01C524.225 151.515 493.641 135.19 461.265 117.919C434.624 103.715 407.093 89.0248 395.438 62.0578C380.535 27.5656 404.105 -0.725433 426.904 -28.0779C442.094 -46.3128 457.804 -65.1679 462.286 -85.8247L464.068 -85.5146C459.511 -64.4808 443.672 -45.4748 428.352 -27.0974C404.819 1.14331 382.586 27.8253 397.127 61.4628C408.549 87.9018 435.812 102.441 462.184 116.511C493.511 133.221 525.896 150.501 531.584 187.784C535.852 215.815 525.246 248.949 515.883 278.187C512.756 287.942 509.805 297.16 507.485 305.841C503.403 321.127 498.698 336.839 494.151 352.041C484.129 385.485 473.783 420.07 468.735 454.068C457.47 529.991 458.222 600.006 462.815 681.787L461.005 681.87Z" fill="url(#paint20_linear_103_19)"/>
<path d="M477.56 659.496C476.762 643.633 475.629 627.518 474.535 611.931C470.786 558.617 466.907 503.485 476.075 449.224C481.531 416.902 495.97 383.173 509.935 350.558C531.138 301.032 553.065 249.83 546.393 199.507C541.763 164.613 514.556 145.951 485.744 126.191C462.527 110.268 438.522 93.8017 427.795 68.1001C414.117 35.3425 432.509 10.6968 451.977 -15.3986C464.355 -31.9911 477.161 -49.1534 481.16 -68.7375L482.942 -68.4442C478.877 -48.5249 465.97 -31.2201 453.48 -14.4768C434.281 11.2499 416.149 35.552 429.493 67.5219C440.034 92.7793 463.826 109.104 486.839 124.883C514.686 143.981 543.48 163.733 548.194 199.315C554.921 250.039 532.911 301.442 511.624 351.144C497.696 383.684 483.294 417.321 477.866 449.467C468.726 503.56 472.604 558.6 476.344 611.83C477.448 627.426 478.58 643.549 479.369 659.421L477.56 659.496Z" fill="url(#paint21_linear_103_19)"/>
<path d="M-216.839 672.46L-217.507 670.935C-169.356 653.789 -146.204 619.733 -121.698 583.674C-115.973 575.243 -110.043 566.52 -103.687 557.838L-100.253 553.112C-75.6632 519.298 -45.0786 477.205 5.73485 496.714C26.9009 504.851 43.8821 520.32 60.2971 535.279C79.8208 553.07 100.003 571.455 127.275 577.456C145.509 581.47 164.133 576.693 182.134 572.076C195.905 568.548 210.149 564.886 224.198 565.145C272.645 566.008 305.744 592.573 337.758 618.266C360.195 636.275 383.403 654.904 411.742 664.583C451.707 678.234 465.729 651.711 480.575 623.63C487.006 611.462 493.659 598.883 502.577 590.143C511.828 578.428 521.72 572.344 531.909 572.143C543.174 571.9 554.856 578.813 566.836 592.632C590.591 624.007 620.359 650.362 655.351 671.01L654.358 672.376C619.171 651.619 589.227 625.113 565.37 593.604C553.798 580.255 542.589 573.55 531.946 573.785C522.36 573.969 512.951 579.819 503.987 591.174C495.181 599.814 488.583 612.283 482.218 624.334C467.668 651.845 452.635 680.304 411.101 666.116C382.447 656.329 359.119 637.599 336.551 619.49C304.779 593.998 271.93 567.634 224.16 566.779C210.381 566.52 196.276 570.157 182.635 573.651C164.402 578.327 145.546 583.171 126.848 579.048C99.0847 572.939 78.7073 554.377 59.0073 536.435C42.7129 521.586 25.8616 506.234 5.02034 498.222C-44.392 479.242 -74.5219 520.698 -98.7316 554.017L-102.174 558.735C-108.512 567.408 -114.432 576.115 -120.157 584.537C-144.822 620.831 -168.122 655.113 -216.839 672.46Z" fill="url(#paint22_linear_103_19)"/>
<path d="M-211.466 649.85L-212.245 648.376C-164.448 627.61 -143.959 590.159 -122.264 550.505C-117.002 540.893 -111.565 530.946 -105.663 521.108C-104.197 518.661 -102.694 516.113 -101.144 513.482C-86.1674 488.057 -67.5252 456.406 -39.5574 448.763C-27.2438 445.394 -14.0115 447.087 -0.222458 453.791C20.7766 464.015 37.3216 483.632 53.3191 502.605C73.381 526.404 94.1295 551.016 123.935 557.67C143.022 561.935 162.564 552.164 181.457 542.712C193.566 536.653 204.999 530.938 216.301 528.675C234.024 525.122 267.513 520.379 292.586 528.566C322.966 538.488 341.163 561.818 358.766 584.394C372.843 602.445 387.393 621.115 408.03 632.479C420.733 639.476 431.525 641.546 441.027 638.839C459.001 633.702 469.468 611.973 479.601 590.956C486.254 577.145 492.546 564.106 500.813 555.516C510.334 542.569 520.439 535.924 530.776 535.865C530.823 535.865 530.869 535.865 530.916 535.865C542.338 535.865 554.225 543.918 566.242 559.807C589.774 594.358 619.765 624.166 655.397 648.443L654.312 649.758C618.494 625.356 588.345 595.389 564.72 560.695C553.084 545.318 541.698 537.508 530.916 537.508C530.869 537.508 530.832 537.508 530.786 537.508C521.089 537.566 511.494 543.96 502.261 556.514C494.095 564.986 487.86 577.925 481.262 591.609C470.971 612.961 460.328 635.043 441.574 640.398C431.543 643.255 420.26 641.135 407.083 633.878C386.131 622.339 371.46 603.526 357.281 585.333C339.845 562.975 321.816 539.854 291.973 530.108C267.328 522.063 234.228 526.756 216.691 530.276C205.648 532.488 194.327 538.153 182.339 544.145C163.13 553.748 143.282 563.678 123.508 559.262C93.0717 552.466 72.1283 527.628 51.8716 503.602C35.9947 484.764 19.5703 465.288 -1.08543 455.232C-14.4291 448.746 -27.1974 447.095 -39.0285 450.33C-66.2818 457.78 -84.7198 489.088 -99.5481 514.253C-101.098 516.884 -102.601 519.44 -104.067 521.887C-109.959 531.7 -115.388 541.631 -120.64 551.234C-142.474 591.148 -163.102 628.842 -211.466 649.85Z" fill="url(#paint23_linear_103_19)"/>
<path d="M-203.857 627.3L-204.701 625.842C-157.776 603.794 -140.284 564.383 -121.763 522.658C-117.105 512.167 -112.289 501.323 -106.972 490.714C-105.626 488.041 -104.243 485.208 -102.805 482.267C-90.3338 456.775 -73.2506 421.863 -45.9323 413.986C-33.9249 410.525 -20.7761 412.562 -6.84787 420.045C14.5224 431.526 30.9096 454.143 46.768 476.015C66.9319 503.828 87.7825 532.589 119.258 539.762C139.134 544.296 161.219 530.15 180.715 517.672C190.922 511.128 200.572 504.951 209.36 501.641C213.666 500.016 218.899 497.786 224.448 495.432C244.983 486.708 270.538 475.848 287.529 477.825C325.026 482.208 344.16 515.276 362.663 547.254C375.32 569.117 387.281 589.774 404.541 601.448C416.938 609.828 427.581 612.786 437.093 610.464C455.336 606.04 466.304 582.81 476.91 560.343C483.749 545.846 490.217 532.161 498.42 523.765C508.321 510.692 518.63 504.021 529.023 504.021C529.162 504.021 529.301 504.021 529.431 504.021C541.234 504.222 553.297 513.055 565.305 530.251C588.679 567.19 618.986 599.361 655.416 625.909L654.275 627.183C617.668 600.509 587.213 568.179 563.746 531.097C552.11 514.421 540.548 505.856 529.403 505.664C519.549 505.496 509.573 511.924 499.849 524.77C491.766 533.05 485.364 546.617 478.58 560.98C467.798 583.808 456.653 607.414 437.566 612.048C427.489 614.495 416.326 611.453 403.455 602.755C385.862 590.864 373.817 570.048 361.058 548.008C342.769 516.407 323.848 483.725 287.297 479.451C270.854 477.54 244.473 488.736 225.218 496.915C219.651 499.278 214.399 501.516 210.056 503.15C201.454 506.393 191.887 512.519 181.763 519.005C161.952 531.692 139.487 546.072 118.812 541.346C86.6597 534.022 65.6049 504.985 45.2554 476.912C29.5085 455.191 13.2325 432.741 -7.78508 421.453C-21.2401 414.221 -33.8878 412.226 -45.3848 415.545C-71.9236 423.196 -88.812 457.722 -101.144 482.929C-102.582 485.87 -103.974 488.711 -105.32 491.393C-110.628 501.968 -115.425 512.795 -120.083 523.27C-138.725 565.279 -156.347 604.967 -203.857 627.3Z" fill="url(#paint24_linear_103_19)"/>
<path d="M-199.755 603.601L-200.618 602.16C-156.003 580.137 -139.681 541.916 -122.394 501.44C-118.051 491.258 -113.551 480.725 -108.568 470.425C-107.241 467.694 -105.877 464.794 -104.466 461.811C-92.2082 435.782 -76.953 403.394 -51.0174 395.81C-39.2976 392.382 -26.3066 394.486 -12.3969 402.053C8.64856 413.517 25.1193 435.02 41.0519 455.819C61.188 482.124 82.0201 509.317 112.447 517.169C133.279 522.549 159.075 508.739 181.828 496.554C189.901 492.23 197.529 488.149 204.136 485.417C211.466 482.384 220.467 477.339 229.997 472.001C250.337 460.596 273.387 447.657 290.906 448.034C330.622 448.83 349.06 484.94 366.904 519.868C378.067 541.723 388.608 562.363 403.799 573.709C415.815 582.676 426.19 586.062 435.515 584.076C453.127 580.313 464.114 557.863 474.73 536.15C481.55 522.214 487.99 509.049 495.97 501.096C506.149 488.325 516.653 482.023 527.167 482.275C538.97 482.627 550.94 491.443 562.753 508.479C585.859 544.321 615.682 575.511 651.398 601.196L650.266 602.478C614.374 576.668 584.402 545.326 561.194 509.326C549.743 492.8 538.274 484.244 527.102 483.909C517.155 483.607 507.254 489.75 497.38 502.127C489.53 509.954 483.146 523.002 476.391 536.812C465.589 558.894 454.426 581.721 435.933 585.668C426.013 587.788 415.129 584.285 402.648 574.966C387.133 563.385 376.508 542.586 365.252 520.555C347.649 486.088 329.443 450.447 290.869 449.668C290.637 449.668 290.415 449.66 290.192 449.66C273.304 449.66 250.82 462.263 230.944 473.392C221.367 478.764 212.32 483.834 204.887 486.909C198.373 489.599 190.783 493.663 182.756 497.962C159.688 510.314 133.539 524.326 111.946 518.745C80.8972 510.733 59.8796 483.289 39.5579 456.749C23.7367 436.092 7.3773 414.732 -13.3341 403.461C-26.7706 396.145 -39.2605 394.092 -50.4606 397.368C-75.6075 404.726 -90.6864 436.729 -102.796 462.448C-104.206 465.448 -105.58 468.339 -106.907 471.087C-111.871 481.353 -116.362 491.862 -120.705 502.027C-138.113 542.787 -154.547 581.285 -199.755 603.601Z" fill="url(#paint25_linear_103_19)"/>
<path d="M-203.087 578.109L-203.94 576.659C-159.864 555.399 -143.356 518.67 -125.874 479.786C-120.993 468.917 -115.945 457.68 -110.219 446.668L-109.496 445.269C-95.4652 418.252 -79.5605 387.622 -53.8754 381.346C-40.541 378.086 -26.0468 381.488 -9.54816 391.762C8.56503 403.033 23.0686 418.696 37.0989 433.838C51.6767 449.568 66.737 465.833 85.7874 477.071C116.808 495.373 147.625 485.384 180.241 474.808C186.162 472.889 192.277 470.903 198.327 469.127C210.631 465.515 224.068 457.168 238.283 448.344C263.811 432.481 290.21 416.089 315.422 423.154C343.947 431.165 360.613 466.487 375.311 497.644C383.449 514.899 391.141 531.189 399.91 540.927C413.532 556.045 425.067 562.849 435.135 561.726C450.408 560.025 460.913 539.762 471.064 520.17C477.216 508.295 483.591 496.018 491.117 487.471C499.654 474.138 509.174 466.981 519.335 466.311C530.331 465.574 542.264 472.445 554.791 486.7C577.442 520.421 606.403 549.475 640.922 573.14L639.827 574.447C605.122 550.648 576.013 521.443 553.307 487.638C541.234 473.912 529.83 467.25 519.474 467.945C509.935 468.574 500.897 475.454 492.611 488.392C485.141 496.881 478.822 509.074 472.707 520.865C461.868 541.782 451.624 561.542 435.357 563.352C424.603 564.55 412.549 557.553 398.5 541.958C389.573 532.044 381.834 515.644 373.641 498.289C359.1 467.451 342.611 432.506 314.875 424.721C290.526 417.866 264.488 434.056 239.304 449.693C224.977 458.593 211.448 466.998 198.893 470.685C192.861 472.454 186.765 474.431 180.854 476.35C149.258 486.599 116.567 497.191 84.7945 478.437C65.5214 467.074 50.3683 450.716 35.7163 434.894C21.7602 419.835 7.33089 404.257 -10.5782 393.111C-26.6128 383.131 -40.6246 379.804 -53.4022 382.921C-78.2707 389.005 -93.9898 419.266 -107.853 445.964L-108.577 447.355C-114.284 458.333 -119.322 469.554 -124.194 480.398C-141.797 519.566 -158.425 556.564 -203.087 578.109Z" fill="url(#paint26_linear_103_19)"/>
<path d="M-210.714 551.771L-211.494 550.296C-167.371 531.348 -150.12 496.798 -131.84 460.227C-126.774 450.079 -121.531 439.579 -115.62 429.204C-101.283 404.081 -85.0446 375.605 -59.0068 368.533C-45.6168 364.896 -31.0947 367.192 -14.5961 375.555C3.09027 384.513 17.7608 397.695 31.9489 410.45C45.6637 422.777 59.8425 435.523 76.6659 444.347C92.4407 452.618 128.454 464.61 192.499 451.906C208.701 448.688 225.33 438.02 242.942 426.732C269.156 409.913 296.27 392.525 323.551 399.899C352.966 407.86 368.806 444.372 382.79 476.585C390.223 493.714 397.238 509.887 405.422 519.591C418.803 535.446 429.92 542.636 439.431 541.689C453.016 540.282 461.887 522.466 471.287 503.602C476.91 492.306 482.737 480.624 489.808 472.345C497.454 460.21 506.158 453.573 515.595 452.727C525.756 451.797 536.891 457.562 548.741 469.831C569.156 499.471 595.583 524.225 627.392 543.508L626.372 544.874C594.358 525.457 567.754 500.535 547.284 470.803C535.936 459.062 525.302 453.498 515.781 454.353C506.956 455.149 498.726 461.509 491.312 473.25C484.296 481.47 478.525 493.068 472.939 504.273C463.325 523.58 454.241 541.807 439.635 543.315C429.446 544.346 417.782 536.938 403.984 520.58C395.642 510.7 388.58 494.418 381.101 477.188C367.275 445.319 351.593 409.201 323.031 401.475C296.585 394.326 269.852 411.472 243.99 428.065C226.23 439.461 209.453 450.221 192.889 453.506C165.144 459.012 113.022 465.322 75.7565 445.763C58.729 436.83 44.4667 424.009 30.6684 411.615C16.5731 398.936 1.98602 385.829 -15.4869 376.98C-31.5308 368.851 -45.5982 366.597 -58.4779 370.1C-83.7826 376.971 -99.845 405.12 -114.005 429.958C-119.898 440.291 -125.131 450.766 -130.188 460.906C-148.599 497.761 -165.988 532.572 -210.714 551.771Z" fill="url(#paint27_linear_103_19)"/>
<path d="M-219.474 525.549L-220.17 524.033C-175.657 507.247 -158.138 476.266 -137.844 440.383C-132.517 430.956 -126.996 421.21 -120.816 411.48C-95.1683 371.139 -69.7708 339.337 -18.5955 358.82C4.75128 367.711 25.7132 379.888 45.9885 391.662C88.5248 416.366 128.695 439.679 187.619 433.386C207.383 431.266 227.557 418.352 247.062 405.857C274.018 388.603 301.893 370.762 331.03 378.673C361.494 386.944 376.452 423.816 389.657 456.339C396.598 473.426 403.149 489.574 411.157 499.513C424.417 515.971 435.19 523.496 444.164 522.6C456.227 521.351 463.947 504.909 472.131 487.496C477.179 476.761 482.394 465.649 488.936 457.613C495.654 446.584 503.505 440.4 512.209 439.319C521.488 438.154 531.862 442.805 543.062 453.104C561.352 478.705 585.255 499.178 614.225 514.077L613.334 515.502C584.095 500.468 559.988 479.82 541.652 454.118C530.999 444.347 521.145 439.872 512.459 440.945C504.358 441.95 496.953 447.858 490.467 458.492C483.981 466.47 478.803 477.482 473.802 488.141C465.413 505.999 457.489 522.876 444.377 524.225C434.708 525.214 423.378 517.454 409.691 500.476C401.534 490.353 394.937 474.104 387.959 456.909C374.903 424.738 360.102 388.276 330.511 380.24C302.218 372.555 274.714 390.162 248.11 407.19C228.42 419.802 208.052 432.841 187.832 435.012C128.25 441.406 87.8196 417.9 45.0049 393.036C24.7946 381.304 3.89758 369.17 -19.3007 360.337C-69.112 341.365 -94.0269 372.647 -119.239 412.293C-125.4 421.989 -130.912 431.718 -136.229 441.129C-155.827 475.789 -174.349 508.53 -219.474 525.549Z" fill="url(#paint28_linear_103_19)"/>
<path d="M446.316 504.96C437.427 504.96 427.052 497.015 413.848 480.155C405.691 469.738 399.428 453.498 392.793 436.302C380.396 404.123 366.329 367.661 335.679 359.382C306.18 351.412 277.971 369.144 250.69 386.298C229.264 399.773 207.105 413.709 184.547 414.883C137.139 417.38 94.3243 395.55 52.9479 374.466C27.5412 361.527 3.54489 349.3 -21.5371 342.177C-72.3876 327.747 -97.5345 356.792 -122.932 393.296C-129.288 402.438 -134.995 411.539 -140.516 420.33C-162.156 454.788 -180.844 484.554 -226.192 500.376L-226.842 498.842C-182.106 483.239 -163.566 453.716 -142.094 419.525C-136.563 410.709 -130.847 401.6 -124.463 392.424C-99.6131 356.7 -73.0001 325.853 -20.9896 340.619C4.26869 347.792 29.4713 360.63 53.8387 373.041C94.9924 394.008 137.557 415.679 184.436 413.249C206.483 412.1 228.429 398.299 249.651 384.958C277.284 367.586 305.846 349.619 336.199 357.806C367.739 366.329 381.964 403.218 394.51 435.757C401.098 452.844 407.315 468.976 415.333 479.208C428.713 496.295 439.273 504.147 447.68 503.25C458.194 502.11 464.717 487.244 471.612 471.507C476.492 460.369 481.54 448.855 488.472 440.945C496.053 432.305 504.238 427.855 513.508 427.344C534.256 426.212 555.181 445.009 575.512 463.185C586.007 472.562 595.917 481.42 604.964 486.666L603.99 488.04C594.776 482.711 584.8 473.786 574.241 464.35C555.125 447.263 533.365 427.888 513.619 428.986C504.887 429.464 497.13 433.704 489.901 441.959C483.127 449.685 478.135 461.082 473.3 472.11C466.192 488.309 459.483 503.619 447.894 504.876C447.374 504.935 446.854 504.96 446.316 504.96Z" fill="url(#paint29_linear_103_19)"/>
<path d="M447.188 482.761C438.299 482.761 428.008 474.758 414.952 457.763C406.926 447.314 400.931 431.282 394.593 414.305C382.595 382.201 368.992 345.814 337.609 337.686C307.785 329.968 279.02 347.608 251.21 364.67C229.208 378.161 206.465 392.114 183.387 393.279C139.579 395.525 97.6463 374.189 57.0772 353.591C30.1301 339.907 4.67697 326.985 -21.3144 320.364C-72.4155 307.333 -97.8222 335.717 -123.489 371.273C-129.91 380.173 -135.728 389.022 -141.342 397.57C-163.668 431.559 -182.951 460.914 -227.955 476.853L-228.614 475.328C-184.194 459.59 -165.06 430.461 -142.91 396.74C-137.278 388.167 -131.45 379.309 -125.011 370.376C-98.945 334.267 -73.1207 305.465 -20.8226 318.78C5.3822 325.459 32.1066 339.035 57.968 352.158C98.3051 372.647 140.034 393.824 183.285 391.645C205.862 390.497 228.392 376.678 250.189 363.312C278.352 346.041 307.47 328.174 338.11 336.11C370.402 344.474 384.163 381.296 396.31 413.785C402.611 430.646 408.568 446.568 416.437 456.825C429.595 473.962 440.034 481.898 448.413 481.068C458.843 480.038 465.469 465.456 472.484 450.012C477.328 439.361 482.329 428.341 489.047 420.598C496.1 412.461 504.163 408.028 512.988 407.433C533.18 406.025 554.968 424.679 574.222 441.096C584.541 449.895 594.293 458.199 603.127 463.102L602.171 464.501C593.18 459.506 583.372 451.143 572.979 442.285C553.993 426.095 532.484 407.827 513.127 409.067C504.711 409.637 497.297 413.743 490.476 421.612C483.916 429.171 478.961 440.082 474.163 450.64C466.935 466.537 460.115 481.563 448.608 482.694C448.144 482.736 447.671 482.761 447.188 482.761Z" fill="url(#paint30_linear_103_19)"/>
<path d="M449.814 455.157C440.619 455.165 430.69 447.69 418.617 431.701C410.943 421.528 405.571 406.67 399.883 390.941C389.267 361.594 377.241 328.334 346.777 320.372C315.274 312.152 283.594 330.336 252.945 347.918C228.123 362.155 202.447 376.887 177.105 377.306C132.462 378.036 94.7512 352.594 58.3484 327.973C34.3986 311.775 9.62282 295.023 -16.3314 286.668C-68.147 269.975 -95.1869 306.755 -119.035 339.211C-125.809 348.429 -132.007 357.689 -137.992 366.647C-160.643 400.519 -182.032 432.506 -227.398 449.383L-228.094 447.866C-183.275 431.19 -162.035 399.43 -139.551 365.801C-133.548 356.834 -127.349 347.557 -120.547 338.306C-97.5253 306.981 -68.8801 267.997 -15.719 285.118C10.4951 293.565 35.3729 310.392 59.4341 326.658C95.5956 351.11 132.926 376.393 177.077 375.664C201.909 375.253 227.362 360.655 251.97 346.527C282.954 328.753 314.995 310.375 347.278 318.797C378.67 327.001 390.854 360.697 401.608 390.43C407.25 406.042 412.586 420.799 420.121 430.779C431.803 446.257 441.602 453.691 450.13 453.515C460.69 453.297 468.911 441.238 477.615 428.467C483.619 419.651 489.827 410.542 497.556 403.762C523.91 380.617 555.404 404.5 583.177 425.576C594.108 433.863 604.426 441.69 613.678 446.115L612.824 447.565C603.405 443.056 593.013 435.171 582.007 426.824C554.819 406.201 524.002 382.829 498.818 404.935C491.256 411.572 485.104 420.598 479.156 429.321C470.192 442.486 461.72 454.914 450.167 455.157C450.046 455.157 449.935 455.157 449.814 455.157Z" fill="url(#paint31_linear_103_19)"/>
<path d="M630.557 434.358C617.789 429.606 604.965 421.427 592.558 413.525C567.996 397.871 542.608 381.689 514.89 389.315C504.117 392.282 495.58 399.748 487.331 406.963C471.751 420.589 457.034 433.461 431.386 410.332C416.149 396.589 410.359 377.675 404.764 359.373C395.326 328.543 387.189 301.911 337.349 306.889C310.987 309.512 285.524 322.124 260.897 334.325C231.426 348.923 200.962 363.991 168.679 362.113C129.808 359.834 92.9975 331.526 66.1153 310.861C57.4948 304.233 49.0785 295.224 40.1704 285.688C23.7274 268.098 6.72777 249.896 -13.8073 244.181C-60.3616 231.226 -86.9283 267.469 -110.359 299.456C-111.992 301.685 -113.616 303.897 -115.221 306.059C-121.494 314.515 -127.395 323.054 -133.111 331.3C-157.748 366.907 -181.02 400.544 -227.519 418.628L-228.234 417.12C-182.264 399.237 -159.14 365.817 -134.652 330.437C-128.936 322.174 -123.015 313.618 -116.724 305.146C-115.128 302.984 -113.504 300.78 -111.871 298.543C-88.0882 266.087 -61.1225 229.298 -13.2691 242.623C7.77632 248.472 24.9523 266.858 41.5623 284.632C50.4147 294.118 58.7847 303.068 67.2938 309.613C93.9811 330.135 130.532 358.234 168.8 360.479C200.535 362.34 230.777 347.373 260.016 332.884C284.801 320.616 310.43 307.92 337.145 305.255C388.534 300.143 397.257 328.702 406.508 358.937C412.048 377.03 417.773 395.743 432.666 409.176C457.052 431.165 470.498 419.399 486.069 405.79C494.476 398.433 503.171 390.824 514.361 387.748C542.923 379.879 568.682 396.304 593.607 412.184C605.93 420.036 618.67 428.165 631.244 432.849L630.557 434.358Z" fill="url(#paint32_linear_103_19)"/>
<path d="M647.185 420.548C631.466 415.779 616.239 406.913 601.503 398.332C579.706 385.653 557.176 372.53 532.53 372.287C523 372.186 512.45 375.664 501.315 379.335C481.995 385.712 462.026 392.298 445.333 380.349C429.094 368.717 424.575 351.186 420.195 334.242C414.061 310.459 408.262 288.001 370.476 285.017C334.918 282.21 299.982 299.858 266.196 316.928C231.936 334.233 196.508 352.116 160.616 348.412C120.548 344.272 77.0092 300.755 54.6275 275.179C48.8279 268.559 43.4552 259.777 37.767 250.466C25.9452 231.125 12.5366 209.195 -7.96138 203.069C-49.6255 190.624 -82.4464 235.022 -104.16 264.394C-106.916 268.131 -109.496 271.618 -111.899 274.727C-117.847 282.428 -123.572 290.23 -129.103 297.772C-156.217 334.728 -181.828 369.622 -230.024 388.393L-230.748 386.885C-183.043 368.306 -157.581 333.605 -130.625 296.875C-125.075 289.316 -119.35 281.514 -113.384 273.788C-110.99 270.687 -108.419 267.21 -105.672 263.489C-83.6434 233.698 -50.3678 188.68 -7.39536 201.51C13.78 207.837 27.3742 230.069 39.3631 249.679C45.0049 258.922 50.3498 267.654 56.0472 274.165C78.2619 299.54 121.401 342.714 160.82 346.786C196.137 350.44 231.305 332.674 265.314 315.495C299.332 298.308 334.51 280.526 370.634 283.392C409.737 286.475 415.676 309.495 421.967 333.864C426.264 350.541 430.718 367.787 446.465 379.058C462.351 390.446 481.847 384.011 500.693 377.793C511.828 374.122 522.36 370.644 532.141 370.644C532.28 370.644 532.41 370.644 532.549 370.644C557.724 370.904 580.476 384.145 602.487 396.958C617.12 405.48 632.264 414.296 647.77 418.997L647.185 420.548Z" fill="url(#paint33_linear_103_19)"/>
<path d="M654.544 401.793C635.475 395.567 618.763 385.075 602.598 374.927C584.383 363.497 565.555 351.672 543.768 346.46C534.256 344.189 521.636 345.002 508.274 345.873C488.379 347.164 467.807 348.488 455.8 339.412C440.851 328.099 436.666 312.663 432.611 297.73C426.663 275.808 421.531 256.869 384.331 255.042C347.204 253.224 310.458 271.425 274.928 289.04C238.302 307.191 200.424 325.971 162.249 322.535C144.052 320.901 124.037 311.197 102.769 293.699C82.2799 276.839 65.8926 256.953 57.9402 246.595C52.5768 239.606 48.1135 230.74 43.381 221.346C33.4707 201.628 23.2171 181.247 3.09027 174.418C-37.9707 160.482 -76.786 208.742 -99.975 237.578C-102.917 241.24 -105.7 244.701 -108.159 247.626C-114.766 255.461 -121.15 263.422 -127.312 271.115C-157.451 308.708 -185.911 344.214 -236.668 362.466L-237.337 360.941C-187.08 342.865 -158.759 307.551 -128.787 270.16C-122.607 262.45 -116.223 254.489 -109.607 246.629C-107.157 243.721 -104.383 240.276 -101.441 236.614C-77.9459 207.402 -38.6202 158.512 3.73055 172.884C24.5533 179.957 34.9647 200.647 45.0327 220.667C49.7281 229.994 54.1636 238.793 59.4342 245.665C109.923 311.431 151.03 319.887 162.425 320.909C200.053 324.286 237.671 305.632 274.055 287.599C309.799 269.883 346.768 251.548 384.433 253.408C422.97 255.302 428.509 275.724 434.374 297.345C438.355 312.018 442.475 327.194 456.969 338.155C468.41 346.812 488.602 345.505 508.144 344.239C521.655 343.359 534.423 342.53 544.222 344.876C566.326 350.164 585.292 362.072 603.638 373.586C619.7 383.667 636.31 394.1 655.166 400.251L654.544 401.793Z" fill="url(#paint34_linear_103_19)"/>
<path d="M660.288 377.198C635.846 369.052 616.276 355.728 597.346 342.84C581.154 331.82 564.414 320.423 544.825 312.47C534.006 308.079 521.544 306.655 509.499 305.272C492.23 303.286 475.927 301.417 463.965 291.579C450.993 280.903 444.136 269.179 438.086 258.838C427.219 240.251 418.618 225.569 380.201 228.611C347.798 231.176 316.926 246.427 287.065 261.176C253.882 277.576 219.614 294.495 183.174 293.934C149.935 293.397 111.974 267.394 67.1267 214.457C63.2666 209.899 59.527 204.837 55.5647 199.491C41.9706 181.122 26.5576 160.297 2.23657 156.334C-39.2512 149.571 -78.1686 193.675 -103.919 222.863C-107.389 226.793 -110.628 230.455 -113.597 233.698C-119.165 239.757 -124.658 245.924 -129.975 251.883C-163.232 289.182 -194.642 324.412 -246.467 341.189L-247.08 339.647C-195.737 323.029 -164.485 287.975 -131.385 250.86C-126.068 244.885 -120.566 238.718 -114.998 232.65C-112.029 229.416 -108.8 225.762 -105.338 221.84C-79.3192 192.351 -39.9843 147.794 2.56134 154.725C27.6433 158.806 43.2789 179.94 57.0773 198.577C61.021 203.907 64.742 208.943 68.565 213.46C113.05 265.978 150.557 291.772 183.211 292.3C219.131 292.853 253.214 276.034 286.193 259.743C316.22 244.91 347.269 229.567 380.043 226.977C419.666 223.851 428.509 238.952 439.691 258.076C445.676 268.291 452.45 279.88 465.19 290.364C476.725 299.858 492.759 301.694 509.731 303.638C521.905 305.037 534.498 306.487 545.568 310.979C565.342 319.007 582.165 330.454 598.432 341.532C617.26 354.345 636.728 367.594 660.919 375.656L660.288 377.198Z" fill="url(#paint35_linear_103_19)"/>
<path d="M673.52 350.105C630.074 339.144 604.695 320.532 575.317 298.995C568.367 293.9 561.185 288.637 553.399 283.19C539.165 273.227 523.566 269.489 508.488 265.886C496.554 263.028 484.213 260.078 472.642 254.07C459.122 247.047 449.787 238.525 441.537 231C425.503 216.36 412.836 204.795 378.846 210.058C351.936 214.223 327.133 228.846 303.146 242.983C275.364 259.358 246.644 276.285 214.677 276.813C214.204 276.822 213.721 276.822 213.239 276.822C168.689 276.822 136.378 242.757 105.125 209.806C74.9585 177.996 43.7614 145.104 1.36429 141.802C-43.3156 138.308 -81.138 177.862 -108.772 206.731C-112.242 210.359 -115.583 213.854 -118.793 217.122C-124.482 222.904 -130.123 228.787 -135.58 234.477C-170.581 271.006 -203.643 305.506 -256.257 321.563L-256.832 320.004C-204.692 304.099 -171.788 269.757 -136.944 233.405C-131.487 227.706 -125.846 221.823 -120.148 216.033C-116.947 212.773 -113.606 209.287 -110.145 205.658C-82.2515 176.521 -44.0393 136.624 1.52206 140.168C44.6615 143.537 76.0998 176.68 106.499 208.742C138.902 242.899 169.524 275.187 213.183 275.187C213.675 275.187 214.157 275.187 214.649 275.179C246.087 274.66 274.593 257.858 302.153 241.617C326.298 227.379 351.259 212.672 378.531 208.44C413.458 203.035 427.071 215.455 442.827 229.843C450.993 237.293 460.244 245.74 473.551 252.645C484.909 258.545 497.13 261.469 508.952 264.302C524.207 267.947 539.991 271.726 554.513 281.891C562.307 287.347 569.499 292.626 576.458 297.721C606.885 320.029 630.928 337.652 674.003 348.521L673.52 350.105Z" fill="url(#paint36_linear_103_19)"/>
<path d="M688.237 322.518C630.946 314.004 602.849 299.775 562.985 259.089C542.784 238.466 523.279 233.413 500.702 227.572C491.98 225.318 482.96 222.98 473.022 219.611C462.787 216.133 453.517 211.667 444.553 207.343C422.255 196.591 401.191 186.435 371.191 195.493C353.746 200.764 336.356 214.994 319.552 228.754C296.947 247.265 273.498 266.355 248.147 266.229C214.76 265.995 179.128 234.393 147.699 206.513C134.671 194.957 122.357 184.038 111.732 176.856C80.4796 155.738 43.8728 132.861 4.88113 128.663C-47.1293 123.065 -84.5249 160.373 -117.522 193.281C-121.355 197.102 -125.131 200.865 -128.871 204.51C-133.705 209.22 -138.466 213.946 -143.198 218.639C-178.766 253.919 -212.366 287.255 -264.404 302.255L-264.961 300.696C-213.377 285.822 -179.944 252.654 -144.534 217.533C-139.802 212.84 -135.041 208.114 -130.198 203.396C-126.467 199.759 -122.691 195.996 -118.868 192.183C-85.5828 158.973 -47.8346 121.347 5.10385 127.037C44.5316 131.277 81.3797 154.305 112.818 175.549C123.536 182.798 135.896 193.75 148.97 205.348C180.158 233.011 215.512 264.36 248.157 264.595C248.268 264.595 248.389 264.595 248.5 264.595C273.09 264.595 296.084 245.757 318.327 227.539C335.28 213.661 352.809 199.315 370.616 193.935C401.349 184.65 422.747 194.974 445.407 205.893C454.315 210.192 463.529 214.633 473.662 218.078C483.535 221.421 492.518 223.751 501.203 225.997C524.058 231.913 543.795 237.016 564.349 258C603.879 298.35 631.735 312.462 688.534 320.901L688.237 322.518Z" fill="url(#paint37_linear_103_19)"/>
<path d="M698.491 296.456L692.385 295.995C662.932 293.808 632.469 291.545 607.359 276.864C592.289 268.048 584.921 257.615 577.117 246.57C572.858 240.528 568.441 234.285 562.475 227.706C539.787 202.7 523.093 199.734 492.787 194.345C489.53 193.767 486.125 193.155 482.552 192.493C472.688 190.667 462.806 188.144 453.248 185.706C422.682 177.895 393.805 170.521 363.768 183.585C349.041 189.988 336.988 202.223 325.333 214.055C309.428 230.204 292.976 246.905 269.713 248.413C238.766 250.408 203.217 219.385 171.853 191.999C156.616 178.692 142.215 166.113 129.994 158.822C93.6749 137.152 40.8107 111.182 -4.79712 110.545C-64.9548 109.707 -109.44 154.322 -152.487 197.463C-187.664 232.709 -224.039 269.154 -269.276 281.959L-269.814 280.392C-225.051 267.721 -188.843 231.444 -153.832 196.357C-110.507 152.948 -65.6508 108.048 -4.76926 108.911C41.2747 109.548 94.4729 135.66 130.996 157.448C143.356 164.831 157.813 177.451 173.115 190.817C204.201 217.969 239.425 248.749 269.583 246.779C292.113 245.313 307.591 229.6 323.978 212.966C335.753 201.016 347.928 188.655 362.979 182.111C393.638 168.77 422.83 176.228 453.74 184.13C463.27 186.56 473.115 189.074 482.914 190.893C486.486 191.555 489.883 192.158 493.13 192.736C523.854 198.2 540.77 201.2 563.876 226.667C569.917 233.321 574.362 239.606 578.649 245.69C586.675 257.053 593.607 266.866 608.352 275.489C633.072 289.945 663.304 292.191 692.533 294.37L698.639 294.822L698.491 296.456Z" fill="url(#paint38_linear_103_19)"/>
<path d="M698.918 273.31C696.226 273.126 693.517 272.95 690.789 272.782C662.06 270.947 632.357 269.062 607.813 255.109C591.714 245.95 584.04 235.148 575.159 222.645C571.179 217.03 567.059 211.231 561.844 205.13C538.812 178.197 519.92 175.063 485.633 169.364L481.68 168.711C473.3 167.311 464.624 165.468 456.245 163.674C424.482 156.912 391.643 149.906 362.004 163.674C347.891 170.236 336.895 182.127 326.261 193.633C311.553 209.547 296.353 225.997 273.007 227.539C272.023 227.597 271.03 227.631 270.037 227.631C239.592 227.639 205.37 197.739 175.064 171.267C159.604 157.758 144.999 145.012 132.509 137.638C108.429 123.425 46.8051 90.2988 -5.14978 89.7038C-64.7693 88.9663 -109.96 133.481 -153.665 176.487C-188.871 211.131 -225.273 246.955 -269.48 259.995L-270.046 258.444C-226.294 245.531 -190.049 209.865 -155.001 175.381C-111.027 132.107 -65.6045 87.3741 -5.12195 88.0613C47.3061 88.6646 109.292 121.975 133.502 136.263C146.131 143.722 160.801 156.535 176.326 170.085C207.356 197.195 242.506 227.941 272.877 225.905C295.453 224.413 309.743 208.952 324.869 192.586C335.614 180.954 346.731 168.929 361.169 162.216C391.401 148.171 424.575 155.244 456.653 162.082C465.023 163.867 473.681 165.711 482.014 167.102L485.957 167.755C520.69 173.521 539.824 176.697 563.282 204.133C568.543 210.284 572.682 216.117 576.69 221.756C585.45 234.1 593.022 244.76 608.788 253.718C632.932 267.453 662.413 269.33 690.909 271.148C693.647 271.316 696.366 271.492 699.057 271.676L698.918 273.31Z" fill="url(#paint39_linear_103_19)"/>
<path d="M690.78 250.491C625.852 245.916 597.81 233.538 560.285 192.937C531.612 161.914 508.107 155.47 464.856 149.009C458.351 148.037 451.661 146.797 444.59 145.481C416.539 140.269 384.757 134.361 358.979 145.665C346.118 151.313 335.447 163.272 324.163 175.934C308.695 193.281 292.688 211.222 270.279 211.834C238.608 212.697 202.493 181.356 170.619 153.702C155.039 140.185 140.331 127.422 127.971 120.098C81.7045 92.6867 40.2353 77.1837 4.70486 74.0244C-56.4179 68.5774 -104.698 114.249 -151.401 158.411C-186.876 191.957 -223.557 226.642 -265.991 239.43L-266.557 237.879C-224.559 225.217 -188.036 190.675 -152.709 157.28C-105.71 112.832 -57.0953 66.8678 4.88116 72.3903C40.6993 75.5831 82.4469 91.1699 128.964 118.732C141.463 126.131 156.236 138.953 171.872 152.52C203.495 179.956 239.332 211.072 270.223 210.2C291.807 209.605 307.535 191.965 322.753 174.903C333.665 162.66 344.958 149.998 358.191 144.19C384.525 132.643 416.632 138.609 444.952 143.872C452.014 145.188 458.686 146.428 465.153 147.392C508.849 153.928 532.623 160.439 561.677 191.89C598.812 232.08 626.595 244.324 690.928 248.857L690.78 250.491Z" fill="url(#paint40_linear_103_19)"/>
<path d="M676.592 227.497C619.858 224.044 592.41 212.706 548.927 174.778C516.134 146.168 489.075 138.593 447.597 133.984C442.549 133.422 437.417 132.752 431.998 132.031C404.643 128.428 373.641 124.338 348.865 135.693C337.015 141.124 327.049 151.741 316.499 162.987C301.309 179.177 285.599 195.929 263.458 196.382C231.927 197.035 196.759 166.75 165.803 140.034C151.865 128.009 138.698 116.637 127.535 109.69C98.2774 91.4886 54.2192 66.7591 9.49301 62.2423C-50.3956 56.1919 -98.9913 100.254 -145.991 142.867C-181.503 175.063 -218.23 208.357 -259.895 220.39L-260.451 218.832C-219.205 206.915 -182.635 173.764 -147.272 141.71C-99.9657 98.8212 -51.0637 54.4572 9.69714 60.6166C54.8317 65.1753 99.1497 90.0389 128.556 108.341C139.849 115.363 153.072 126.777 167.056 138.853C197.436 165.074 231.816 194.756 262.447 194.756C262.772 194.756 263.096 194.747 263.412 194.747C284.745 194.303 300.186 177.845 315.116 161.923C325.787 150.551 335.865 139.808 348.039 134.227C373.335 122.646 404.634 126.769 432.258 130.406C437.668 131.126 442.79 131.797 447.81 132.358C489.697 137.017 517.034 144.668 550.189 173.596C593.301 211.206 620.498 222.435 676.712 225.863L676.592 227.497Z" fill="url(#paint41_linear_103_19)"/>
<path d="M658.441 204.385C611.868 202.39 576.83 182.211 542.932 162.702C510.056 143.78 476.066 124.213 431.72 121.565C429.075 121.405 426.412 121.238 423.74 121.07C394.751 119.218 364.779 117.308 338.834 128.839C326.279 134.411 316.109 143.688 306.273 152.663C291.658 166.004 276.542 179.798 253.798 180.552C253.223 180.577 252.639 180.585 252.054 180.585C220.495 180.585 187.563 152.487 158.444 127.64C146.094 117.098 134.42 107.143 124.037 100.388C91.3921 79.1533 48.7258 54.449 8.23096 51.7925C-34.8714 48.9517 -72.6567 80.7036 -103.019 106.204C-106.554 109.179 -110.006 112.07 -113.365 114.836C-118.561 119.109 -123.674 123.383 -128.75 127.623C-166.192 158.931 -201.565 188.504 -252.1 202.34L-252.629 200.773C-202.483 187.046 -167.269 157.599 -129.984 126.425C-124.899 122.176 -119.786 117.903 -114.59 113.629C-111.231 110.863 -107.788 107.972 -104.253 105.006C-73.6403 79.2958 -35.5395 47.2757 8.36087 50.1584C49.3104 52.84 92.255 77.6952 125.095 99.0559C135.58 105.877 147.291 115.866 159.688 126.45C189.085 151.532 222.351 179.974 253.733 178.918C275.753 178.189 289.951 165.233 304.983 151.515C314.931 142.439 325.203 133.062 338.027 127.364C364.417 115.648 394.64 117.567 423.86 119.436C426.542 119.604 429.196 119.78 431.84 119.931C476.65 122.604 510.844 142.289 543.907 161.32C577.6 180.719 612.444 200.773 658.534 202.751L658.441 204.385Z" fill="url(#paint42_linear_103_19)"/>
<path d="M-243.507 184.75L-243.999 183.175C-193.715 170.378 -158.648 142.682 -121.531 113.361C-115.332 108.475 -108.939 103.413 -102.425 98.3938C-99.5296 96.1647 -96.5973 93.8769 -93.6279 91.5557C-60.8534 65.9211 -23.6991 36.8675 22.2242 43.7811C63.2202 49.9572 101.312 76.1364 133.808 100.187C141.129 105.609 149.026 112.455 157.387 119.704C183.675 142.49 213.471 168.308 245.113 168.744C266.177 169.088 281.098 155.294 295.537 142.003C304.733 133.556 314.225 124.808 325.175 119.855C345.552 110.637 374.318 106.74 413.106 107.922C456.245 109.254 491.562 126.928 525.728 144.023C560.025 161.185 595.49 178.934 638.481 179.588L638.454 181.222C595.008 180.568 559.338 162.719 524.847 145.456C490.875 128.453 455.744 110.872 413.041 109.564C374.55 108.383 346.081 112.229 325.991 121.322C315.311 126.157 305.92 134.797 296.836 143.152C282.286 156.543 267.235 170.387 245.772 170.387C245.549 170.387 245.317 170.387 245.085 170.387C212.728 169.934 182.663 143.881 156.134 120.886C147.792 113.662 139.923 106.832 132.648 101.452C100.347 77.5359 62.4778 51.5075 21.9272 45.3984C-23.1609 38.6022 -59.9626 67.396 -92.4402 92.7959C-95.4188 95.1172 -98.3511 97.4049 -101.246 99.6424C-107.751 104.654 -114.144 109.707 -120.334 114.592C-157.609 144.04 -192.824 171.853 -243.507 184.75Z" fill="url(#paint43_linear_103_19)"/>
<path d="M-235.017 167.101L-235.481 165.518C-185.437 153.744 -150.018 127.489 -112.521 99.7008C-105.292 94.3376 -97.8129 88.7984 -90.1575 83.3094L-84.6456 79.3373C-50.2936 54.5492 -11.3391 26.4593 35.9204 37.9232C69.2517 46.0099 98.5836 71.4517 126.941 96.0471C160.328 125.017 194.884 154.984 234.952 154.665C256.267 154.498 268.627 144.551 281.711 134.025C288.188 128.821 294.878 123.433 303.016 118.816C325.592 106.011 353.208 98.0583 382.855 95.8208C426.505 92.5107 464.801 110.126 501.844 127.154C540.436 144.886 576.895 161.638 618.568 156.434L618.818 158.059C576.56 163.33 539.87 146.47 501.018 128.612C464.207 111.693 426.143 94.2035 383.003 97.4549C353.644 99.6673 326.316 107.536 303.981 120.207C295.973 124.749 289.338 130.087 282.917 135.249C269.573 145.992 256.963 156.132 234.971 156.3C234.757 156.3 234.544 156.308 234.33 156.308C193.771 156.308 159.159 126.274 125.679 97.2287C97.4886 72.7757 68.333 47.4848 35.4472 39.4986C-10.9308 28.2442 -49.4956 56.0743 -83.5135 80.6194L-89.0254 84.5916C-96.6716 90.0721 -104.141 95.6113 -111.37 100.966C-149.025 128.872 -184.602 155.235 -235.017 167.101Z" fill="url(#paint44_linear_103_19)"/>
<path d="M-227.547 148.867L-227.974 147.275C-178.329 136.313 -142.632 111.483 -104.837 85.2037C-96.3746 79.3125 -87.6242 73.2286 -78.5954 67.2117L-77.1479 66.248C-40.8287 42.0381 0.334335 14.5935 48.6981 31.0519C77.0278 40.6973 101.191 62.9547 124.566 84.483C155.03 112.548 186.542 141.568 227.25 142.255C252.1 142.699 273.545 128.244 296.353 112.975C315.051 100.472 334.389 87.5249 355.825 83.3265C401.739 74.3264 445.936 89.7792 488.676 104.721L489.317 104.947C497.844 107.93 506.344 111.492 515.345 115.263C542.932 126.836 571.476 138.811 601.077 133.355L601.438 134.956C571.253 140.529 542.441 128.436 514.575 116.754C505.602 112.992 497.139 109.439 488.658 106.472L488.027 106.254C445.528 91.3965 401.59 76.0359 356.214 84.9271C335.15 89.0585 315.979 101.888 297.439 114.299C274.371 129.735 252.518 144.342 227.213 143.889C185.763 143.194 153.99 113.93 123.267 85.631C100.04 64.2284 76.0164 42.0968 48.0578 32.5854C0.612701 16.4371 -38.3696 42.432 -76.0622 67.5637L-77.519 68.5358C-86.5293 74.5359 -95.2704 80.6198 -103.733 86.4942C-141.685 112.891 -177.531 137.822 -227.547 148.867Z" fill="url(#paint45_linear_103_19)"/>
<path d="M-221.97 129.517L-222.388 127.925C-173.291 117.341 -137.38 93.7515 -99.3533 68.7706C-89.443 62.2593 -79.1894 55.5217 -68.5367 48.9099L-65.3725 46.9406C-37.8222 29.7866 -3.52594 8.43431 32.2736 12.9009C70.5786 17.6775 97.5164 44.1333 123.563 69.7175C152.283 97.9247 179.406 124.565 220.653 125.378C248.314 125.872 268.59 111.417 290.043 96.0643C306.932 83.9803 324.405 71.4857 345.84 66.9689C384.804 58.7481 426.496 71.0416 463.279 81.8853C466.369 82.7988 469.431 83.6954 472.456 84.5753C481.522 87.215 491.126 90.8436 501.296 94.69C528.976 105.148 560.35 117.006 588.048 110.403L588.512 111.986C560.22 118.724 528.54 106.766 500.591 96.1984C490.458 92.3688 480.891 88.757 471.899 86.134C468.874 85.2541 465.812 84.3491 462.713 83.444C426.162 72.6673 384.72 60.4576 346.257 68.5611C325.212 72.9941 307.906 85.3798 291.176 97.3549C270.408 112.213 248.964 127.565 220.616 127.02C178.59 126.191 149.935 98.042 122.227 70.8237C96.3936 45.4573 69.6785 19.2194 32.0231 14.5266C-3.08052 10.1522 -37.0521 31.2951 -64.3425 48.2898L-67.5067 50.2591C-78.1408 56.8625 -88.3852 63.5917 -98.2862 70.0946C-136.461 95.1761 -172.511 118.858 -221.97 129.517Z" fill="url(#paint46_linear_103_19)"/>
<path d="M-219.223 108.534L-219.641 106.941C-170.971 96.349 -134.735 73.4296 -96.3838 49.1693C-86.622 42.9933 -76.5354 36.6161 -66.0869 30.3394L-62.3845 28.1103C-34.7414 11.4424 -0.315201 -9.2814 34.7513 -4.88188C72.4345 -0.147161 98.0918 25.722 122.905 50.7532C149.193 77.2676 176.381 104.679 217.674 105.961C247.424 106.883 266.121 92.1338 285.942 76.5218C301.012 64.6473 316.601 52.3705 337.516 47.4598C373.622 38.9792 414.581 50.2336 450.715 60.1556C456.013 61.6137 461.21 63.0383 466.239 64.3624C475.221 66.7255 484.89 70.0692 495.125 73.6139C523.019 83.2677 554.643 94.2204 581.608 87.6337L582.082 89.2175C554.55 95.9383 522.629 84.8934 494.476 75.1391C484.278 71.6111 474.637 68.2758 465.729 65.9378C460.69 64.6138 455.493 63.1808 450.186 61.7226C414.284 51.8593 373.585 40.6804 337.971 49.0436C317.473 53.8622 302.051 66.0132 287.139 77.7537C267.922 92.888 248.036 108.5 217.619 107.595C175.546 106.296 148.098 78.6084 121.55 51.8426C96.9597 27.0377 71.5252 1.38639 34.5007 -3.25615C0.0930786 -7.58863 -33.9898 12.9676 -61.373 29.4679L-65.0847 31.697C-75.5147 37.9652 -85.592 44.3424 -95.3446 50.5102C-133.844 74.8625 -170.21 97.8657 -219.223 108.534Z" fill="url(#paint47_linear_103_19)"/>
<path d="M-219.056 86.0165L-219.511 84.4327C-171.426 73.2286 -134.624 50.9796 -95.6601 27.4149C-86.2231 21.6997 -76.452 15.8002 -66.421 9.98442L-61.1875 6.94247C-33.7208 -9.07178 0.45491 -28.9911 34.3522 -24.7089C71.3859 -20.0245 97.2752 5.06534 122.301 29.3256C148.961 55.1612 176.539 81.8851 217.442 83.2511C247.192 84.2148 266.418 69.8263 286.777 54.5662C302.097 43.0772 317.946 31.2027 338.723 26.3842C382.512 16.2192 425.326 30.8591 466.74 45.013C504.516 57.9182 543.591 71.2676 582.833 65.3848L583.14 67.0022C543.387 72.9604 504.098 59.5272 466.09 46.5465C424.946 32.4848 382.4 17.9455 339.177 27.968C318.791 32.7027 303.099 44.4599 287.937 55.8232C268.209 70.6056 247.804 85.8573 217.377 84.8852C175.713 83.5025 147.885 56.5272 120.975 30.4401C96.1617 6.38939 70.5044 -18.4826 34.1017 -23.0916C0.88176 -27.2984 -32.9877 -7.54662 -60.2039 8.31679L-65.4374 11.3671C-75.4591 17.1745 -85.2209 23.074 -94.6487 28.7725C-133.742 52.4209 -170.674 74.7454 -219.056 86.0165Z" fill="url(#paint48_linear_103_19)"/>
<path d="M-219.066 63.4491L-219.502 61.8569C-172.372 51.3148 -135.144 30.7753 -95.7251 9.03752C-86.7334 4.07654 -77.4263 -1.05204 -67.9243 -6.11359L-62.5608 -8.97956C-35.1498 -23.6614 -1.02975 -41.9466 32.1345 -37.9745C68.2773 -33.6588 95.1224 -10.8064 121.086 11.3001C148.831 34.9151 177.523 59.3345 217.424 60.6418C246.811 61.6055 267.884 48.3902 290.21 34.3871C306.885 23.9205 324.136 13.1102 345.107 8.82802C381.203 1.47035 416.344 12.7666 450.334 23.6942C456.867 25.7976 463.622 27.968 470.183 29.929C514.955 43.337 542.543 50.6276 588.874 44.3929L589.143 46.0186C542.394 52.2953 514.649 44.9795 469.607 31.4876C463.028 29.5183 456.264 27.3395 449.722 25.2361C415.982 14.3924 381.092 3.1715 345.506 10.4286C324.878 14.6354 307.785 25.3618 291.25 35.7279C269.657 49.2701 247.349 63.2731 217.349 62.2843C176.771 60.9435 147.838 36.3145 119.842 12.4901C94.0924 -9.43208 67.4608 -32.1001 31.9025 -36.3488C-0.64003 -40.2287 -34.4631 -22.1195 -61.6422 -7.57171L-67.0056 -4.69736C-76.4983 0.347424 -85.7869 5.47601 -94.7786 10.4286C-134.318 32.2418 -171.667 52.84 -219.066 63.4491Z" fill="url(#paint49_linear_103_19)"/>
<path d="M220.458 41.0073C219.558 41.0073 218.658 40.9905 217.758 40.9654C178.246 39.9095 147.216 18.532 117.207 -2.13313C95.809 -16.8652 73.6871 -32.1085 48.6794 -39.8433C-4.4353 -56.2765 -63.0155 -27.114 -119.666 1.0848C-154.704 18.5237 -187.794 34.9988 -219.093 40.9067L-219.465 39.3062C-188.435 33.4485 -155.456 17.032 -120.547 -0.348183C-63.5445 -28.723 -4.60233 -58.0615 49.2733 -41.3936C74.5501 -33.5666 96.7926 -18.2563 118.311 -3.44041C148.089 17.0739 178.887 38.2838 217.813 39.3313C246.82 40.1525 270.752 27.9344 293.941 16.1521C311.089 7.44525 328.831 -1.56329 348.67 -5.5019C387.884 -13.2953 421.243 -0.775566 456.57 12.4817C464.522 15.4649 472.744 18.5488 480.956 21.3477C505.462 31.5127 531.398 37.4123 558.132 38.9039C570.408 31.7641 583.919 26.8702 598.302 24.3645L598.645 25.9735C584.392 28.454 571.011 33.3228 558.865 40.4291L558.614 40.5715L558.317 40.5548C531.259 39.0799 504.998 33.1217 480.251 22.8561C472.066 20.074 463.835 16.9817 455.874 13.9901C420.817 0.841782 387.708 -11.5858 349.06 -3.90132C329.48 -0.0129814 311.868 8.92852 294.831 17.5851C272.144 29.0993 248.704 40.9989 220.458 41.0073Z" fill="url(#paint50_linear_103_19)"/>
<path d="M538.051 27.3645C523.91 27.3645 508.051 23.7275 485.892 14.8531C477.253 11.3921 469.041 7.78032 461.098 4.28584C428.407 -10.0943 400.17 -22.5051 360.529 -17.3598C339.233 -14.5944 319.143 -7.18642 299.712 -0.0298729C274.018 9.43957 247.377 19.2023 217.758 18.4146C179.75 17.3671 147.69 0.539967 116.688 -15.7341C93.9996 -27.6505 70.5322 -39.9607 44.8657 -46.053C-8.6759 -58.7488 -64.2033 -36.0976 -117.903 -14.1921C-151.429 -0.515915 -186.096 13.6296 -219.14 18.3811L-219.427 16.7637C-186.625 12.0458 -152.069 -2.04946 -118.654 -15.6838C-64.6579 -37.7065 -8.83365 -60.4835 45.3204 -47.6369C71.2282 -41.4943 94.8069 -29.117 117.597 -17.1503C148.404 -0.985199 180.269 15.7414 217.813 16.7721C247.145 17.585 273.508 7.85574 299.026 -1.54666C318.559 -8.74511 338.751 -16.1866 360.269 -18.9855C400.467 -24.2063 428.936 -11.6865 461.887 2.81096C469.821 6.29705 478.024 9.90047 486.626 13.353C536.223 33.2221 553.826 26.4259 592.391 11.5513C597.736 9.48985 603.461 7.27752 609.734 4.96463L610.411 6.48141C604.157 8.7943 598.432 10.9983 593.106 13.0597C571.243 21.4901 556.025 27.3645 538.051 27.3645Z" fill="url(#paint51_linear_103_19)"/>
<path d="M538.376 20.275C525.311 20.275 510.557 16.6968 491.841 7.79716C482.877 3.53172 474.776 -0.691818 466.944 -4.78128C436.953 -20.4268 413.263 -32.7957 372.787 -30.1979C349.106 -28.6811 326.029 -22.9324 303.703 -17.3681C276.171 -10.5132 247.693 -3.43209 217.758 -4.14439C181.438 -5.01592 148.497 -17.1083 116.65 -28.8068C92.3757 -37.7232 67.2659 -46.9412 40.7921 -51.1564C-12.0814 -59.5783 -64.5002 -43.6898 -115.193 -28.3124C-149.165 -18.0134 -184.277 -7.36233 -219.205 -4.14439L-219.381 -5.77012C-184.667 -8.97129 -149.647 -19.5972 -115.768 -29.8711C-64.8621 -45.3071 -12.2113 -61.2711 41.1075 -52.7737C67.7763 -48.5251 92.9696 -39.2735 117.328 -30.3236C149.035 -18.6838 181.819 -6.65002 217.804 -5.7785C247.479 -5.07458 275.818 -12.1222 303.22 -18.9519C325.63 -24.533 348.8 -30.2985 372.657 -31.832C413.681 -34.4634 437.594 -21.9855 467.854 -6.1975C475.667 -2.11642 483.749 2.09873 492.685 6.34741C539.193 28.4623 560.888 17.0822 593.737 -0.138737C602.06 -4.51311 611.497 -9.45734 622.113 -14.2256L622.92 -12.7507C612.36 -8.01597 602.951 -3.08013 594.646 1.27749C574.454 11.8615 558.41 20.275 538.376 20.275Z" fill="url(#paint52_linear_103_19)"/>
<path d="M539.861 13.3111C528.41 13.3111 515.93 10.2272 501.677 2.66846C490.31 -3.36517 480.668 -9.74238 471.343 -15.9017C447.792 -31.4718 427.452 -44.9218 391.531 -43.6983C364.955 -42.7933 338.333 -38.972 312.602 -35.2847C281.766 -30.8601 249.883 -26.2762 217.795 -26.6701C183.007 -27.0974 149.397 -34.8322 116.892 -42.324C88.6826 -48.8185 59.5085 -55.5393 29.7312 -57.4248C-18.1222 -60.45 -65.2054 -51.2068 -110.73 -42.2569C-145.991 -35.3266 -182.468 -28.1533 -219.26 -26.6701L-219.335 -28.3042C-182.7 -29.7874 -146.307 -36.944 -111.11 -43.8575C-65.4652 -52.8325 -18.2614 -62.1176 29.8611 -59.0589C59.8054 -57.1566 89.0538 -50.4275 117.346 -43.9078C149.74 -36.4496 183.248 -28.7315 217.823 -28.3125C249.771 -27.9019 281.562 -32.4858 312.314 -36.9021C338.101 -40.5977 364.77 -44.4274 391.457 -45.3324C428.055 -46.581 448.599 -32.9718 472.41 -17.2258C481.698 -11.0832 491.312 -4.73112 502.595 1.25223C544.287 23.3671 570.631 6.12103 601.132 -13.8486C611.46 -20.6113 622.141 -27.6002 634.074 -33.5417L634.955 -32.1087C623.115 -26.2175 612.481 -19.2537 602.199 -12.5246C581.525 1.0092 562.735 13.3111 539.861 13.3111Z" fill="url(#paint53_linear_103_19)"/>
<path d="M-218.388 -94.3638C-218.37 -72.6679 -217.34 -50.6619 -216.245 -27.3906C-213.897 22.8561 -211.457 74.8208 -220.059 122.361C-224.076 144.585 -234.052 165.484 -243.693 185.697C-256.387 212.304 -269.508 239.815 -268.728 270.176C-268.209 290.221 -260.887 306.328 -253.13 323.389C-250.458 329.255 -247.692 335.323 -245.15 341.691C-229.533 380.793 -226.638 415.159 -227.018 457.939C-227.278 486.39 -220.43 510.549 -213.173 536.133C-209.694 548.435 -206.084 561.156 -203.235 574.623C-197.501 601.766 -203.913 627.979 -210.111 653.337C-213.257 666.225 -216.514 679.541 -218.221 692.999C-171.815 676.885 -148.209 646.742 -120.928 611.897C-114.998 604.33 -108.874 596.503 -102.378 588.693L-99.0007 584.612C-71.9423 551.905 -41.2834 514.831 8.55569 531.709C28.6176 538.505 45.7286 551.268 62.2828 563.62C82.1962 578.469 102.796 593.838 128.546 598.716C146.066 602.042 164.262 599.922 181.865 597.869C197.102 596.101 212.858 594.266 228.188 595.942C265.824 600.048 296.149 622.196 325.472 643.616C352.168 663.124 379.784 683.295 413.3 690.561C453.044 699.175 465.599 677.387 480.139 652.147C486.718 640.716 493.52 628.892 503.375 619.523C512.468 608.369 522.23 602.528 532.335 602.227C543.396 601.858 555.042 608.21 566.966 620.981C590.925 649.834 620.173 673.968 653.941 692.765L653.959 684.938C654.061 644.571 654.145 609.702 638.259 571.17C635.011 563.318 630.575 554.737 625.861 545.661C610.003 515.066 592.02 480.389 607.897 451.277L608.082 451.059C619.654 440.844 631.884 430.989 644.439 421.754C653.263 408.522 658.135 393.933 658.924 378.388C663.062 365.482 669.975 353.415 676.675 341.742C686.993 323.716 697.674 305.071 697.832 284.07C698.119 243.829 668.416 212.413 639.688 182.035C617.037 158.085 593.616 133.313 584.531 104.126C571.596 62.5189 595.388 22.3952 618.41 -16.4043C633.35 -41.6031 648.8 -67.6399 653.634 -93.5342C643.01 -87.5089 631.68 -78.5758 619.728 -69.1483C595.073 -49.6898 567.996 -28.3375 540.77 -28.3375C530.897 -28.3291 521.005 -31.1448 511.188 -37.874C498.531 -46.5557 489.391 -55.5978 481.336 -63.5672C464.021 -80.7043 450.343 -94.2297 413.041 -94.3889C370.142 -94.5649 326.511 -94.4979 284.327 -94.4225C262.15 -94.3889 239.963 -94.347 217.785 -94.347C175.221 -94.347 132.657 -94.3303 90.0929 -94.3135C-11.0144 -94.2716 -115.546 -94.2381 -218.388 -94.3638ZM655.75 695.689L654.377 694.927C619.821 675.912 589.941 651.376 565.546 621.995C554.021 609.668 542.812 603.593 532.4 603.861C522.88 604.146 513.582 609.769 504.766 620.571C495.014 629.856 488.268 641.571 481.745 652.901C467.482 677.672 453.999 701.078 412.874 692.153C378.958 684.804 351.185 664.516 324.33 644.89C293.866 622.641 265.091 601.615 227.965 597.567C212.867 595.917 197.223 597.735 182.097 599.495C164.346 601.565 145.991 603.702 128.166 600.324C101.98 595.355 81.2126 579.86 61.1229 564.885C44.6893 552.625 27.6989 539.946 7.91544 533.251C-40.6246 516.801 -70.8659 553.346 -97.5439 585.592L-100.931 589.673C-107.408 597.475 -113.523 605.285 -119.443 612.836C-146.019 646.783 -171.129 678.837 -218.973 695.01L-220.346 695.48L-220.188 694.156C-218.527 680.153 -215.15 666.342 -211.883 652.985C-205.434 626.629 -199.347 601.741 -205.017 574.925C-207.856 561.517 -211.457 548.821 -214.936 536.536C-222.221 510.851 -229.097 486.582 -228.837 457.923C-228.447 415.327 -231.333 381.119 -246.857 342.244C-249.39 335.918 -252.146 329.859 -254.8 324.01C-262.632 306.805 -270.018 290.556 -270.538 270.218C-271.336 239.497 -258.132 211.818 -245.354 185.043C-235.759 164.923 -225.83 144.115 -221.849 122.093C-213.285 74.7202 -215.707 22.8478 -218.063 -27.3151C-219.158 -50.9049 -220.207 -73.1875 -220.198 -95.1851V-95.9979H-219.288C-116.167 -95.8806 -11.3113 -95.9141 90.0929 -95.956C132.657 -95.9644 175.221 -95.9812 217.785 -95.9895C239.963 -95.9895 262.141 -96.0231 284.327 -96.065C326.511 -96.132 370.142 -96.199 413.05 -96.0231C451.141 -95.8638 465.06 -82.1038 482.682 -64.6733C490.68 -56.7542 499.765 -47.7708 512.292 -39.1813C547.98 -14.6948 585.459 -44.2847 618.531 -70.3801C631.178 -80.3524 643.13 -89.7799 654.377 -95.8638L656.028 -96.7605L655.741 -95.0426C651.24 -68.2935 635.363 -41.5193 620.006 -15.6334C597.161 22.8897 573.535 62.7116 586.285 103.682C595.249 132.517 618.54 157.155 641.07 180.971C670.012 211.583 699.938 243.226 699.641 284.079C699.493 305.481 688.71 324.294 678.28 342.496C671.627 354.094 664.751 366.094 660.696 378.656C659.926 394.326 654.943 409.218 645.905 422.726L645.701 422.936C633.192 432.137 620.999 441.959 609.456 452.132C594.08 480.507 611.84 514.748 627.504 544.966C632.227 554.075 636.69 562.673 639.957 570.6C655.963 609.408 655.871 644.412 655.769 684.938L655.75 695.689Z" fill="url(#paint54_linear_103_19)"/>
</g>
<path d="M311.984 67.9438L292.992 100.839L313.227 112.522L332.219 79.6267L351.212 112.522L371.447 100.839L352.455 67.9438H390.439V44.5782H352.455L371.447 11.6828L351.212 0L332.219 32.8953L313.227 0L292.992 11.6828L311.984 44.5782H274V67.9438H311.984Z" fill="#AEDA00"/>
<defs>
<linearGradient id="paint0_linear_103_19" x1="22.6443" y1="166.302" x2="-60.277" y2="166.302" gradientUnits="userSpaceOnUse">
<stop stop-color="#003DFF"/>
<stop offset="1" stop-color="#F102CB"/>
</linearGradient>
<linearGradient id="paint1_linear_103_19" x1="45.4851" y1="167.589" x2="-36.5871" y2="167.589" gradientUnits="userSpaceOnUse">
<stop stop-color="#003DFF"/>
<stop offset="1" stop-color="#F102CB"/>
</linearGradient>
<linearGradient id="paint2_linear_103_19" x1="67.9043" y1="172.873" x2="-11.4955" y2="172.873" gradientUnits="userSpaceOnUse">
<stop stop-color="#003DFF"/>
<stop offset="1" stop-color="#F102CB"/>
</linearGradient>
<linearGradient id="paint3_linear_103_19" x1="88.1729" y1="180.322" x2="11.2753" y2="180.322" gradientUnits="userSpaceOnUse">
<stop stop-color="#003DFF"/>
<stop offset="1" stop-color="#F102CB"/>
</linearGradient>
<linearGradient id="paint4_linear_103_19" x1="105.273" y1="188.086" x2="31.664" y2="188.086" gradientUnits="userSpaceOnUse">
<stop stop-color="#003DFF"/>
<stop offset="1" stop-color="#F102CB"/>
</linearGradient>
<linearGradient id="paint5_linear_103_19" x1="132.645" y1="194.296" x2="48.3773" y2="194.296" gradientUnits="userSpaceOnUse">
<stop stop-color="#003DFF"/>
<stop offset="1" stop-color="#F102CB"/>
</linearGradient>
<linearGradient id="paint6_linear_103_19" x1="157.618" y1="197.09" x2="67.3358" y2="197.09" gradientUnits="userSpaceOnUse">
<stop stop-color="#003DFF"/>
<stop offset="1" stop-color="#F102CB"/>
</linearGradient>
<linearGradient id="paint7_linear_103_19" x1="188.28" y1="197.046" x2="91.7963" y2="197.046" gradientUnits="userSpaceOnUse">
<stop stop-color="#003DFF"/>
<stop offset="1" stop-color="#F102CB"/>
</linearGradient>
<linearGradient id="paint8_linear_103_19" x1="228.388" y1="196.221" x2="119.621" y2="196.221" gradientUnits="userSpaceOnUse">
<stop stop-color="#003DFF"/>
<stop offset="1" stop-color="#F102CB"/>
</linearGradient>
<linearGradient id="paint9_linear_103_19" x1="266.056" y1="195.43" x2="146.889" y2="195.43" gradientUnits="userSpaceOnUse">
<stop stop-color="#003DFF"/>
<stop offset="1" stop-color="#F102CB"/>
</linearGradient>
<linearGradient id="paint10_linear_103_19" x1="291.646" y1="195.759" x2="175.104" y2="195.759" gradientUnits="userSpaceOnUse">
<stop stop-color="#003DFF"/>
<stop offset="1" stop-color="#F102CB"/>
</linearGradient>
<linearGradient id="paint11_linear_103_19" x1="311.641" y1="198.787" x2="222.219" y2="198.787" gradientUnits="userSpaceOnUse">
<stop stop-color="#003DFF"/>
<stop offset="1" stop-color="#F102CB"/>
</linearGradient>
<linearGradient id="paint12_linear_103_19" x1="331.465" y1="203.863" x2="256.271" y2="203.863" gradientUnits="userSpaceOnUse">
<stop stop-color="#003DFF"/>
<stop offset="1" stop-color="#F102CB"/>
</linearGradient>
<linearGradient id="paint13_linear_103_19" x1="359.487" y1="210.079" x2="268.473" y2="210.079" gradientUnits="userSpaceOnUse">
<stop stop-color="#003DFF"/>
<stop offset="1" stop-color="#F102CB"/>
</linearGradient>
<linearGradient id="paint14_linear_103_19" x1="402.569" y1="216.538" x2="279.431" y2="216.538" gradientUnits="userSpaceOnUse">
<stop stop-color="#003DFF"/>
<stop offset="1" stop-color="#F102CB"/>
</linearGradient>
<linearGradient id="paint15_linear_103_19" x1="428.214" y1="222.604" x2="292.237" y2="222.604" gradientUnits="userSpaceOnUse">
<stop stop-color="#003DFF"/>
<stop offset="1" stop-color="#F102CB"/>
</linearGradient>
<linearGradient id="paint16_linear_103_19" x1="447.469" y1="228.248" x2="304.961" y2="228.248" gradientUnits="userSpaceOnUse">
<stop stop-color="#003DFF"/>
<stop offset="1" stop-color="#F102CB"/>
</linearGradient>
<linearGradient id="paint17_linear_103_19" x1="470.455" y1="232.835" x2="319.791" y2="232.835" gradientUnits="userSpaceOnUse">
<stop stop-color="#003DFF"/>
<stop offset="1" stop-color="#F102CB"/>
</linearGradient>
<linearGradient id="paint18_linear_103_19" x1="492.563" y1="235.758" x2="337.448" y2="235.758" gradientUnits="userSpaceOnUse">
<stop stop-color="#003DFF"/>
<stop offset="1" stop-color="#F102CB"/>
</linearGradient>
<linearGradient id="paint19_linear_103_19" x1="516.106" y1="236.497" x2="359.53" y2="236.497" gradientUnits="userSpaceOnUse">
<stop stop-color="#003DFF"/>
<stop offset="1" stop-color="#F102CB"/>
</linearGradient>
<linearGradient id="paint20_linear_103_19" x1="535.9" y1="236.776" x2="387.764" y2="236.776" gradientUnits="userSpaceOnUse">
<stop stop-color="#003DFF"/>
<stop offset="1" stop-color="#F102CB"/>
</linearGradient>
<linearGradient id="paint21_linear_103_19" x1="552.407" y1="237.281" x2="420.381" y2="237.281" gradientUnits="userSpaceOnUse">
<stop stop-color="#003DFF"/>
<stop offset="1" stop-color="#F102CB"/>
</linearGradient>
<linearGradient id="paint22_linear_103_19" x1="675.935" y1="567.692" x2="-236.01" y2="567.692" gradientUnits="userSpaceOnUse">
<stop stop-color="#003DFF"/>
<stop offset="1" stop-color="#F102CB"/>
</linearGradient>
<linearGradient id="paint23_linear_103_19" x1="675.859" y1="532.288" x2="-230.638" y2="532.288" gradientUnits="userSpaceOnUse">
<stop stop-color="#003DFF"/>
<stop offset="1" stop-color="#F102CB"/>
</linearGradient>
<linearGradient id="paint24_linear_103_19" x1="675.7" y1="502.677" x2="-222.934" y2="502.677" gradientUnits="userSpaceOnUse">
<stop stop-color="#003DFF"/>
<stop offset="1" stop-color="#F102CB"/>
</linearGradient>
<linearGradient id="paint25_linear_103_19" x1="671.491" y1="482.203" x2="-218.68" y2="482.203" gradientUnits="userSpaceOnUse">
<stop stop-color="#003DFF"/>
<stop offset="1" stop-color="#F102CB"/>
</linearGradient>
<linearGradient id="paint26_linear_103_19" x1="660.846" y1="463.338" x2="-221.85" y2="463.338" gradientUnits="userSpaceOnUse">
<stop stop-color="#003DFF"/>
<stop offset="1" stop-color="#F102CB"/>
</linearGradient>
<linearGradient id="paint27_linear_103_19" x1="647.176" y1="444.566" x2="-229.277" y2="444.566" gradientUnits="userSpaceOnUse">
<stop stop-color="#003DFF"/>
<stop offset="1" stop-color="#F102CB"/>
</linearGradient>
<linearGradient id="paint28_linear_103_19" x1="633.902" y1="425.471" x2="-237.858" y2="425.471" gradientUnits="userSpaceOnUse">
<stop stop-color="#003DFF"/>
<stop offset="1" stop-color="#F102CB"/>
</linearGradient>
<linearGradient id="paint29_linear_103_19" x1="624.58" y1="407.487" x2="-244.475" y2="407.487" gradientUnits="userSpaceOnUse">
<stop stop-color="#003DFF"/>
<stop offset="1" stop-color="#F102CB"/>
</linearGradient>
<linearGradient id="paint30_linear_103_19" x1="622.742" y1="385.769" x2="-246.246" y2="385.769" gradientUnits="userSpaceOnUse">
<stop stop-color="#003DFF"/>
<stop offset="1" stop-color="#F102CB"/>
</linearGradient>
<linearGradient id="paint31_linear_103_19" x1="633.529" y1="354.148" x2="-245.939" y2="354.148" gradientUnits="userSpaceOnUse">
<stop stop-color="#003DFF"/>
<stop offset="1" stop-color="#F102CB"/>
</linearGradient>
<linearGradient id="paint32_linear_103_19" x1="651.512" y1="321.569" x2="-246.453" y2="321.57" gradientUnits="userSpaceOnUse">
<stop stop-color="#003DFF"/>
<stop offset="1" stop-color="#F102CB"/>
</linearGradient>
<linearGradient id="paint33_linear_103_19" x1="668.488" y1="292.252" x2="-249.371" y2="292.252" gradientUnits="userSpaceOnUse">
<stop stop-color="#003DFF"/>
<stop offset="1" stop-color="#F102CB"/>
</linearGradient>
<linearGradient id="paint34_linear_103_19" x1="676.213" y1="267.577" x2="-256.256" y2="267.577" gradientUnits="userSpaceOnUse">
<stop stop-color="#003DFF"/>
<stop offset="1" stop-color="#F102CB"/>
</linearGradient>
<linearGradient id="paint35_linear_103_19" x1="682.332" y1="247.794" x2="-266.328" y2="247.794" gradientUnits="userSpaceOnUse">
<stop stop-color="#003DFF"/>
<stop offset="1" stop-color="#F102CB"/>
</linearGradient>
<linearGradient id="paint36_linear_103_19" x1="695.954" y1="228.26" x2="-276.565" y2="228.26" gradientUnits="userSpaceOnUse">
<stop stop-color="#003DFF"/>
<stop offset="1" stop-color="#F102CB"/>
</linearGradient>
<linearGradient id="paint37_linear_103_19" x1="711.02" y1="208.849" x2="-285.174" y2="208.849" gradientUnits="userSpaceOnUse">
<stop stop-color="#003DFF"/>
<stop offset="1" stop-color="#F102CB"/>
</linearGradient>
<linearGradient id="paint38_linear_103_19" x1="721.478" y1="187.714" x2="-290.344" y2="187.714" gradientUnits="userSpaceOnUse">
<stop stop-color="#003DFF"/>
<stop offset="1" stop-color="#F102CB"/>
</linearGradient>
<linearGradient id="paint39_linear_103_19" x1="721.911" y1="165.902" x2="-290.59" y2="165.902" gradientUnits="userSpaceOnUse">
<stop stop-color="#003DFF"/>
<stop offset="1" stop-color="#F102CB"/>
</linearGradient>
<linearGradient id="paint40_linear_103_19" x1="713.508" y1="146.969" x2="-286.854" y2="146.969" gradientUnits="userSpaceOnUse">
<stop stop-color="#003DFF"/>
<stop offset="1" stop-color="#F102CB"/>
</linearGradient>
<linearGradient id="paint41_linear_103_19" x1="698.813" y1="130.409" x2="-280.318" y2="130.409" gradientUnits="userSpaceOnUse">
<stop stop-color="#003DFF"/>
<stop offset="1" stop-color="#F102CB"/>
</linearGradient>
<linearGradient id="paint42_linear_103_19" x1="680.021" y1="114.862" x2="-271.944" y2="114.862" gradientUnits="userSpaceOnUse">
<stop stop-color="#003DFF"/>
<stop offset="1" stop-color="#F102CB"/>
</linearGradient>
<linearGradient id="paint43_linear_103_19" x1="659.292" y1="102.419" x2="-262.706" y2="102.419" gradientUnits="userSpaceOnUse">
<stop stop-color="#003DFF"/>
<stop offset="1" stop-color="#F102CB"/>
</linearGradient>
<linearGradient id="paint44_linear_103_19" x1="638.965" y1="90.6755" x2="-253.59" y2="90.6756" gradientUnits="userSpaceOnUse">
<stop stop-color="#003DFF"/>
<stop offset="1" stop-color="#F102CB"/>
</linearGradient>
<linearGradient id="paint45_linear_103_19" x1="620.998" y1="77.6628" x2="-245.556" y2="77.6629" gradientUnits="userSpaceOnUse">
<stop stop-color="#003DFF"/>
<stop offset="1" stop-color="#F102CB"/>
</linearGradient>
<linearGradient id="paint46_linear_103_19" x1="607.635" y1="61.5573" x2="-239.577" y2="61.5574" gradientUnits="userSpaceOnUse">
<stop stop-color="#003DFF"/>
<stop offset="1" stop-color="#F102CB"/>
</linearGradient>
<linearGradient id="paint47_linear_103_19" x1="600.988" y1="42.4302" x2="-236.636" y2="42.4303" gradientUnits="userSpaceOnUse">
<stop stop-color="#003DFF"/>
<stop offset="1" stop-color="#F102CB"/>
</linearGradient>
<linearGradient id="paint48_linear_103_19" x1="602.068" y1="21.4784" x2="-236.526" y2="21.4785" gradientUnits="userSpaceOnUse">
<stop stop-color="#003DFF"/>
<stop offset="1" stop-color="#F102CB"/>
</linearGradient>
<linearGradient id="paint49_linear_103_19" x1="608.213" y1="4.32593" x2="-236.644" y2="4.32606" gradientUnits="userSpaceOnUse">
<stop stop-color="#003DFF"/>
<stop offset="1" stop-color="#F102CB"/>
</linearGradient>
<linearGradient id="paint50_linear_103_19" x1="617.938" y1="-9.58258" x2="-236.807" y2="-9.58242" gradientUnits="userSpaceOnUse">
<stop stop-color="#003DFF"/>
<stop offset="1" stop-color="#F102CB"/>
</linearGradient>
<linearGradient id="paint51_linear_103_19" x1="629.981" y1="-18.279" x2="-237.019" y2="-18.2788" gradientUnits="userSpaceOnUse">
<stop stop-color="#003DFF"/>
<stop offset="1" stop-color="#F102CB"/>
</linearGradient>
<linearGradient id="paint52_linear_103_19" x1="642.784" y1="-23.449" x2="-237.237" y2="-23.4488" gradientUnits="userSpaceOnUse">
<stop stop-color="#003DFF"/>
<stop offset="1" stop-color="#F102CB"/>
</linearGradient>
<linearGradient id="paint53_linear_103_19" x1="655.102" y1="-28.9926" x2="-237.444" y2="-28.9924" gradientUnits="userSpaceOnUse">
<stop stop-color="#003DFF"/>
<stop offset="1" stop-color="#F102CB"/>
</linearGradient>
<linearGradient id="paint54_linear_103_19" x1="722.523" y1="236.243" x2="-291.139" y2="236.243" gradientUnits="userSpaceOnUse">
<stop stop-color="#003DFF"/>
<stop offset="1" stop-color="#F102CB"/>
</linearGradient>
</defs>
</svg>
