<svg width="726" height="845" viewBox="0 0 726 845" fill="none" xmlns="http://www.w3.org/2000/svg">
<g filter="url(#filter0_f_96_6)">
<path fill-rule="evenodd" clip-rule="evenodd" d="M381.604 682.421C444.844 682.905 513.892 672.244 563.461 679.331C613.295 686.456 599.309 700.768 588.999 712.074C580.495 721.401 546.699 728.463 512.171 735.583C473.704 743.514 438.981 752.799 381.604 754.838C313.815 757.246 232.565 756.468 186.844 747.14C142.056 738.004 172.54 724.26 171.983 712.074C171.417 699.701 129.57 684.071 183.612 676.426C238.318 668.687 312.094 681.89 381.604 682.421Z" fill="#FFAF65" fill-opacity="0.51"/>
</g>
<mask id="mask0_96_6" style="mask-type:alpha" maskUnits="userSpaceOnUse" x="0" y="0" width="704" height="704">
<circle cx="352" cy="352" r="352" fill="#C4C4C4"/>
</mask>
<g mask="url(#mask0_96_6)">
<path d="M-32.4506 698.525C-36.6804 633.333 -41.6269 569.457 -55.3619 504.647L-55.8201 502.482C-63.6686 465.504 -69.3436 438.786 -63.7744 399.441C-60.978 379.663 -55.2326 358.484 -49.6869 337.995C-41.5094 307.808 -33.0499 276.591 -33.0381 247.443C-33.0381 231.941 -37.4911 216.959 -41.7914 202.465C-46.0799 188.013 -50.5211 173.073 -50.6621 157.433C-50.9559 126.704 -36.5394 103.477 -22.5929 81.004C-11.6308 63.3265 -0.292707 45.0549 4.10155 23.0377C11.1159 -12.1367 2.40964 -47.725 -6.01463 -82.1461C-11.3253 -103.856 -16.824 -126.297 -18.2809 -148.357L-15.9781 -148.484C-14.5447 -126.584 -9.06946 -104.216 -3.77051 -82.5917C4.70076 -47.969 13.4658 -12.1792 6.35742 23.4091C1.90442 45.7658 -9.53944 64.1966 -20.5956 82.012C-35.0237 105.271 -48.653 127.245 -48.371 157.412C-48.2183 172.786 -43.824 187.599 -39.5707 201.923C-35.2352 216.545 -30.747 231.665 -30.747 247.443C-30.7587 276.846 -39.2418 308.179 -47.4545 338.483C-53.247 359.853 -58.7104 380.035 -61.495 399.707C-67.0172 438.722 -61.3775 465.302 -53.5642 502.089L-53.106 504.265C-39.3358 569.181 -34.3893 633.142 -30.1478 698.398L-32.4506 698.525Z" fill="url(#paint0_linear_96_6)"/>
<path d="M-5.16877 670.142C-5.69749 664.253 -6.21446 658.364 -6.73144 652.475C-11.6544 596.408 -16.7536 538.431 -31.4168 482.396C-40.4873 447.752 -44.9873 420.249 -41.204 382.178C-38.6779 356.659 -29.7366 330.175 -21.1009 304.55C-10.0565 271.837 1.35211 238 -0.386793 205.786C-1.04476 193.477 -4.53431 181.551 -7.91812 170.017C-11.8306 156.637 -15.8842 142.811 -15.6727 128.115C-15.2615 98.8405 -1.9847 78.9136 12.0793 57.809C21.6667 43.4103 31.5831 28.5128 37.1523 10.2624C47.6092 -23.9677 36.8234 -56.7865 26.3899 -88.5125C20.0101 -107.93 13.4187 -128.016 11.6445 -148.357L13.9356 -148.516C15.6863 -128.398 22.2542 -108.418 28.5988 -89.1067C39.1145 -57.0942 49.9944 -23.9889 39.373 10.8142C33.7098 29.3405 23.7111 44.3546 14.0414 58.8807C0.153678 79.7307 -12.9703 99.4347 -13.3816 128.147C-13.5813 142.546 -9.57477 156.244 -5.69749 169.487C-2.29018 181.126 1.23462 193.159 1.91608 205.68C3.66673 238.265 -7.80062 272.272 -18.892 305.155C-27.5043 330.674 -36.4103 357.062 -38.9246 382.358C-42.6727 420.154 -38.1962 447.487 -29.1727 481.918C-14.4742 538.113 -9.37504 596.164 -4.44031 652.316C-3.92334 658.194 -3.40637 664.083 -2.87765 669.972L-5.16877 670.142Z" fill="url(#paint1_linear_96_6)"/>
<path d="M22.8299 649.461L21.326 634.797C15.6393 579.579 9.7529 522.483 -5.55648 467.414L-6.9194 462.533C-14.6857 434.68 -22.029 408.376 -19.9142 378.549C-17.5525 345.093 -5.95595 312.794 5.25291 281.557C14.8286 254.881 24.7333 227.293 28.5871 199.504C31.1719 180.882 27.9409 164.552 24.5101 147.257C21.9722 134.45 19.3404 121.218 19.3286 107C19.2816 78.1602 32.7816 58.2227 45.8234 38.943C55.9983 23.9077 66.5139 8.36301 71.0022 -11.5957C78.1105 -43.2792 68.2411 -67.5247 57.7842 -93.2026C50.8286 -110.296 43.638 -127.963 41.5583 -148.336L43.8377 -148.527C45.9056 -128.419 53.0374 -110.88 59.9461 -93.9241C70.5087 -67.9597 80.4956 -43.4384 73.2463 -11.1819C68.6876 9.13758 58.0662 24.8414 47.7855 40.0253C34.309 59.931 21.5845 78.7331 21.6197 107C21.6315 121.027 24.2398 134.174 26.7659 146.896C30.0792 163.576 33.4983 180.819 30.8665 199.769C26.9774 227.75 17.0492 255.422 7.43829 282.193C-3.72358 313.314 -15.2732 345.486 -17.623 378.676C-19.7144 408.185 -12.4181 434.329 -4.68703 462.023L-3.3241 466.904C12.0205 522.133 17.9069 579.314 23.6054 634.606L25.121 649.26L22.8299 649.461Z" fill="url(#paint2_linear_96_6)"/>
<path d="M51.8627 639.668C44.9424 574.263 37.7635 515.236 19.975 455.254C10.8693 424.536 5.21785 398.147 7.26224 369.212C9.78834 333.602 22.4776 299.818 34.7439 267.137C44.3549 241.565 54.2831 215.113 59.0533 188.31C62.5076 168.818 59.4058 152.35 56.1277 134.917C53.8601 122.927 51.522 110.523 51.4162 96.8458C51.1813 68.0802 64.5755 48.9809 77.535 30.5183C87.5689 16.2257 97.9436 1.43439 102.467 -18.0787C109.951 -50.367 99.7178 -72.0447 88.8731 -95.0062C81.3535 -110.954 73.5637 -127.454 71.4606 -148.304L73.7517 -148.484C75.8079 -127.963 83.5272 -111.623 90.988 -95.8126C101.974 -72.554 112.348 -50.5792 104.711 -17.6543C100.105 2.23019 89.6251 17.1701 79.4737 31.6324C66.1029 50.6786 53.4841 68.6744 53.7074 96.8245C53.8249 110.343 56.1395 122.651 58.3836 134.567C61.7087 152.181 64.8457 168.818 61.3209 188.639C56.5272 215.611 46.5638 242.149 36.9176 267.805C24.6982 300.359 12.056 334.016 9.55336 369.35C7.53247 397.999 13.1487 424.196 22.1956 454.723C40.0311 514.854 47.2217 573.966 54.1538 639.466L51.8627 639.668Z" fill="url(#paint3_linear_96_6)"/>
<path d="M82.7045 643.604C76.3951 583.113 69.2045 523.735 50.7228 462.543C42.3103 434.658 34.8612 404.237 37.2816 370.75C40.0074 333.167 52.3559 297.473 64.305 262.967C72.3886 239.591 80.7541 215.431 85.9708 191.026C90.4003 170.325 88.5087 152.35 86.4995 133.325C85.3246 122.152 84.1144 110.586 84.2201 98.2144C84.4551 70.4462 96.6979 51.3682 108.53 32.9162C117.729 18.5705 127.246 3.74737 131.535 -15.3837C138.725 -47.4705 128.75 -70.2304 118.176 -94.3273C110.985 -110.731 103.536 -127.698 101.386 -148.325L103.677 -148.527C105.804 -128.175 113.182 -111.357 120.314 -95.0807C131.006 -70.6973 141.11 -47.6615 133.791 -14.9699C129.42 4.49011 119.809 19.4724 110.515 33.956C98.2958 53.0128 86.7463 71.0086 86.5113 98.225C86.4055 110.502 87.6157 122.004 88.7906 133.124C90.8115 152.308 92.7149 170.42 88.2267 191.419C82.9865 215.94 74.5974 240.154 66.4904 263.582C54.5883 297.982 42.275 333.549 39.5727 370.888C37.1758 404.068 44.5779 434.287 52.9434 461.991C71.4604 523.353 78.6745 582.826 84.9956 643.413L82.7045 643.604Z" fill="url(#paint4_linear_96_6)"/>
<path d="M116.084 659.541C112.101 620.452 102.584 580.481 93.3729 541.837C79.3912 483.139 64.9277 422.435 69.322 362.888C72.6823 317.336 84.3377 272.76 95.617 229.66C106.097 189.604 116.942 148.191 120.996 106.279C123.357 81.8845 132.099 64.1647 141.357 45.4049C147.772 32.4068 154.399 18.9737 158.77 3.02583C168.146 -31.1618 157.853 -59.6516 146.95 -89.8178C140.241 -108.397 133.297 -127.613 131.3 -148.357L133.591 -148.537C135.565 -128.027 142.462 -108.928 149.135 -90.4544C160.144 -60.0017 170.531 -31.2361 161.002 3.52453C156.584 19.6528 149.911 33.1708 143.46 46.2538C134.284 64.8544 125.613 82.4151 123.287 106.448C119.21 148.52 108.353 190.008 97.8612 230.137C86.5935 273.164 74.9617 317.644 71.6131 363.026C67.2424 422.286 81.6706 482.841 95.617 541.402C104.84 580.11 114.381 620.133 118.364 659.35L116.084 659.541Z" fill="url(#paint5_linear_96_6)"/>
<path d="M150.827 681.972C146.409 637.885 135.541 593.946 125.026 551.461C110.95 494.556 96.3807 435.709 97.3324 376.151C98.1431 325.474 102.49 259.932 129.067 202.348C132.451 195.016 135.894 188.161 139.219 181.551C149.041 162.006 158.323 143.554 162.377 119.139C165.396 100.952 170.096 83.5398 174.643 66.7006C178.755 51.5273 182.997 35.8341 185.946 19.7058C192.502 -16.031 183.385 -50.0595 174.561 -82.9633C168.886 -104.121 163.023 -125.979 161.214 -148.368L163.505 -148.527C165.302 -126.308 171.142 -104.524 176.793 -83.462C185.664 -50.346 194.852 -16.1159 188.214 20.0454C185.241 36.2479 180.988 51.9836 176.875 67.1993C172.34 83.9854 167.652 101.355 164.644 119.446C160.556 144.148 151.203 162.727 141.31 182.4C137.997 189.01 134.554 195.843 131.182 203.144C104.758 260.399 100.446 325.697 99.6353 376.183C98.6836 435.496 113.218 494.216 127.27 551.004C137.797 593.564 148.689 637.567 153.118 681.792L150.827 681.972Z" fill="url(#paint6_linear_96_6)"/>
<path d="M185.711 705.306C180.929 654.99 168.416 605.607 156.326 557.849C141.898 500.837 126.964 441.874 125.143 381.096C124.944 374.39 124.615 367.365 124.274 360.118C122.359 319.193 120.185 272.803 138.009 237.151C145.869 221.437 156.761 208.492 167.288 195.982C182.621 177.763 197.108 160.563 202.231 135.967C216.248 68.7274 208.399 5.76356 200.092 -60.9034C196.544 -89.3719 192.866 -118.817 191.128 -148.367L193.419 -148.484C195.158 -118.986 198.823 -89.5735 202.372 -61.1369C210.702 5.68928 218.574 68.8017 204.487 136.349C199.258 161.433 184.63 178.824 169.121 197.234C158.664 209.659 147.855 222.498 140.1 238.01C122.5 273.217 124.662 319.341 126.565 360.033C126.906 367.291 127.235 374.326 127.434 381.043C129.256 441.619 144.154 500.466 158.57 557.382C170.672 605.215 183.197 654.671 188.002 705.136L185.711 705.306Z" fill="url(#paint7_linear_96_6)"/>
<path d="M219.49 723.959C214.579 668.529 200.409 613.597 186.698 560.48C173.915 510.949 160.708 459.731 154.904 407.941C153.718 397.372 152.049 386.762 150.439 376.49C144.06 335.873 138.044 297.515 159.087 259.03C168.392 242.032 183.208 228.588 197.554 215.59C217.422 197.562 236.198 180.543 242.014 154.663C246.443 134.917 243.506 109.642 240.663 85.195C239.194 72.5895 237.819 60.6843 237.526 50.0948C236.562 15.6313 232.802 -19.0869 229.16 -52.6591C225.776 -83.9289 222.263 -116.27 221.029 -148.368L223.332 -148.442C224.554 -116.408 228.067 -84.0986 231.451 -52.8501C235.093 -19.2461 238.853 15.504 239.817 50.0418C240.11 60.5464 241.485 72.4197 242.954 84.9828C245.809 109.578 248.77 135.023 244.258 155.077C238.313 181.572 218.421 199.61 199.176 217.054C184.971 229.936 170.284 243.252 161.155 259.943C140.417 297.855 146.386 335.915 152.707 376.204C154.329 386.486 155.997 397.118 157.184 407.739C162.976 459.392 176.171 510.546 188.93 560.013C202.665 613.204 216.847 668.21 221.781 723.789L219.49 723.959Z" fill="url(#paint8_linear_96_6)"/>
<path d="M250.943 732.32C245.656 670.619 229.783 608.175 214.438 547.779C203.84 506.111 192.902 463.031 185.535 420.599C183.432 408.503 180.553 397.107 177.769 386.093C168.933 351.141 161.308 320.965 180.941 284.008C191.01 265.046 208.305 250.87 225.024 237.172C247.066 219.091 267.898 202.008 274.031 174.77C278.425 155.215 273.443 133.049 268.614 111.616C265.524 97.8959 262.599 84.9403 261.964 72.5894C260.789 50.1266 259.438 27.2393 258.122 5.11601C255.15 -45.2105 252.071 -97.256 250.943 -148.357L253.234 -148.4C254.362 -97.3303 257.441 -45.306 260.425 5.00991C261.729 27.1332 263.08 50.0205 264.255 72.4939C264.89 84.675 267.792 97.567 270.858 111.202C275.734 132.837 280.775 155.215 276.287 175.184C270.001 203.09 247.924 221.192 226.564 238.7C210.009 252.282 192.89 266.309 183.009 284.899C163.716 321.209 171.271 351.067 180.013 385.637C182.797 396.683 185.688 408.11 187.802 420.27C195.158 462.628 206.096 505.686 216.671 547.312C232.039 607.782 247.936 670.311 253.234 732.161L250.943 732.32Z" fill="url(#paint9_linear_96_6)"/>
<path d="M283.63 732.129C278.872 686.036 266.735 644.294 253.893 600.1C250.744 589.277 247.489 578.083 244.364 566.846C237.514 542.282 233.836 517.528 230.288 493.579C227.386 474.066 224.39 453.895 219.702 434.032C217 422.573 213.604 412.291 210.314 402.359C200.504 372.713 192.044 347.109 211.372 311.733C222.134 292.04 241.427 278.501 260.073 265.396C283.9 248.674 306.4 232.875 312.804 205.34C318.056 182.728 309.161 160.17 300.549 138.344C294.627 123.34 288.518 107.838 287.131 92.5375C281.386 29.1068 281.222 -36.8599 281.057 -100.641C281.022 -116.62 280.975 -132.537 280.846 -148.336L283.148 -148.357C283.266 -132.547 283.313 -116.631 283.348 -100.641C283.524 -36.9023 283.689 29.0113 289.423 92.3677C290.785 107.392 296.848 122.778 302.711 137.654C311.429 159.746 320.441 182.59 315.048 205.775C308.48 234.042 284.582 250.817 261.483 267.041C243.036 279.997 223.955 293.387 213.428 312.646C194.5 347.29 202.454 371.333 212.511 401.765C215.825 411.739 219.232 422.063 221.946 433.597C226.658 453.545 229.665 473.758 232.568 493.303C236.104 517.188 239.782 541.9 246.584 566.337C249.71 577.563 252.964 588.757 256.113 599.58C268.99 643.848 281.139 685.675 285.921 731.927L283.63 732.129Z" fill="url(#paint10_linear_96_6)"/>
<path d="M319.136 729.615C308.715 650.162 287.801 568.152 267.569 488.847C264.138 475.435 260.742 462.108 257.417 448.888C254.268 436.377 249.78 425.724 245.821 416.323C235.646 392.216 227.609 373.17 247.677 340.276C259.791 320.434 282.173 308.763 303.827 297.483C330.369 283.658 355.442 270.585 362.95 243.74C370.352 217.277 354.22 189.976 338.617 163.566C327.408 144.573 316.81 126.641 314.178 108.878C305.484 50.1481 307.399 -12.9855 309.244 -74.0289C309.984 -98.6457 310.747 -124.09 310.759 -148.336H313.05C313.05 -124.058 312.275 -98.5926 311.535 -73.9758C309.69 -13.0067 307.787 50.042 316.458 108.602C319.031 125.993 329.535 143.766 340.649 162.59C356.452 189.35 372.796 217.012 365.182 244.25C357.439 271.944 330.768 285.844 304.967 299.287C283.595 310.418 261.494 321.941 249.698 341.274C230.135 373.318 237.996 391.972 247.959 415.591C251.954 425.045 256.477 435.773 259.661 448.431C262.986 461.652 266.382 474.969 269.801 488.381C290.045 567.738 310.982 649.801 321.416 729.371L319.136 729.615Z" fill="url(#paint11_linear_96_6)"/>
<path d="M353.668 727.259C344.174 662.99 327.69 606.636 311.288 555.302C305.942 538.569 303.862 521.379 301.853 504.763C300.02 489.611 298.129 473.939 293.746 458.914C290.21 446.776 285.287 437.024 280.94 428.409C270.071 406.837 262.211 391.25 283.536 359.184C296.977 338.992 321.874 329.199 345.96 319.723C374.394 308.518 401.264 297.95 409.947 271.678C419.464 242.902 397.07 210.741 375.404 179.641C360.189 157.804 345.819 137.177 342.471 118.194C332.12 59.6444 335.116 -4.40174 338.018 -66.3576C339.357 -94.8685 340.614 -121.809 340.673 -148.357L342.976 -148.346C342.917 -121.767 341.66 -94.8049 340.321 -66.2621C337.419 -4.42297 334.423 59.5277 344.738 117.865C348.016 136.423 362.268 156.881 377.343 178.537C399.279 210.03 421.967 242.594 412.156 272.272C403.156 299.467 374.546 310.725 346.877 321.622C323.131 330.971 298.564 340.626 285.51 360.256C264.796 391.388 272.445 406.551 283.031 427.549C287.413 436.239 292.372 446.086 295.967 458.384C300.396 473.557 302.3 489.303 304.133 504.53C306.142 521.072 308.21 538.166 313.497 554.739C329.923 606.138 346.43 662.587 355.947 726.983L353.668 727.259Z" fill="url(#paint12_linear_96_6)"/>
<path d="M383.887 728.267C367.426 623.21 347.958 532.117 326.01 457.503C322.931 447.041 319.042 438.117 315.6 430.244C305.495 407.102 298.199 390.38 319.536 358.548C332.777 338.822 356.899 329.061 380.221 319.617C407.562 308.561 433.387 298.109 442.175 272.962C452.538 243.273 428.84 211.558 405.917 180.882C389.574 159.003 374.123 138.333 370.681 118.682C360.858 62.7321 364.207 1.94343 367.45 -56.8504C369.118 -87.2607 370.857 -118.711 370.61 -148.357L372.913 -148.368C373.148 -118.668 371.421 -87.1864 369.741 -56.7443C366.51 1.94343 363.173 62.626 372.948 118.353C376.32 137.548 391.618 158.037 407.832 179.726C431.049 210.804 455.065 242.944 444.361 273.588C435.267 299.626 407.762 310.746 381.161 321.516C358.156 330.822 334.364 340.446 321.51 359.63C300.749 390.571 307.881 406.901 317.738 429.491C321.193 437.406 325.117 446.394 328.23 456.972C350.202 531.661 369.694 622.839 386.166 727.97L383.887 728.267Z" fill="url(#paint13_linear_96_6)"/>
<path d="M410.758 737.36C396.917 649.621 381.126 545.625 368.93 439.508C368.531 436.048 368.12 432.653 367.709 429.311C363.796 397.362 360.424 369.763 379.963 338.292C389.645 322.694 406.493 311.744 422.801 301.155C443.774 287.531 463.595 274.67 469.129 252.834C477.13 221.256 454.289 196.31 432.189 172.182C415.517 153.963 398.269 135.129 394.015 113.409C383.817 61.2893 389.245 4.00217 394.497 -51.4175C397.564 -83.7483 400.736 -117.183 400.548 -148.346H402.851C403.039 -117.098 399.855 -83.621 396.788 -51.2371C391.548 4.04461 386.131 61.1938 396.283 113.038C400.43 134.238 417.479 152.849 433.963 170.855C456.404 195.377 479.621 220.726 471.373 253.29C465.639 275.891 444.549 289.589 424.141 302.842C408.044 313.293 391.395 324.106 381.96 339.311C362.786 370.198 366.122 397.489 370 429.077C370.399 432.43 370.822 435.826 371.21 439.295C383.406 545.381 399.197 649.345 413.037 737.063L410.758 737.36Z" fill="url(#paint14_linear_96_6)"/>
<path d="M436.277 752.671L435.667 748.66C419.159 639.466 402.075 526.557 419.452 414.254C423.788 386.21 435.49 350.982 454.219 309.516C458.918 299.117 465.451 289.048 471.76 279.318C483.075 261.863 494.777 243.814 496.129 223.42C498.349 189.965 477.588 173.953 455.617 156.998C437.617 143.108 419.006 128.752 413.002 103.986C401.288 55.6654 410.429 0.256338 419.264 -53.3383C424.798 -86.8469 430.015 -118.488 430.462 -148.357L432.764 -148.336C432.306 -118.329 427.078 -86.6028 421.544 -53.0306C412.732 0.373056 403.614 55.5911 415.246 103.551C421.086 127.627 439.391 141.75 457.109 155.417C478.54 171.959 500.711 189.063 498.42 223.548C497.033 244.43 485.19 262.701 473.746 280.357C467.472 290.034 460.986 300.04 456.345 310.301C437.687 351.598 426.044 386.666 421.732 414.54C404.39 526.557 421.45 639.328 437.946 748.385L438.557 752.395L436.277 752.671Z" fill="url(#paint15_linear_96_6)"/>
<path d="M462.185 771.473C442.516 634.67 430.426 520.467 467.625 400.205C473.981 379.62 485.296 362.909 496.234 346.738C510.004 326.397 524.233 305.377 528.592 276.516C532.669 249.586 532.175 223.251 527.076 195.992C521.049 163.735 500.405 152.339 478.54 140.275C460.504 130.322 441.858 120.04 431.895 97.185C413.307 54.5088 428.546 -4.65647 443.292 -61.8693C451.457 -93.5529 459.165 -123.486 460.363 -148.41L462.655 -148.315C461.444 -123.21 453.713 -93.1815 445.524 -61.4025C430.861 -4.49731 415.704 54.3496 434.033 96.421C443.715 118.629 462.032 128.731 479.738 138.503C501.087 150.281 523.14 162.451 529.344 195.652C534.478 223.113 534.972 249.65 530.871 276.792C526.442 306.088 512.084 327.299 498.196 347.82C487.34 363.864 476.108 380.459 469.833 400.757C432.752 520.647 444.831 634.638 464.464 771.208L462.185 771.473Z" fill="url(#paint16_linear_96_6)"/>
<path d="M490.254 791.008C487.869 774.063 485.096 756.894 482.417 740.299C469.716 661.876 456.592 580.768 482.476 500.827C486.859 487.266 490.137 472.507 493.603 456.866C499.853 428.727 506.304 399.611 519.851 377.01C529.18 361.445 539.202 351.577 548.883 342.027C564.381 326.769 577.751 313.601 583.52 281.291C589.16 249.703 576.999 218.391 565.25 188.108L562.83 181.869C548.625 144.986 547.133 141.135 506.362 124.264C501.099 122.078 495.87 120.306 490.806 118.587C474.933 113.197 459.941 108.104 449.037 91.9647C423.765 54.6045 447.075 -11.1394 467.637 -69.1481C478.305 -99.2506 488.386 -127.687 490.254 -148.463L492.545 -148.293C490.665 -127.284 480.537 -98.7413 469.822 -68.522C449.413 -10.9378 426.267 54.3286 451 90.893C461.492 106.406 475.45 111.149 491.617 116.645C496.716 118.375 501.98 120.157 507.326 122.375C547.826 139.14 550.34 143.14 565.003 181.19L567.412 187.419C579.267 217.945 591.522 249.512 585.788 281.62C579.913 314.545 566.319 327.925 550.587 343.428C540.988 352.882 531.071 362.654 521.872 377.997C508.489 400.333 502.074 429.279 495.859 457.28C492.381 472.952 489.091 487.765 484.673 501.41C458.942 580.916 471.443 658.194 484.685 740.002C487.376 756.608 490.148 773.776 492.533 790.753L490.254 791.008Z" fill="url(#paint17_linear_96_6)"/>
<path d="M520.168 809.375C517.971 791.814 515.304 773.967 512.719 756.714C501.533 681.845 489.96 604.429 514.082 528.775C518.417 515.204 521.777 500.211 525.338 484.348C531.964 454.744 538.826 424.132 552.702 400.821C560.703 387.366 569.186 376.427 577.375 365.848C592.955 345.751 607.653 326.779 614.162 295.319C621.929 257.81 612.8 212.279 601.685 182.177C587.75 144.456 559.986 134.142 530.589 123.224C506.715 114.353 482.018 105.175 465.24 80.1656C438.921 40.9697 466.544 -18.238 490.912 -70.4745C504.412 -99.4098 517.172 -126.743 520.156 -148.527L522.435 -148.261C519.404 -126.202 506.597 -98.7414 493.027 -69.668C468.882 -17.8879 441.494 40.7999 467.202 79.0939C483.592 103.52 507.925 112.56 531.459 121.303C560.045 131.914 589.595 142.896 603.858 181.519C615.079 211.866 624.267 257.799 616.418 295.701C609.815 327.596 594.976 346.749 579.255 367.036C571.101 377.562 562.665 388.449 554.723 401.808C541.011 424.854 534.185 455.307 527.582 484.751C524.022 500.667 520.65 515.703 516.291 529.348C492.298 604.589 503.836 681.781 514.998 756.438C517.583 773.702 520.25 791.549 522.447 809.142L520.168 809.375Z" fill="url(#paint18_linear_96_6)"/>
<path d="M550.093 826.437C548.202 809.311 545.758 791.814 543.396 774.89C534.525 711.375 525.349 645.705 542.938 581.988C547.649 564.947 551.656 546.898 555.533 529.444C561.079 504.498 566.801 478.703 574.732 454.925C582.087 432.907 592.332 412.577 602.225 392.916C617.864 361.879 632.632 332.562 637.555 296.507C640.786 272.803 644.816 227.102 635.405 187.429C625.43 145.326 591.24 131.946 555.052 117.78C524.926 105.992 493.79 93.8003 478.129 63.581C457.062 22.9314 485.613 -24.5832 513.224 -70.5382C530.014 -98.4655 545.875 -124.865 550.058 -148.569L552.326 -148.24C548.072 -124.186 532.129 -97.6379 515.245 -69.5408C487.904 -24.0421 459.635 23.0057 480.208 62.7003C495.494 92.2087 526.23 104.241 555.968 115.871C591.099 129.622 627.427 143.851 637.649 186.994C647.131 226.965 643.089 272.93 639.835 296.762C634.865 333.125 619.344 363.959 604.317 393.775C594.447 413.373 584.237 433.64 576.941 455.529C569.033 479.202 563.311 504.954 557.789 529.857C553.9 547.333 549.894 565.403 545.17 582.497C527.687 645.822 536.828 711.3 545.676 774.636C548.037 791.57 550.493 809.078 552.373 826.225L550.093 826.437Z" fill="url(#paint19_linear_96_6)"/>
<path d="M580.019 840.305C578.491 824.028 576.341 807.348 574.25 791.209C567.565 739.44 560.656 685.909 572.617 634.033C579.655 603.517 585.506 572.894 591.157 543.29C593.413 531.502 595.681 519.66 598.031 507.734C604.939 472.687 617.946 436.292 630.529 401.107C654.615 333.74 679.512 264.091 666.565 194.888C658.034 149.305 620.084 133.251 579.913 116.263C546.71 102.225 512.366 87.7096 496.54 54.965C475.838 12.1508 506.868 -30.3662 536.864 -71.4827C556.356 -98.1898 574.767 -123.411 579.972 -148.601L582.228 -148.219C576.941 -122.626 558.412 -97.2242 538.79 -70.3473C509.123 -29.6871 478.446 12.3525 498.643 54.1374C514.129 86.1605 548.061 100.506 580.888 114.385C619.826 130.853 660.091 147.883 668.832 194.538C681.874 264.25 656.883 334.143 632.715 401.744C620.155 436.865 607.172 473.186 600.286 508.095C597.948 520.021 595.681 531.852 593.425 543.641C587.762 573.266 581.911 603.899 574.861 634.447C562.982 686.004 569.879 739.366 576.529 790.965C578.621 807.125 580.783 823.816 582.31 840.135L580.019 840.305Z" fill="url(#paint20_linear_96_6)"/>
<path d="M609.932 849.112C608.71 832.315 606.549 815.02 604.457 798.297C599.311 757.202 593.989 714.706 601.684 673.653L603.611 663.446C610.884 624.759 617.746 588.216 622.175 548.638C627.486 501.113 641.209 453.471 654.486 407.399C659.891 388.671 665.471 369.296 670.347 350.356C672.662 341.401 675.364 331.989 678.22 322.026C689.534 282.607 702.353 237.936 696.525 200.915C689.017 153.188 648.705 135.086 606.02 115.934C570.819 100.124 534.408 83.7836 518.628 49.2564C498.278 4.71274 530.765 -34.133 562.183 -71.7055C582.827 -96.3966 604.187 -121.937 609.897 -148.601L612.153 -148.209C606.337 -121.066 584.824 -95.3355 564.016 -70.464C532.986 -33.3478 500.899 5.02045 520.755 48.4712C536.205 82.2769 572.217 98.437 607.042 114.077C648.376 132.635 691.12 151.819 698.804 200.629C704.691 238.053 691.813 282.946 680.44 322.545C677.585 332.498 674.894 341.899 672.592 350.823C667.704 369.795 662.111 389.181 656.706 407.919C643.453 453.917 629.753 501.484 624.455 548.85C620.025 588.492 613.152 625.067 605.867 663.796L603.952 674.004C596.315 714.77 601.614 757.117 606.737 798.064C608.828 814.818 611.002 832.124 612.223 848.974L609.932 849.112Z" fill="url(#paint21_linear_96_6)"/>
<path d="M639.623 850.619C638.601 832.846 636.275 814.5 634.042 796.77C629.378 759.844 624.549 721.667 630.658 684.88C632.644 672.911 634.782 661.016 636.839 649.525C642.243 619.369 647.342 590.88 650.268 560.13C655.673 503.235 671.323 446.521 686.456 391.685C689.581 380.363 692.695 369.084 695.714 357.816C698.593 347.099 702.153 335.714 705.925 323.66C718.226 284.379 732.161 239.846 726.415 202.921C718.978 155.194 678.102 136.179 634.829 116.051C599.088 99.424 562.125 82.2347 546.498 47.3361C526.348 2.33617 559.023 -34.9923 590.617 -71.1005C611.953 -95.4838 634.03 -120.705 639.694 -148.081L641.95 -147.699C636.181 -119.825 613.927 -94.4015 592.414 -69.806C559.798 -32.5306 528.98 2.67571 548.625 46.5616C563.934 80.7492 600.51 97.7582 635.875 114.205C677.773 133.697 721.093 153.836 728.695 202.634C734.499 239.995 720.494 284.75 708.134 324.233C704.374 336.265 700.814 347.629 697.947 358.304C694.927 369.572 691.814 380.862 688.688 392.184C673.579 446.946 657.94 503.575 652.559 560.31C649.622 591.145 644.511 619.666 639.106 649.854C637.05 661.345 634.923 673.229 632.938 685.188C626.863 721.71 631.669 759.738 636.322 796.526C638.566 814.298 640.88 832.666 641.914 850.513L639.623 850.619Z" fill="url(#paint22_linear_96_6)"/>
<path d="M664.755 835.52C658.927 731.853 657.987 643.095 672.263 546.813C678.666 503.628 691.802 459.763 704.503 417.352C710.26 398.115 716.217 378.241 721.375 358.919C724.324 347.873 728.072 336.18 732.032 323.808C743.816 286.989 757.175 245.247 751.841 210.2C744.803 163.99 706.078 143.32 665.084 121.452C631.352 103.467 596.491 84.866 581.734 50.7208C562.865 7.04718 592.708 -28.7745 621.576 -63.4078C640.81 -86.4967 660.702 -110.371 666.377 -136.526L668.632 -136.134C662.863 -109.501 642.807 -85.4356 623.409 -62.1664C593.613 -26.4083 565.461 7.37611 583.873 49.9674C598.336 83.4442 632.856 101.854 666.247 119.669C705.913 140.827 746.918 162.706 754.121 209.913C759.525 245.406 746.096 287.36 734.241 324.381C730.281 336.732 726.545 348.404 723.608 359.396C718.438 378.75 712.481 398.645 706.724 417.893C694.034 460.241 680.934 504.031 674.542 547.078C660.279 643.211 661.23 731.864 667.046 835.413L664.755 835.52Z" fill="url(#paint23_linear_96_6)"/>
<path d="M685.716 807.189C684.705 787.103 683.272 766.699 681.885 746.963C677.139 679.458 672.228 609.65 683.836 540.946C690.744 500.02 709.026 457.312 726.709 416.015C753.556 353.306 781.32 288.475 772.872 224.758C767.009 180.575 732.56 156.945 696.079 131.925C666.682 111.764 636.286 90.9143 622.704 58.3713C605.386 16.8941 628.673 -14.312 653.323 -47.3537C668.996 -68.3628 685.211 -90.0936 690.274 -114.891L692.53 -114.519C687.384 -89.2977 671.041 -67.3867 655.226 -46.1865C630.917 -13.6117 607.959 17.1594 624.854 57.6392C638.201 89.6198 668.327 110.289 697.465 130.269C732.725 154.451 769.183 179.461 775.152 224.514C783.67 288.74 755.801 353.826 728.848 416.758C711.212 457.959 692.977 500.551 686.103 541.253C674.53 609.745 679.442 679.436 684.177 746.836C685.575 766.582 687.008 786.997 688.007 807.094L685.716 807.189Z" fill="url(#paint24_linear_96_6)"/>
<path d="M705.443 774.922C704.55 753.064 700.919 726.919 697.077 699.247C687.525 630.511 676.704 552.596 700.778 498.662C708.544 481.271 717.168 467.509 725.499 454.214C737.495 435.062 748.833 416.97 757.034 389.595C760.171 379.111 763.919 368.193 767.902 356.627C780.286 320.593 794.326 279.742 790.99 244.366C786.913 201.319 757.128 174.718 725.581 146.546C700.919 124.529 675.435 101.758 663.662 70.4887C649.034 31.6005 666.858 2.43175 685.716 -28.4454C697.488 -47.7038 709.649 -67.6095 713.373 -90.2421L715.641 -89.9344C711.87 -66.941 699.591 -46.8549 687.736 -27.4374C669.114 3.02594 651.537 31.8021 665.836 69.8203C677.432 100.634 702.729 123.224 727.202 145.071C757.645 172.267 789.133 200.374 793.269 244.186C796.653 279.965 782.542 321.028 770.087 357.243C766.128 368.787 762.38 379.684 759.255 390.136C750.983 417.766 739.574 435.964 727.496 455.233C719.201 468.475 710.624 482.173 702.905 499.447C679.054 552.872 689.84 630.5 699.356 698.992C703.199 726.707 706.841 752.905 707.734 774.848L705.443 774.922Z" fill="url(#paint25_linear_96_6)"/>
<path d="M726.862 748.024C725.264 695.416 722.491 633.153 713.961 570.274C713.233 564.915 712.269 559.366 711.341 553.997C707.405 531.343 703.351 507.925 714.255 486.683C719.295 472.125 730.21 461.291 746.636 454.607C768.56 433.353 780.286 407.569 781.496 377.987C784.433 367.631 788.099 357.084 791.624 346.887C800.765 320.551 810.212 293.313 809.342 266.574C808.038 226.158 782.095 194.337 757.011 163.555C738.823 141.262 720.024 118.194 710.401 91.8481C696.114 52.7689 707.91 22.5815 720.4 -9.36734C727.755 -28.2119 735.357 -47.6932 737.589 -69.6255L739.88 -69.4345C737.624 -47.2475 729.964 -27.639 722.562 -8.67765C710.213 22.9316 698.546 52.7901 712.575 91.2008C722.092 117.229 740.785 140.159 758.855 162.324C784.151 193.361 810.317 225.447 811.645 266.511C812.526 293.6 803.021 321.007 793.821 347.513C790.296 357.678 786.642 368.193 783.764 378.284C782.554 408.238 770.569 434.51 748.163 456.177L747.787 456.41C731.879 462.841 721.304 473.271 716.381 487.425C705.725 508.222 709.731 531.333 713.609 553.679C714.548 559.058 715.512 564.618 716.24 570.03C724.782 632.994 727.567 695.31 729.153 747.971L726.862 748.024Z" fill="url(#paint26_linear_96_6)"/>
<path d="M-193.522 823.604L-194.368 821.673C-133.401 799.963 -104.086 756.842 -73.0562 711.184C-65.8069 700.509 -58.2991 689.464 -50.2508 678.471L-45.9035 672.487C-14.7678 629.672 23.958 576.375 88.2974 601.077C115.098 611.38 136.599 630.967 157.383 649.907C182.104 672.434 207.659 695.713 242.19 703.311C265.278 708.393 288.859 702.345 311.652 696.499C329.088 692.032 347.123 687.395 364.912 687.724C426.255 688.816 468.165 722.452 508.7 754.985C537.11 777.787 566.495 801.375 602.378 813.63C652.982 830.915 670.735 797.332 689.534 761.776C697.677 746.369 706.101 730.442 717.392 719.375C729.106 704.542 741.631 696.838 754.532 696.583C768.795 696.276 783.588 705.03 798.756 722.527C828.834 762.253 866.526 795.624 910.833 821.768L909.576 823.498C865.022 797.215 827.107 763.654 796.9 723.757C782.248 706.855 768.055 698.366 754.579 698.663C742.442 698.897 730.528 706.303 719.178 720.68C708.028 731.62 699.674 747.409 691.614 762.667C673.191 797.502 654.157 833.536 601.567 815.572C565.285 803.179 535.747 779.464 507.173 756.534C466.943 724.256 425.351 690.875 364.865 689.793C347.417 689.464 329.558 694.069 312.287 698.493C289.199 704.414 265.325 710.547 241.65 705.327C206.496 697.592 180.694 674.089 155.75 651.371C135.118 632.569 113.782 613.13 87.3927 602.987C24.8275 578.953 -13.3226 631.444 -43.9766 673.633L-48.3356 679.606C-56.3604 690.588 -63.8565 701.613 -71.1058 712.277C-102.336 758.232 -131.838 801.64 -193.522 823.604Z" fill="url(#paint27_linear_96_6)"/>
<path d="M-186.719 794.976L-187.706 793.109C-127.185 766.815 -101.243 719.396 -73.7729 669.186C-67.111 657.016 -60.2259 644.421 -52.7533 631.964C-50.8969 628.866 -48.9935 625.64 -47.0314 622.308C-28.068 590.116 -4.46356 550.039 30.9489 540.362C46.5403 536.097 63.2949 538.24 80.7544 546.728C107.343 559.674 128.292 584.513 148.548 608.536C173.95 638.67 200.222 669.834 237.96 678.259C262.129 683.659 286.873 671.287 310.795 659.319C326.127 651.647 340.603 644.411 354.913 641.546C377.355 637.047 419.758 631.041 451.505 641.408C489.972 653.971 513.012 683.511 535.301 712.096C553.125 734.952 571.548 758.592 597.678 772.98C613.763 781.84 627.427 784.461 639.459 781.034C662.217 774.529 675.47 747.016 688.301 720.404C696.725 702.918 704.691 686.408 715.16 675.532C727.215 659.138 740.01 650.724 753.098 650.65C753.157 650.65 753.216 650.65 753.275 650.65C767.738 650.65 782.789 660.846 798.004 680.964C827.801 724.712 865.774 762.454 910.892 793.194L909.517 794.86C864.165 763.961 825.991 726.017 796.077 682.089C781.344 662.618 766.927 652.729 753.275 652.729C753.216 652.729 753.169 652.729 753.11 652.729C740.832 652.804 728.683 660.9 716.993 676.794C706.653 687.522 698.758 703.905 690.404 721.232C677.374 748.268 663.897 776.227 640.152 783.007C627.451 786.626 613.164 783.941 596.48 774.752C569.95 760.141 551.374 736.32 533.421 713.285C511.344 684.975 488.515 655.7 450.729 643.36C419.523 633.174 377.613 639.116 355.407 643.572C341.425 646.373 327.091 653.546 311.911 661.133C287.59 673.293 262.458 685.866 237.42 680.275C198.882 671.669 172.364 640.219 146.715 609.798C126.612 585.946 105.816 561.286 79.6617 548.553C62.7661 540.341 46.5991 538.251 31.6187 542.346C-2.88914 551.779 -26.2351 591.421 -45.0105 623.285C-46.9726 626.616 -48.876 629.853 -50.7324 632.951C-58.1933 645.376 -65.0666 657.95 -71.7167 670.11C-99.3629 720.648 -125.482 768.375 -186.719 794.976Z" fill="url(#paint28_linear_96_6)"/>
<path d="M-177.085 766.423L-178.154 764.577C-118.738 736.66 -96.5902 686.758 -73.1385 633.927C-67.2403 620.643 -61.1424 606.912 -54.4101 593.479C-52.7064 590.095 -50.9558 586.508 -49.1346 582.784C-33.3435 550.506 -11.713 506.302 22.8771 496.328C38.0807 491.946 54.7295 494.524 72.3653 503.999C99.424 518.536 120.173 547.174 140.253 574.868C165.784 610.085 192.185 646.501 232.039 655.584C257.206 661.324 285.169 643.413 309.855 627.614C322.779 619.327 334.998 611.507 346.125 607.316C351.577 605.257 358.203 602.435 365.229 599.453C391.231 588.407 423.588 574.656 445.101 577.16C492.58 582.709 516.807 624.579 540.236 665.07C556.262 692.753 571.407 718.908 593.26 733.689C608.958 744.3 622.434 748.045 634.477 745.106C657.576 739.504 671.464 710.091 684.893 681.644C693.553 663.287 701.742 645.96 712.128 635.328C724.665 618.775 737.719 610.329 750.878 610.329C751.054 610.329 751.23 610.329 751.395 610.329C766.34 610.584 781.614 621.767 796.818 643.541C826.414 690.313 864.788 731.047 910.916 764.662L909.47 766.274C863.119 732.501 824.558 691.565 794.844 644.612C780.11 623.497 765.47 612.653 751.359 612.409C738.882 612.197 726.251 620.335 713.938 636.601C703.704 647.085 695.597 664.263 687.008 682.45C673.356 711.354 659.245 741.244 635.076 747.112C622.317 750.21 608.182 746.358 591.886 735.344C569.609 720.288 554.358 693.931 538.203 666.025C515.045 626.012 491.088 584.63 444.808 579.219C423.988 576.799 390.584 590.975 366.204 601.331C359.155 604.323 352.505 607.156 347.006 609.226C336.114 613.332 324.001 621.088 311.182 629.301C286.097 645.366 257.652 663.574 231.475 657.589C190.763 648.315 164.104 611.549 138.338 576.003C118.399 548.501 97.7909 520.075 71.1786 505.782C54.1421 496.625 38.1277 494.1 23.5703 498.301C-10.0328 507.989 -31.4166 551.705 -47.0315 583.622C-48.8526 587.346 -50.615 590.943 -52.3187 594.339C-59.0393 607.729 -65.1137 621.438 -71.0119 634.702C-94.6163 687.893 -116.928 738.146 -177.085 766.423Z" fill="url(#paint29_linear_96_6)"/>
<path d="M-171.892 736.416L-172.984 734.591C-116.494 706.706 -95.8265 658.311 -73.9375 607.061C-68.4388 594.169 -62.7403 580.831 -56.4309 567.791C-54.7508 564.332 -53.0236 560.66 -51.2377 556.883C-35.7169 523.926 -16.4009 482.916 16.4385 473.313C31.2779 468.973 47.7269 471.637 65.3392 481.218C91.9867 495.733 112.842 522.96 133.015 549.296C158.511 582.603 184.889 617.035 223.415 626.977C249.792 633.789 282.455 616.303 311.265 600.875C321.487 595.4 331.144 590.232 339.51 586.773C348.792 582.932 360.189 576.545 372.255 569.785C398.01 555.344 427.195 538.961 449.378 539.439C499.665 540.447 523.011 586.168 545.605 630.394C559.74 658.067 573.087 684.201 592.321 698.568C607.536 709.921 620.672 714.208 632.48 711.693C654.78 706.929 668.691 678.503 682.132 651.01C690.768 633.365 698.922 616.695 709.027 606.626C721.916 590.455 735.216 582.476 748.528 582.794C763.473 583.24 778.63 594.402 793.587 615.974C822.843 661.356 860.605 700.849 905.828 733.371L904.395 734.994C858.948 702.313 820.998 662.629 791.613 617.046C777.114 596.121 762.592 585.288 748.446 584.863C735.85 584.481 723.314 592.259 710.813 607.931C700.873 617.841 692.789 634.362 684.236 651.849C670.559 679.808 656.425 708.711 633.008 713.709C620.448 716.394 606.666 711.958 590.864 700.159C571.219 685.495 557.766 659.159 543.514 631.264C521.225 587.622 498.173 542.495 449.331 541.508C449.037 541.508 448.755 541.497 448.473 541.497C427.09 541.497 398.621 557.456 373.454 571.547C361.329 578.348 349.873 584.768 340.462 588.662C332.214 592.068 322.603 597.214 312.44 602.657C283.231 618.298 250.121 636.039 222.78 628.972C183.467 618.828 156.855 584.078 131.124 550.474C111.091 524.319 90.377 497.272 64.1525 483.001C47.1395 473.737 31.3249 471.138 17.1434 475.287C-14.6973 484.603 -33.79 525.125 -49.1229 557.689C-50.9087 561.488 -52.6477 565.149 -54.3278 568.629C-60.6137 581.627 -66.3004 594.933 -71.7991 607.804C-93.8408 659.414 -114.649 708.16 -171.892 736.416Z" fill="url(#paint30_linear_96_6)"/>
<path d="M-176.11 704.138L-177.191 702.303C-121.381 675.383 -100.479 628.877 -78.3435 579.643C-72.1633 565.881 -65.7717 551.652 -58.5223 537.709L-57.6059 535.937C-39.8409 501.729 -19.7025 462.946 12.8196 454.999C29.7034 450.871 48.0559 455.179 68.9462 468.188C91.8809 482.46 110.245 502.291 128.01 521.464C146.468 541.381 165.538 561.976 189.659 576.205C228.937 599.379 267.956 586.731 309.255 573.34C316.751 570.91 324.494 568.396 332.155 566.146C347.734 561.573 364.747 551.005 382.747 539.832C415.07 519.745 448.497 498.991 480.42 507.936C516.537 518.08 537.639 562.804 556.25 602.254C566.554 624.102 576.294 644.729 587.397 657.059C604.645 676.2 619.25 684.816 631.998 683.394C651.337 681.24 664.638 655.584 677.491 630.776C685.281 615.74 693.353 600.196 702.882 589.373C713.691 572.491 725.746 563.43 738.611 562.581C752.534 561.647 767.644 570.348 783.506 588.397C812.186 631.094 848.855 667.881 892.563 697.846L891.176 699.501C847.234 669.367 810.376 632.389 781.626 589.585C766.34 572.205 751.9 563.769 738.788 564.65C726.709 565.446 715.265 574.157 704.773 590.54C695.315 601.289 687.314 616.727 679.571 631.657C665.848 658.141 652.876 683.161 632.28 685.453C618.662 686.97 603.4 678.11 585.612 658.364C574.309 645.811 564.51 625.046 554.135 603.071C535.724 564.024 514.845 519.777 479.726 509.92C448.896 501.24 415.928 521.74 384.04 541.54C365.899 552.808 348.768 563.451 332.872 568.12C325.234 570.359 317.515 572.863 310.031 575.292C270.024 588.269 228.631 601.681 188.402 577.935C163.998 563.546 144.812 542.834 126.259 522.801C108.588 503.734 90.3183 484.009 67.642 469.896C47.3392 457.259 29.5977 453.047 13.4189 456.994C-18.0694 464.697 -37.9727 503.012 -55.5262 536.818L-56.4427 538.579C-63.6685 552.479 -70.0484 566.687 -76.2168 580.417C-98.5053 630.012 -119.56 676.858 -176.11 704.138Z" fill="url(#paint31_linear_96_6)"/>
<path d="M-185.768 670.789L-186.754 668.921C-130.886 644.93 -109.044 601.183 -85.8982 554.878C-79.4831 542.028 -72.8447 528.733 -65.3604 515.597C-47.2076 483.786 -26.6463 447.731 6.32233 438.775C23.2766 434.17 41.6643 437.078 62.5546 447.667C84.9489 459.01 103.525 475.701 121.489 491.85C138.855 507.458 156.808 523.597 178.109 534.77C198.083 545.243 243.682 560.427 324.776 544.341C345.291 540.267 366.345 526.759 388.646 512.467C421.838 491.171 456.169 469.154 490.712 478.491C527.958 488.571 548.014 534.802 565.72 575.59C575.131 597.278 584.014 617.757 594.377 630.044C611.319 650.119 625.395 659.223 637.438 658.024C654.639 656.241 665.871 633.683 677.773 609.798C684.893 595.495 692.272 580.704 701.225 570.221C710.906 554.856 721.927 546.453 733.876 545.381C746.742 544.203 760.841 551.503 775.845 567.037C801.694 604.567 835.156 635.911 875.432 660.327L874.14 662.056C833.605 637.471 799.919 605.915 774 568.268C759.631 553.403 746.166 546.357 734.111 547.439C722.938 548.447 712.516 556.501 703.128 571.367C694.246 581.776 686.938 596.461 679.865 610.647C667.692 635.094 656.19 658.173 637.696 660.083C624.796 661.388 610.027 652.008 592.555 631.296C581.993 618.786 573.051 598.169 563.582 576.354C546.075 536.001 526.219 490.269 490.054 480.486C456.569 471.435 422.719 493.145 389.973 514.154C367.485 528.584 346.242 542.208 325.27 546.368C290.139 553.339 224.143 561.329 176.958 536.563C155.398 525.252 137.339 509.018 119.868 493.325C102.021 477.271 83.5507 460.676 61.4267 449.471C41.1121 439.179 23.3001 436.324 6.99204 440.76C-25.0484 449.46 -45.3865 485.102 -63.316 516.552C-70.7768 529.635 -77.4034 542.898 -83.8068 555.737C-107.117 602.403 -129.136 646.48 -185.768 670.789Z" fill="url(#paint32_linear_96_6)"/>
<path d="M-196.859 637.588L-197.74 635.667C-141.379 614.414 -119.196 575.186 -93.5001 529.751C-86.7559 517.814 -79.7651 505.474 -71.94 493.155C-39.4649 442.075 -7.30693 401.808 57.4907 426.477C87.052 437.735 113.594 453.153 139.266 468.061C193.125 499.341 243.988 528.86 318.596 520.891C343.622 518.207 369.165 501.856 393.862 486.035C427.994 464.188 463.289 441.598 500.182 451.614C538.755 462.087 557.695 508.774 574.414 549.954C583.203 571.589 591.498 592.036 601.638 604.62C618.427 625.46 632.068 634.988 643.43 633.853C658.704 632.272 668.48 611.454 678.843 589.405C685.234 575.812 691.837 561.743 700.121 551.567C708.627 537.603 718.567 529.773 729.588 528.404C741.337 526.929 754.473 532.818 768.655 545.858C791.812 578.274 822.079 604.196 858.76 623.062L857.632 624.866C820.61 605.83 790.085 579.685 766.869 547.142C753.38 534.77 740.903 529.104 729.905 530.462C719.648 531.736 710.272 539.216 702.059 552.681C693.846 562.782 687.29 576.725 680.957 590.222C670.336 612.833 660.302 634.203 643.7 635.911C631.457 637.163 617.112 627.338 599.781 605.841C589.454 593.023 581.1 572.449 572.264 550.676C555.733 509.941 536.993 463.774 499.524 453.598C463.7 443.868 428.875 466.161 395.19 487.722C370.258 503.692 344.468 520.202 318.866 522.95C243.424 531.046 192.232 501.283 138.021 469.801C112.431 454.946 85.9711 439.582 56.5977 428.398C-6.47272 404.375 -38.0197 443.985 -69.9426 494.184C-77.7442 506.461 -84.7233 518.78 -91.4557 530.696C-116.27 574.582 -139.722 616.038 -196.859 637.588Z" fill="url(#paint33_linear_96_6)"/>
<path d="M646.156 611.518C634.9 611.518 621.764 601.459 605.045 580.11C594.717 566.921 586.786 546.357 578.386 524.584C562.689 483.839 544.877 437.672 506.068 427.188C468.717 417.098 432.999 439.55 398.456 461.27C371.327 478.332 343.27 495.978 314.707 497.463C254.68 500.625 200.468 472.984 148.078 446.288C115.908 429.905 85.5245 414.424 53.7661 405.405C-10.6203 387.133 -42.461 423.91 -74.6189 470.13C-82.6672 481.706 -89.8931 493.229 -96.8839 504.36C-124.283 547.991 -147.947 585.68 -205.366 605.713L-206.188 603.772C-149.544 584.015 -126.069 546.633 -98.8813 503.341C-91.8787 492.179 -84.6411 480.645 -76.5576 469.026C-45.0928 423.793 -11.3958 384.735 54.4593 403.431C86.441 412.514 118.352 428.769 149.206 444.484C201.314 471.032 255.208 498.471 314.566 495.394C342.482 493.94 370.27 476.465 397.14 459.572C432.13 437.576 468.294 414.827 506.726 425.194C546.662 435.985 564.674 482.693 580.559 523.894C588.901 545.53 596.773 565.955 606.925 578.911C623.867 600.546 637.238 610.488 647.883 609.353C661.195 607.91 669.455 589.087 678.184 569.16C684.365 555.058 690.756 540.479 699.533 530.462C709.132 519.523 719.495 513.889 731.233 513.241C757.504 511.809 783.999 535.609 809.742 558.623C823.03 570.497 835.579 581.712 847.034 588.354L845.801 590.095C834.133 583.346 821.503 572.046 808.132 560.098C783.929 538.463 756.376 513.931 731.374 515.321C720.318 515.926 710.495 521.295 701.342 531.746C692.765 541.529 686.444 555.96 680.323 569.924C671.323 590.434 662.828 609.82 648.153 611.411C647.495 611.486 646.837 611.518 646.156 611.518Z" fill="url(#paint34_linear_96_6)"/>
<path d="M647.26 583.41C636.004 583.41 622.974 573.277 606.443 551.758C596.28 538.527 588.69 518.228 580.665 496.731C565.473 456.081 548.249 410.01 508.512 399.717C470.75 389.945 434.327 412.28 399.114 433.884C371.257 450.967 342.459 468.634 313.238 470.109C257.77 472.952 204.674 445.938 153.306 419.856C119.186 402.529 86.9579 386.168 54.048 377.785C-10.6556 361.285 -42.8253 397.224 -75.3239 442.245C-83.4545 453.514 -90.8213 464.719 -97.9296 475.541C-126.199 518.578 -150.614 555.748 -207.598 575.929L-208.432 573.998C-152.188 554.071 -127.961 517.188 -99.9153 474.491C-92.7834 463.636 -85.4048 452.421 -77.2508 441.11C-44.2469 395.388 -11.5485 358.919 54.6707 375.78C87.8508 384.236 121.689 401.426 154.434 418.042C205.509 443.985 258.345 470.798 313.109 468.04C341.695 466.586 370.223 449.089 397.822 432.165C433.481 410.296 470.35 387.674 509.147 397.723C550.034 408.312 567.459 454.935 582.839 496.073C590.816 517.422 598.359 537.582 608.323 550.57C624.983 572.269 638.201 582.317 648.811 581.266C662.017 579.961 670.406 561.499 679.289 541.943C685.422 528.457 691.755 514.504 700.261 504.7C709.191 494.397 719.401 488.784 730.575 488.03C756.141 486.248 783.729 509.867 808.109 530.653C821.174 541.795 833.522 552.31 844.708 558.517L843.498 560.289C832.112 553.965 819.693 543.376 806.534 532.16C782.495 511.66 755.26 488.529 730.751 490.099C720.094 490.821 710.707 496.02 702.071 505.984C693.764 515.554 687.49 529.369 681.415 542.739C672.263 562.867 663.627 581.892 649.058 583.325C648.47 583.378 647.871 583.41 647.26 583.41Z" fill="url(#paint35_linear_96_6)"/>
<path d="M650.585 548.458C638.942 548.469 626.37 539.004 611.084 518.759C601.367 505.877 594.564 487.065 587.362 467.148C573.921 429.99 558.694 387.876 520.121 377.796C480.232 367.386 440.119 390.412 401.311 412.673C369.882 430.701 337.372 449.354 305.284 449.885C248.758 450.808 201.009 418.594 154.916 387.419C124.591 366.909 93.2203 345.698 60.3574 335.119C-5.25087 313.983 -39.4884 360.553 -69.6842 401.648C-78.2612 413.32 -86.1098 425.045 -93.6881 436.388C-122.368 479.276 -149.45 519.777 -206.893 541.147L-207.774 539.227C-151.025 518.111 -124.131 477.897 -95.662 435.316C-88.0602 423.963 -80.2116 412.217 -71.5994 400.502C-42.4493 360.84 -6.17907 311.479 61.1329 333.156C94.3247 343.852 125.825 365.158 156.291 385.754C202.078 416.716 249.345 448.728 305.249 447.805C336.69 447.285 368.918 428.801 400.078 410.912C439.309 388.406 479.879 365.137 520.755 375.801C560.503 386.189 575.93 428.854 589.547 466.501C596.691 486.269 603.447 504.954 612.987 517.592C627.78 537.189 640.187 546.601 650.985 546.378C664.356 546.102 674.765 530.834 685.786 514.663C693.388 503.501 701.248 491.967 711.036 483.383C744.404 454.076 784.281 484.316 819.447 511.002C833.287 521.496 846.353 531.407 858.067 537.009L856.986 538.845C845.06 533.136 831.901 523.152 817.966 512.583C783.541 486.47 744.521 456.877 712.634 484.868C703.058 493.272 695.268 504.7 687.737 515.745C676.387 532.415 665.66 548.15 651.032 548.458C650.879 548.458 650.738 548.458 650.585 548.458Z" fill="url(#paint36_linear_96_6)"/>
<path d="M879.439 522.122C863.272 516.106 847.034 505.75 831.325 495.744C800.225 475.923 768.079 455.434 732.984 465.09C719.343 468.846 708.533 478.3 698.088 487.436C678.361 504.689 659.726 520.987 627.251 491.702C607.959 474.3 600.627 450.352 593.542 427.178C581.593 388.141 571.289 354.42 508.183 360.723C474.804 364.044 442.563 380.013 411.381 395.462C374.065 413.946 335.492 433.024 294.616 430.648C245.398 427.761 198.788 391.919 164.75 365.753C153.835 357.359 143.179 345.953 131.899 333.878C111.079 311.606 89.5546 288.56 63.5534 281.323C4.60693 264.919 -29.0314 310.81 -58.6985 351.311C-60.7664 354.134 -62.8225 356.935 -64.8551 359.673C-72.7977 370.379 -80.2703 381.191 -87.5079 391.632C-118.702 436.717 -148.17 479.308 -207.046 502.206L-207.95 500.296C-149.744 477.653 -120.465 435.337 -89.4583 390.539C-82.2207 380.077 -74.7246 369.243 -66.7585 358.516C-64.7377 355.778 -62.6815 352.988 -60.6136 350.155C-30.5001 309.06 3.64348 262.479 64.2348 279.35C90.8823 286.756 112.63 310.036 133.662 332.541C144.871 344.552 155.468 355.885 166.243 364.172C200.034 390.157 246.314 425.735 294.769 428.578C334.951 430.934 373.242 411.983 410.265 393.637C441.647 378.103 474.099 362.028 507.925 358.654C572.993 352.181 584.037 388.343 595.751 426.626C602.766 449.535 610.015 473.228 628.873 490.237C659.75 518.08 676.775 503.182 696.49 485.951C707.135 476.634 718.144 467 732.314 463.106C768.478 453.142 801.094 473.939 832.653 494.046C848.256 503.989 864.388 514.281 880.308 520.212L879.439 522.122Z" fill="url(#paint37_linear_96_6)"/>
<path d="M900.494 504.636C880.59 498.598 861.31 487.372 842.652 476.507C815.053 460.453 786.525 443.836 755.319 443.529C743.252 443.401 729.893 447.805 715.794 452.452C691.332 460.527 666.048 468.867 644.911 453.736C624.349 439.009 618.627 416.811 613.082 395.356C605.315 365.243 597.972 336.806 550.129 333.029C505.105 329.474 460.869 351.821 418.09 373.435C374.711 395.346 329.852 417.989 284.406 413.299C233.672 408.057 178.544 352.956 150.205 320.572C142.861 312.19 136.058 301.07 128.856 289.281C113.887 264.792 96.9097 237.023 70.9554 229.267C18.2009 213.51 -23.3565 269.726 -50.85 306.916C-54.3395 311.648 -57.6058 316.062 -60.6489 319.999C-68.1802 329.75 -75.4296 339.629 -82.4322 349.178C-116.764 395.972 -149.192 440.155 -210.218 463.923L-211.134 462.013C-150.731 438.489 -118.491 394.55 -84.3591 348.043C-77.333 338.472 -70.0836 328.594 -62.5288 318.811C-59.4975 314.885 -56.2429 310.481 -52.7651 305.77C-24.8722 268.049 17.261 211.048 71.6721 227.293C98.4841 235.305 115.697 263.455 130.877 288.284C138.021 299.987 144.788 311.044 152.002 319.288C180.13 351.417 234.753 406.084 284.664 411.24C329.382 415.867 373.912 393.372 416.973 371.62C460.046 349.858 504.588 327.342 550.328 330.971C599.84 334.875 607.36 364.023 615.326 394.879C620.766 415.994 626.405 437.831 646.344 452.102C666.459 466.522 691.144 458.373 715.007 450.5C729.106 445.852 742.442 441.449 754.826 441.449C755.002 441.449 755.166 441.449 755.343 441.449C787.218 441.778 816.028 458.543 843.897 474.767C862.426 485.558 881.601 496.72 901.234 502.673L900.494 504.636Z" fill="url(#paint38_linear_96_6)"/>
<path d="M909.811 480.889C885.666 473.006 864.506 459.721 844.038 446.871C820.974 432.398 797.135 417.427 769.547 410.827C757.504 407.951 741.525 408.981 724.606 410.084C699.416 411.718 673.367 413.395 658.164 401.903C639.236 387.579 633.937 368.034 628.802 349.126C621.271 321.368 614.773 297.388 567.67 295.075C520.661 292.772 474.134 315.819 429.146 338.122C382.771 361.105 334.81 384.884 286.473 380.533C263.433 378.464 238.09 366.177 211.16 344.022C185.218 322.673 164.468 297.494 154.399 284.379C147.608 275.53 141.957 264.304 135.964 252.409C123.416 227.442 110.433 201.637 84.9489 192.989C32.9581 175.344 -16.1894 236.451 -45.551 272.962C-49.2756 277.599 -52.8004 281.981 -55.9139 285.684C-64.2795 295.605 -72.363 305.685 -80.1646 315.426C-118.326 363.026 -154.362 407.983 -218.63 431.093L-219.476 429.162C-155.842 406.275 -119.983 361.561 -82.0327 314.216C-74.2076 304.455 -66.1241 294.374 -57.7468 284.422C-54.645 280.74 -51.1319 276.379 -47.4074 271.742C-17.6581 234.753 32.1356 172.85 85.7596 191.048C112.125 200.003 125.308 226.201 138.056 251.55C144.001 263.359 149.617 274.501 156.291 283.201C220.219 366.474 272.269 377.18 286.697 378.475C334.34 382.751 381.972 359.132 428.041 336.297C473.3 313.866 520.109 290.65 567.8 293.006C616.595 295.404 623.609 321.262 631.035 348.638C636.075 367.217 641.292 386.433 659.644 400.312C674.131 411.273 699.698 409.617 724.442 408.015C741.549 406.901 757.716 405.85 770.123 408.821C798.11 415.517 822.126 430.595 845.354 445.174C865.692 457.938 886.724 471.149 910.598 478.937L909.811 480.889Z" fill="url(#paint39_linear_96_6)"/>
<path d="M917.084 449.747C886.136 439.433 861.357 422.562 837.388 406.243C816.886 392.29 795.69 377.859 770.887 367.79C757.187 362.23 741.408 360.426 726.157 358.675C704.292 356.161 683.648 353.794 668.503 341.337C652.078 327.819 643.395 312.975 635.734 299.882C621.976 276.347 611.084 257.757 562.442 261.609C521.413 264.856 482.323 284.167 444.514 302.842C402.498 323.607 359.108 345.03 312.968 344.319C270.882 343.64 222.816 310.715 166.031 243.687C161.143 237.915 156.408 231.506 151.391 224.737C134.179 201.478 114.663 175.11 83.868 170.092C31.3367 161.529 -17.94 217.373 -50.5445 254.33C-54.9387 259.306 -59.0392 263.943 -62.799 268.049C-69.8486 275.721 -76.8042 283.53 -83.5366 291.075C-125.646 338.303 -165.418 382.91 -231.038 404.153L-231.813 402.2C-166.804 381.159 -127.232 336.775 -85.3225 289.78C-78.5901 282.215 -71.6228 274.405 -64.5732 266.723C-60.8134 262.627 -56.7246 258.001 -52.3421 253.035C-19.397 215.696 30.4085 159.279 84.2792 168.054C116.038 173.222 135.835 199.982 153.307 223.58C158.3 230.328 163.012 236.705 167.852 242.425C224.179 308.922 271.669 341.582 313.015 342.25C358.497 342.95 401.652 321.655 443.409 301.027C481.43 282.247 520.744 262.818 562.242 259.54C612.412 255.582 623.609 274.702 637.767 298.916C645.345 311.85 653.922 326.525 670.054 339.799C684.659 351.821 704.961 354.145 726.451 356.606C741.866 358.378 757.81 360.214 771.827 365.901C796.865 376.066 818.166 390.56 838.763 404.588C862.602 420.812 887.252 437.587 917.883 447.795L917.084 449.747Z" fill="url(#paint40_linear_96_6)"/>
<path d="M933.838 415.442C878.828 401.563 846.694 377.997 809.495 350.728C800.695 344.276 791.601 337.613 781.743 330.716C763.72 318.1 743.969 313.367 724.876 308.805C709.767 305.187 694.14 301.452 679.489 293.844C662.37 284.952 650.55 274.161 640.105 264.632C619.802 246.096 603.764 231.453 560.726 238.116C526.653 243.39 495.247 261.906 464.875 279.806C429.698 300.539 393.334 321.973 352.857 322.641C352.258 322.652 351.647 322.652 351.036 322.652C294.627 322.652 253.716 279.519 214.145 237.798C175.947 197.52 136.446 155.873 82.7635 151.692C26.1904 147.268 -21.6999 197.35 -56.6894 233.904C-61.0837 238.498 -65.3134 242.923 -69.3787 247.061C-76.581 254.383 -83.7246 261.831 -90.6332 269.036C-134.952 315.288 -176.815 358.972 -243.433 379.302L-244.162 377.329C-178.142 357.19 -136.479 313.707 -92.3604 267.678C-85.4518 260.462 -78.3082 253.014 -71.0941 245.682C-67.0406 241.554 -62.8108 237.14 -58.4283 232.546C-23.1098 195.652 25.274 145.135 82.9632 149.623C137.586 153.889 177.393 195.854 215.883 236.45C256.912 279.7 295.685 320.583 350.966 320.583C351.588 320.583 352.199 320.583 352.822 320.572C392.629 319.914 428.723 298.64 463.618 278.076C494.19 260.049 525.796 241.427 560.327 236.068C604.551 229.225 621.788 244.95 641.738 263.168C652.078 272.601 663.792 283.297 680.64 292.04C695.021 299.51 710.495 303.213 725.464 306.799C744.78 311.415 764.765 316.2 783.153 329.071C793.023 335.979 802.128 342.664 810.94 349.115C849.466 377.361 879.909 399.675 934.449 413.437L933.838 415.442Z" fill="url(#paint41_linear_96_6)"/>
<path d="M952.473 380.512C879.932 369.732 844.355 351.715 793.88 300.2C768.302 274.087 743.605 267.689 715.019 260.293C703.974 257.439 692.554 254.478 679.97 250.213C667.011 245.809 655.273 240.154 643.923 234.679C615.69 221.065 589.019 208.205 551.033 219.675C528.944 226.349 506.926 244.366 485.648 261.789C457.027 285.228 427.336 309.399 395.237 309.24C352.963 308.943 307.845 268.93 268.05 233.628C251.554 218.996 235.963 205.17 222.51 196.077C182.938 169.338 136.587 140.371 87.2164 135.055C21.3614 127.967 -25.9884 175.206 -67.769 216.874C-72.6215 221.713 -77.4035 226.477 -82.1385 231.092C-88.2599 237.056 -94.2873 243.04 -100.279 248.982C-145.315 293.653 -187.859 335.862 -253.749 354.856L-254.454 352.882C-189.14 334.048 -146.807 292.051 -101.971 247.581C-95.9792 241.639 -89.9518 235.655 -83.8186 229.681C-79.0954 225.076 -74.3134 220.312 -69.4727 215.484C-27.3278 173.434 20.4685 125.792 87.4984 132.996C137.421 138.365 184.078 167.524 223.885 194.422C237.455 203.6 253.105 217.468 269.66 232.153C309.15 267.179 353.915 306.874 395.249 307.171C395.39 307.171 395.542 307.171 395.683 307.171C426.819 307.171 455.934 283.318 484.097 260.251C505.563 242.679 527.758 224.514 550.305 217.702C589.218 205.945 616.312 219.017 645.004 232.843C656.284 238.286 667.951 243.91 680.781 248.271C693.282 252.505 704.656 255.455 715.653 258.298C744.592 265.789 769.583 272.251 795.607 298.82C845.659 349.911 880.931 367.779 952.849 378.464L952.473 380.512Z" fill="url(#paint42_linear_96_6)"/>
<path d="M965.456 347.513L957.725 346.929C920.432 344.16 881.859 341.295 850.066 322.705C830.985 311.543 821.656 298.332 811.775 284.347C806.382 276.697 800.789 268.792 793.234 260.463C764.507 228.8 743.37 225.044 704.997 218.222C700.873 217.489 696.561 216.715 692.037 215.877C679.548 213.563 667.034 210.37 654.933 207.282C616.23 197.393 579.666 188.055 541.634 204.597C522.988 212.704 507.725 228.196 492.968 243.178C472.83 263.625 451.998 284.772 422.543 286.682C383.359 289.207 338.347 249.926 298.634 215.251C279.342 198.401 261.107 182.474 245.633 173.243C199.646 145.804 132.71 112.921 74.9619 112.115C-1.20902 111.054 -57.5353 167.545 -112.041 222.169C-156.582 266.797 -202.64 312.943 -259.918 329.156L-260.599 327.172C-203.92 311.129 -158.074 265.195 -113.744 220.768C-58.8865 165.805 -2.09022 108.953 74.9972 110.046C133.297 110.852 200.656 143.915 246.902 171.503C262.552 180.851 280.857 196.83 300.232 213.754C339.592 248.133 384.193 287.106 422.378 284.613C450.905 282.756 470.503 262.861 491.253 241.799C506.163 226.668 521.578 211.017 540.635 202.73C579.455 185.838 616.418 195.281 655.555 205.287C667.622 208.364 680.088 211.547 692.495 213.85C697.019 214.688 701.319 215.452 705.431 216.184C744.333 223.103 765.752 226.901 795.008 259.147C802.657 267.572 808.285 275.53 813.713 283.233C823.876 297.621 832.653 310.047 851.323 320.965C882.623 339.268 920.902 342.112 957.913 344.871L965.644 345.444L965.456 347.513Z" fill="url(#paint43_linear_96_6)"/>
<path d="M965.996 318.206C962.589 317.973 959.158 317.75 955.704 317.537C919.328 315.214 881.718 312.826 850.641 295.16C830.256 283.562 820.54 269.885 809.295 254.054C804.255 246.945 799.038 239.602 792.435 231.877C763.273 197.775 739.352 193.806 695.938 186.591L690.933 185.763C680.323 183.991 669.337 181.657 658.728 179.386C618.51 170.823 576.929 161.953 539.401 179.386C521.531 187.694 507.608 202.751 494.143 217.319C475.52 237.469 456.275 258.298 426.714 260.25C425.468 260.325 424.211 260.367 422.954 260.367C384.404 260.378 341.073 222.519 302.699 188.999C283.125 171.895 264.631 155.756 248.817 146.419C218.327 128.423 140.3 86.4789 74.5154 85.7256C-0.974061 84.7918 -58.1933 141.156 -113.533 195.61C-158.11 239.475 -204.202 284.835 -260.176 301.346L-260.893 299.383C-205.495 283.031 -159.602 237.872 -115.225 194.209C-59.5445 139.416 -2.0315 82.7758 74.5507 83.6459C140.934 84.4099 219.42 126.587 250.074 144.679C266.065 154.122 284.641 170.346 304.297 187.503C343.587 221.829 388.093 260.76 426.549 258.181C455.135 256.293 473.229 236.716 492.381 215.993C505.986 201.265 520.062 186.039 538.344 177.54C576.623 159.756 618.627 168.712 659.245 177.37C669.843 179.63 680.805 181.965 691.356 183.726L696.349 184.554C740.327 191.854 764.554 195.875 794.256 230.615C800.918 238.403 806.158 245.788 811.234 252.929C822.325 268.558 831.913 282.055 851.875 293.398C882.447 310.789 919.774 313.166 955.857 315.468C959.323 315.681 962.765 315.903 966.173 316.137L965.996 318.206Z" fill="url(#paint44_linear_96_6)"/>
<path d="M955.692 289.313C873.482 283.519 837.976 267.847 790.461 216.439C754.156 177.158 724.395 168.998 669.631 160.817C661.395 159.587 652.923 158.016 643.97 156.35C608.452 149.75 568.211 142.27 535.571 156.584C519.287 163.735 505.775 178.877 491.488 194.91C471.901 216.874 451.634 239.591 423.259 240.366C383.159 241.459 337.43 201.775 297.071 166.759C277.344 149.644 258.722 133.484 243.071 124.21C184.489 89.5029 131.981 69.8731 86.9932 65.8729C9.60036 58.9759 -51.5314 116.804 -110.666 172.723C-155.584 215.197 -202.029 259.115 -255.758 275.307L-256.475 273.344C-203.298 257.311 -157.052 213.574 -112.322 171.29C-52.8121 115.011 8.74265 56.8113 87.2165 63.8038C132.569 67.8465 185.429 87.5823 244.329 122.481C260.155 131.85 278.86 148.085 298.658 165.263C338.699 200.003 384.075 239.4 423.189 238.297C450.518 237.543 470.433 215.208 489.702 193.604C503.519 178.102 517.818 162.069 534.572 154.716C567.917 140.095 608.57 147.649 644.429 154.313C653.37 155.979 661.818 157.549 670.007 158.77C725.335 167.046 755.436 175.29 792.224 215.112C839.244 266.001 874.422 281.503 955.88 287.244L955.692 289.313Z" fill="url(#paint45_linear_96_6)"/>
<path d="M937.727 260.197C865.892 255.826 831.137 241.469 776.08 193.445C734.558 157.22 700.297 147.628 647.777 141.792C641.386 141.081 634.888 140.233 628.027 139.32C593.39 134.757 554.135 129.579 522.764 143.957C507.76 150.833 495.142 164.276 481.783 178.516C462.549 199.016 442.657 220.227 414.623 220.8C374.699 221.627 330.169 183.28 290.973 149.453C273.326 134.227 256.654 119.828 242.519 111.032C205.474 87.9855 149.688 56.6734 93.0559 50.9542C17.2257 43.2933 -44.3056 99.0843 -103.816 153.04C-148.781 193.806 -195.285 235.962 -248.039 251.199L-248.744 249.226C-196.518 234.137 -150.214 192.161 -105.437 151.575C-45.5393 97.2699 16.3797 41.0969 93.3144 48.8957C150.463 54.6679 206.578 86.1499 243.812 109.324C258.111 118.215 274.853 132.667 292.56 147.957C331.027 181.158 374.558 218.741 413.343 218.741C413.754 218.741 414.165 218.731 414.565 218.731C441.576 218.168 461.127 197.329 480.032 177.168C493.544 162.77 506.304 149.167 521.719 142.1C553.747 127.436 593.378 132.657 628.356 137.262C635.205 138.174 641.691 139.023 648.048 139.734C701.084 145.633 735.698 155.321 777.678 191.949C832.265 239.57 866.703 253.788 937.88 258.128L937.727 260.197Z" fill="url(#paint46_linear_96_6)"/>
<path d="M914.746 230.933C855.776 228.408 811.41 202.857 768.49 178.156C726.862 154.197 683.824 129.421 627.674 126.068C624.326 125.866 620.954 125.654 617.57 125.442C580.865 123.097 542.914 120.678 510.063 135.278C494.166 142.334 481.289 154.08 468.835 165.444C450.33 182.336 431.19 199.801 402.392 200.756C401.664 200.788 400.924 200.799 400.184 200.799C360.224 200.799 318.526 165.221 281.656 133.76C266.018 120.412 251.237 107.807 238.09 99.2545C196.756 72.367 142.732 41.0867 91.458 37.7231C36.8823 34.1261 -10.961 74.33 -49.4048 106.618C-53.8813 110.385 -58.2521 114.046 -62.5053 117.547C-69.085 122.959 -75.5588 128.37 -81.9857 133.739C-129.394 173.381 -174.183 210.826 -238.17 228.344L-238.839 226.36C-175.346 208.98 -130.757 171.694 -83.5484 132.222C-77.1098 126.842 -70.6359 121.431 -64.0562 116.019C-59.803 112.518 -55.444 108.857 -50.9675 105.101C-12.2064 72.5474 36.0364 32.0039 91.6225 35.654C143.472 39.0494 197.848 70.5207 239.429 97.5674C252.706 106.205 267.534 118.852 283.231 132.254C320.453 164.012 362.574 200.024 402.31 198.687C430.191 197.764 448.168 181.36 467.202 163.99C479.797 152.499 492.804 140.626 509.041 133.41C542.456 118.577 580.724 121.006 617.722 123.373C621.118 123.585 624.478 123.808 627.827 123.999C684.564 127.383 727.861 152.308 769.724 176.405C812.385 200.969 856.504 226.36 914.863 228.864L914.746 230.933Z" fill="url(#paint47_linear_96_6)"/>
<path d="M-227.29 206.072L-227.912 204.077C-164.243 187.875 -119.842 152.807 -72.8448 115.68C-64.9962 109.494 -56.9009 103.085 -48.6529 96.729C-44.9871 93.9065 -41.2743 91.0098 -37.5145 88.0707C3.98414 55.6125 51.0285 18.8253 109.176 27.5791C161.084 35.3992 209.316 68.547 250.462 98.9997C259.732 105.865 269.731 114.534 280.317 123.712C313.603 152.562 351.33 185.254 391.395 185.806C418.066 186.241 436.959 168.776 455.241 151.947C466.884 141.251 478.904 130.174 492.768 123.903C518.57 112.231 554.993 107.297 604.105 108.793C658.728 110.48 703.446 132.858 746.707 154.504C790.132 176.235 835.038 198.708 889.473 199.536L889.437 201.605C834.427 200.777 789.263 178.177 745.59 156.319C702.576 134.79 658.093 112.528 604.023 110.873C555.286 109.377 519.239 114.247 493.802 125.76C480.279 131.882 468.388 142.822 456.886 153.401C438.463 170.357 419.405 187.885 392.229 187.885C391.947 187.885 391.653 187.885 391.36 187.885C350.39 187.312 312.322 154.324 278.731 125.208C268.168 116.062 258.204 107.414 248.993 100.602C208.094 70.319 160.145 37.3621 108.8 29.627C51.7099 21.0217 5.11208 57.48 -36.0106 89.641C-39.7821 92.5802 -43.4949 95.4769 -47.1607 98.31C-55.397 104.655 -63.4923 111.053 -71.3291 117.239C-118.526 154.525 -163.115 189.742 -227.29 206.072Z" fill="url(#paint48_linear_96_6)"/>
<path d="M-216.539 183.726L-217.127 181.72C-153.762 166.812 -108.915 133.569 -61.4362 98.3839C-52.2834 91.593 -42.8135 84.5794 -33.1203 77.6294L-26.1412 72.5999C17.3549 41.2135 66.6786 5.64641 126.518 20.1618C168.722 30.4012 205.861 62.6152 241.767 93.7576C284.041 130.439 327.796 168.383 378.529 167.979C405.518 167.767 421.168 155.172 437.734 141.845C445.935 135.256 454.407 128.433 464.711 122.587C493.297 106.374 528.263 96.3042 565.802 93.4711C621.071 89.2799 669.56 111.584 716.464 133.145C765.329 155.597 811.492 176.808 864.259 170.218L864.576 172.277C811.069 178.951 764.613 157.602 715.418 134.991C668.808 113.568 620.613 91.4233 565.99 95.5402C528.815 98.3414 494.213 108.305 465.933 124.348C455.793 130.099 447.392 136.858 439.262 143.394C422.366 156.997 406.399 169.836 378.553 170.049C378.283 170.049 378.012 170.059 377.742 170.059C326.386 170.059 282.561 132.03 240.169 95.2537C204.475 64.2917 167.558 32.2686 125.919 22.1567C67.1956 7.90648 18.3653 43.1446 -24.7077 74.2233L-31.6868 79.2528C-41.3683 86.1922 -50.8265 93.2059 -59.9792 99.9861C-107.658 135.32 -152.705 168.701 -216.539 183.726Z" fill="url(#paint49_linear_96_6)"/>
<path d="M-207.081 160.637L-207.621 158.621C-144.762 144.742 -99.5627 113.303 -51.7076 80.0276C-40.9922 72.5683 -29.9126 64.8649 -18.4805 57.2464L-16.6476 56.0262C29.3393 25.3719 81.4593 -9.37814 142.697 11.4613C178.568 23.6742 209.163 51.8562 238.759 79.1151C277.333 114.65 317.233 151.395 368.778 152.265C400.242 152.828 427.395 134.524 456.275 115.191C479.95 99.3603 504.435 82.9667 531.576 77.6508C589.712 66.2549 645.674 85.821 699.792 104.74L700.602 105.026C711.4 108.804 722.162 113.313 733.559 118.088C768.49 132.741 804.631 147.904 842.111 140.997L842.57 143.023C804.349 150.079 767.867 134.768 732.584 119.977C721.222 115.213 710.507 110.714 699.768 106.958L698.969 106.682C645.157 87.8689 589.524 68.4195 532.07 79.6774C505.399 84.9085 481.125 101.153 457.65 116.868C428.441 136.413 400.771 154.907 368.731 154.334C316.246 153.454 276.017 116.401 237.115 80.5687C207.706 53.469 177.287 25.4462 141.886 13.403C81.8118 -7.04378 32.4529 25.8706 -15.273 57.6921L-17.1176 58.9229C-28.5262 66.5202 -39.5941 74.2235 -50.3095 81.6616C-98.3643 115.085 -143.752 146.652 -207.081 160.637Z" fill="url(#paint50_linear_96_6)"/>
<path d="M-200.02 136.137L-200.548 134.121C-138.383 120.72 -92.9127 90.8508 -44.7639 59.2203C-32.2156 50.9758 -19.2326 42.4448 -5.74436 34.073L-1.73783 31.5795C33.1459 9.85937 76.5715 -17.1767 121.9 -11.5212C170.402 -5.47307 204.51 28.0249 237.49 60.4193C273.855 96.1349 308.198 129.866 360.424 130.896C395.448 131.522 421.121 113.218 448.285 93.7793C469.669 78.4787 491.793 62.6582 518.934 56.939C568.269 46.5299 621.059 62.0958 667.634 75.826C671.546 76.9826 675.423 78.118 679.254 79.2321C690.733 82.5744 702.893 87.1689 715.771 92.0392C750.819 105.281 790.543 120.295 825.615 111.934L826.203 113.94C790.379 122.471 750.267 107.329 714.878 93.9491C702.047 89.1 689.934 84.5268 678.549 81.2057C674.718 80.0915 670.841 78.9456 666.917 77.7996C620.636 64.1543 568.164 48.6945 519.463 58.955C492.815 64.5681 470.903 80.2507 449.719 95.4134C423.424 114.226 396.271 133.665 360.377 132.975C307.164 131.925 270.882 96.2835 235.798 61.8199C203.088 29.7014 169.262 -3.52071 121.583 -9.46269C77.1355 -15.0015 34.1211 11.7693 -0.433657 33.2878L-4.44018 35.7813C-17.9049 44.1425 -30.8762 52.6629 -43.4127 60.8968C-91.7495 92.6546 -137.396 122.64 -200.02 136.137Z" fill="url(#paint51_linear_96_6)"/>
<path d="M-196.542 109.568L-197.07 107.552C-135.445 94.1398 -89.564 65.1196 -41.0039 34.4016C-28.6436 26.5815 -15.8721 18.5068 -2.64237 10.5594L2.04562 7.73695C37.0469 -13.3677 80.6369 -39.608 125.038 -34.0374C172.752 -28.0423 205.239 4.7129 236.656 36.407C269.942 69.9793 304.368 104.687 356.652 106.31C394.321 107.477 417.996 88.8026 443.092 69.0349C462.173 53.9996 481.912 38.4549 508.395 32.237C554.112 21.499 605.973 35.7492 651.725 48.3122C658.434 50.1585 665.014 51.9623 671.382 53.6388C682.755 56.631 694.998 60.8647 707.957 65.353C743.276 77.5765 783.318 91.4447 817.461 83.1047L818.06 85.1101C783.2 93.6199 742.782 79.635 707.135 67.2842C694.222 62.8171 682.015 58.594 670.736 55.6336C664.356 53.9571 657.776 52.1427 651.055 50.2964C605.597 37.8076 554.065 23.653 508.971 34.2425C483.016 40.3436 463.489 55.7291 444.608 70.5947C420.275 89.7576 395.096 109.525 356.582 108.379C303.31 106.735 268.556 71.677 234.941 37.7864C203.805 6.37878 171.6 -26.1006 124.72 -31.9789C81.1539 -37.4646 37.9986 -11.4366 3.32629 9.45588L-1.37344 12.2783C-14.5797 20.2151 -27.3395 28.2899 -39.688 36.0993C-88.436 66.934 -134.482 96.0604 -196.542 109.568Z" fill="url(#paint52_linear_96_6)"/>
<path d="M-196.33 81.0569L-196.906 79.0514C-136.021 64.8649 -89.4231 36.6935 -40.0876 6.85627C-28.1385 -0.380222 -15.7665 -7.85015 -3.06545 -15.214L3.56117 -19.0657C38.3392 -39.3427 81.612 -64.5643 124.532 -59.1423C171.424 -53.2109 204.205 -21.4425 235.893 9.27551C269.648 41.9883 304.567 75.8258 356.359 77.5553C394.027 78.7756 418.371 60.557 444.15 41.2349C463.548 26.6877 483.616 11.6523 509.922 5.55116C565.367 -7.31962 619.579 11.2173 672.016 29.1387C719.848 45.4792 769.324 62.382 819.012 54.9333L819.4 56.9812C769.066 64.5254 719.319 47.5164 671.194 31.0805C619.097 13.2757 565.226 -5.13381 510.498 7.55658C484.685 13.5516 464.817 28.4384 445.618 42.8265C420.639 61.5438 394.802 80.8553 356.276 79.6244C303.522 77.8736 268.285 43.7178 234.212 10.6867C202.795 -19.766 170.308 -51.2585 124.215 -57.0944C82.1525 -62.421 39.2674 -37.4116 4.8066 -17.3255L-1.82002 -13.4632C-14.5093 -6.11 -26.8696 1.35993 -38.8069 8.5752C-88.3069 38.5186 -135.069 66.7855 -196.33 81.0569Z" fill="url(#paint53_linear_96_6)"/>
<path d="M-196.342 52.4824L-196.894 50.4664C-137.219 37.1181 -90.081 11.1113 -40.1698 -16.4129C-28.7847 -22.6944 -17.0001 -29.1881 -4.96877 -35.597L1.82235 -39.2258C36.5299 -57.8158 79.7322 -80.9683 121.724 -75.9389C167.488 -70.4743 201.479 -41.539 234.353 -13.548C269.484 16.353 305.813 47.2725 356.335 48.9278C393.545 50.148 420.228 33.415 448.497 15.6845C469.61 2.43174 491.452 -11.2561 518.006 -16.6781C563.711 -25.9943 608.206 -11.6911 651.243 2.14525C659.515 4.80854 668.068 7.55671 676.375 10.0396C733.066 27.0167 767.997 36.248 826.661 28.3537L827.002 30.4121C767.809 38.3596 732.678 29.0964 675.647 12.0132C667.316 9.51969 658.751 6.76091 650.468 4.09762C607.747 -9.63262 563.57 -23.8403 518.511 -14.6515C492.392 -9.32491 470.75 4.25678 449.813 17.3822C422.472 34.5291 394.227 52.2596 356.241 51.0075C304.861 49.3098 268.227 18.125 232.779 -12.0412C200.175 -39.7988 166.454 -68.5008 121.431 -73.8804C80.2257 -78.7931 37.3993 -55.8634 2.98553 -37.4433L-3.80558 -33.8038C-15.8252 -27.4161 -27.5862 -20.9224 -38.9713 -14.6515C-89.0353 12.9682 -136.326 39.0493 -196.342 52.4824Z" fill="url(#paint54_linear_96_6)"/>
<path d="M360.177 24.0668C359.037 24.0668 357.898 24.0456 356.758 24.0137C306.729 22.6768 267.439 -4.39112 229.442 -30.5571C202.348 -49.2107 174.338 -68.5115 142.673 -78.3052C75.4201 -99.1128 1.24654 -62.1876 -70.4831 -26.4826C-114.849 -4.40172 -156.747 16.4589 -196.377 23.9394L-196.847 21.9128C-157.557 14.4959 -115.8 -6.29043 -71.5993 -28.297C0.576825 -64.2248 75.2086 -101.373 143.425 -80.2682C175.43 -70.3578 203.594 -50.9721 230.84 -32.2124C268.544 -6.23737 307.54 20.6183 356.828 21.9446C393.557 22.9845 423.858 7.51409 453.22 -7.40455C474.933 -18.4291 497.397 -29.8356 522.517 -34.8226C572.17 -44.6905 614.409 -28.8382 659.139 -12.052C669.208 -8.27463 679.618 -4.36989 690.016 -0.825919C721.046 12.0449 753.885 19.5148 787.735 21.4035C803.28 12.3632 820.387 6.16653 838.598 2.99394L839.033 5.03119C820.986 8.17196 804.043 14.3368 788.663 23.3346L788.346 23.515L787.97 23.4938C753.709 21.6263 720.459 14.0821 689.123 1.08401C678.76 -2.43874 668.338 -6.35409 658.258 -10.1421C613.869 -26.7903 571.947 -42.526 523.011 -32.7959C498.22 -27.8726 475.92 -16.551 454.348 -5.59012C425.621 8.98897 395.942 24.0562 360.177 24.0668Z" fill="url(#paint55_linear_96_6)"/>
<path d="M762.31 6.7925C744.404 6.7925 724.324 2.18745 696.267 -9.04927C685.328 -13.4315 674.93 -18.0047 664.873 -22.4294C623.48 -40.6373 587.726 -56.3518 537.533 -49.8368C510.569 -46.3353 485.131 -36.9554 460.528 -27.8939C427.994 -15.9038 394.262 -3.54232 356.758 -4.53972C308.633 -5.86606 268.039 -27.1723 228.784 -47.7783C200.057 -62.8667 170.343 -78.4538 137.844 -86.1678C70.0507 -102.243 -0.257347 -73.5623 -68.2508 -45.8259C-110.701 -28.5093 -154.597 -10.5984 -196.436 -4.58217L-196.8 -6.63003C-155.266 -12.6039 -111.512 -30.451 -69.2024 -47.7146C-0.833064 -75.5996 69.8509 -104.439 138.42 -88.1732C171.224 -80.3956 201.079 -64.7236 229.936 -49.5715C268.943 -29.1035 309.291 -7.92454 356.828 -6.61942C393.968 -5.59019 427.348 -17.9092 459.659 -29.8144C484.391 -38.929 509.958 -48.3513 537.204 -51.8953C588.102 -58.5057 624.149 -42.6533 665.871 -24.2968C675.917 -19.8828 686.303 -15.3202 697.195 -10.9486C759.995 14.2094 782.284 5.6041 831.114 -13.2299C837.882 -15.8401 845.131 -18.6413 853.073 -21.5699L853.931 -19.6494C846.012 -16.7208 838.763 -13.9302 832.019 -11.32C804.337 -0.645604 785.068 6.7925 762.31 6.7925Z" fill="url(#paint56_linear_96_6)"/>
<path d="M762.721 -2.18392C746.178 -2.18392 727.497 -6.71469 703.798 -17.9832C692.448 -23.3841 682.191 -28.7319 672.275 -33.9099C634.301 -53.7201 604.305 -69.3815 553.054 -66.0921C523.07 -64.1716 493.849 -56.8927 465.58 -49.8472C430.72 -41.1676 394.661 -32.2016 356.758 -33.1035C310.771 -34.207 269.061 -49.5182 228.737 -64.3308C198.001 -75.6205 166.207 -87.2923 132.686 -92.6295C65.7387 -103.293 -0.633341 -83.1754 -64.82 -63.7047C-107.834 -50.6642 -152.294 -37.178 -196.518 -33.1035L-196.742 -35.162C-152.787 -39.2152 -108.445 -52.6696 -65.5484 -65.6783C-1.09156 -85.2232 65.5742 -105.437 133.086 -94.6774C166.853 -89.2977 198.753 -77.5835 229.595 -66.2513C269.742 -51.513 311.253 -36.2761 356.817 -35.1726C394.391 -34.2813 430.274 -43.2049 464.969 -51.8526C493.344 -58.9193 522.682 -66.2195 552.89 -68.1612C604.833 -71.493 635.112 -55.6937 673.426 -35.7031C683.319 -30.5357 693.553 -25.1985 704.867 -19.8189C763.755 8.18273 791.225 -6.2266 832.818 -28.0316C843.357 -33.5704 855.306 -39.8307 868.747 -45.8682L869.769 -44.0007C856.399 -38.0056 844.485 -31.7559 833.969 -26.2384C808.402 -12.8371 788.088 -2.18392 762.721 -2.18392Z" fill="url(#paint57_linear_96_6)"/>
<path d="M764.601 -11.0016C750.102 -11.0016 734.3 -14.9063 716.253 -24.4772C701.86 -32.1169 689.652 -40.1916 677.844 -47.9905C648.024 -67.7052 622.27 -84.7353 576.788 -83.1862C543.138 -82.0402 509.429 -77.2018 476.848 -72.533C437.805 -66.9306 397.434 -61.1265 356.805 -61.6252C312.757 -62.1664 270.201 -71.9601 229.043 -81.446C193.325 -89.6693 156.385 -98.1791 118.681 -100.567C58.09 -104.397 -1.52618 -92.6934 -59.1684 -81.3611C-103.816 -72.5861 -150.003 -63.5033 -196.589 -61.6252L-196.683 -63.6943C-150.296 -65.5724 -104.215 -74.634 -59.6502 -83.3878C-1.85517 -94.7518 57.9137 -106.508 118.846 -102.636C156.761 -100.227 193.795 -91.7066 229.619 -83.4515C270.635 -74.0079 313.062 -64.2355 356.84 -63.7049C397.293 -63.185 437.547 -68.9891 476.484 -74.5809C509.135 -79.2602 542.903 -84.1093 576.694 -85.2553C623.033 -86.8363 649.046 -69.6045 679.195 -49.667C690.956 -41.8893 703.129 -33.8464 717.416 -26.2704C770.206 1.73122 803.562 -20.1056 842.182 -45.3909C855.259 -53.9537 868.782 -62.803 883.892 -70.326L885.008 -68.5116C870.016 -61.0523 856.551 -52.2348 843.533 -43.7144C817.356 -26.5781 793.563 -11.0016 764.601 -11.0016Z" fill="url(#paint58_linear_96_6)"/>
<path d="M-195.484 -147.338C-195.461 -119.867 -194.157 -92.0035 -192.77 -62.5376C-189.798 1.08414 -186.708 66.8811 -197.599 127.076C-202.687 155.215 -215.317 181.678 -227.525 207.271C-243.598 240.96 -260.211 275.795 -259.225 314.238C-258.567 339.618 -249.296 360.012 -239.474 381.615C-236.09 389.043 -232.589 396.725 -229.369 404.789C-209.595 454.299 -205.93 497.813 -206.411 551.981C-206.74 588.004 -198.069 618.595 -188.881 650.989C-184.475 666.566 -179.905 682.673 -176.298 699.724C-169.037 734.092 -177.155 767.282 -185.004 799.39C-188.987 815.71 -193.111 832.57 -195.273 849.611C-136.514 829.206 -106.624 791.04 -72.0811 746.92C-64.5733 737.339 -56.8187 727.429 -48.5942 717.539L-44.3174 712.372C-10.0564 670.959 28.7634 624.017 91.8691 645.387C117.271 653.992 138.937 670.152 159.898 685.792C185.112 704.594 211.195 724.054 243.8 730.23C265.983 734.442 289.023 731.758 311.311 729.158C330.604 726.919 350.554 724.596 369.964 726.718C417.619 731.917 456.016 759.961 493.144 787.082C526.947 811.784 561.913 837.324 604.352 846.523C654.674 857.431 670.571 829.843 688.982 797.884C697.312 783.411 705.925 768.439 718.402 756.576C729.917 742.453 742.277 735.058 755.072 734.676C769.077 734.209 783.823 742.252 798.921 758.422C829.257 794.955 866.291 825.514 909.047 849.314L909.071 839.403C909.2 788.292 909.306 744.14 889.191 695.353C885.078 685.41 879.462 674.545 873.494 663.054C853.414 624.314 830.644 580.407 850.747 543.545L850.982 543.269C865.633 530.335 881.119 517.857 897.016 506.164C908.189 489.41 914.358 470.936 915.357 451.253C920.597 434.913 929.35 419.634 937.833 404.853C950.898 382.029 964.422 358.421 964.621 331.83C964.986 280.878 927.376 241.098 891 202.634C862.32 172.309 832.665 140.944 821.162 103.987C804.784 51.3046 834.909 0.500547 864.059 -48.627C882.975 -80.5333 902.538 -113.501 908.659 -146.288C895.206 -138.659 880.86 -127.348 865.727 -115.411C834.509 -90.7726 800.225 -63.7366 765.752 -63.7366C753.251 -63.726 740.726 -67.2912 728.295 -75.8116C712.269 -86.8043 700.696 -98.2532 690.498 -108.344C668.573 -130.043 651.255 -147.168 604.023 -147.37C549.705 -147.593 494.46 -147.508 441.048 -147.413C412.967 -147.37 384.874 -147.317 356.793 -147.317C302.899 -147.317 249.005 -147.296 195.111 -147.275C67.0898 -147.222 -65.2665 -147.179 -195.484 -147.338ZM911.338 853.017L909.599 852.051C865.845 827.976 828.012 796.907 797.123 759.706C782.53 744.098 768.337 736.405 755.154 736.745C743.1 737.106 731.327 744.225 720.165 757.903C707.816 769.659 699.275 784.493 691.015 798.839C672.956 830.204 655.884 859.84 603.811 848.539C560.867 839.234 525.702 813.545 491.699 788.695C453.126 760.523 416.691 733.901 369.682 728.776C350.566 726.686 330.757 728.988 311.605 731.217C289.129 733.838 265.889 736.543 243.318 732.267C210.161 725.975 183.866 706.356 158.429 687.394C137.621 671.871 116.108 655.817 91.0584 647.339C29.5976 626.51 -8.69344 672.784 -42.4728 713.614L-46.7613 718.781C-54.9623 728.659 -62.7051 738.549 -70.2012 748.109C-103.851 791.093 -135.645 831.679 -196.225 852.157L-197.963 852.752L-197.764 851.075C-195.661 833.345 -191.384 815.858 -187.248 798.945C-179.082 765.574 -171.375 734.06 -178.554 700.106C-182.149 683.129 -186.708 667.054 -191.114 651.499C-200.337 618.977 -209.043 588.248 -208.714 551.96C-208.221 498.025 -211.875 454.713 -231.531 405.49C-234.739 397.478 -238.228 389.807 -241.589 382.401C-251.505 360.617 -260.858 340.043 -261.516 314.291C-262.526 275.392 -245.807 240.345 -229.628 206.444C-217.479 180.967 -204.907 154.621 -199.867 126.736C-189.022 66.7537 -192.089 1.07352 -195.073 -62.4421C-196.46 -92.3112 -197.787 -120.525 -197.775 -148.378V-149.407H-196.624C-66.0537 -149.259 66.7138 -149.301 195.111 -149.354C249.005 -149.365 302.899 -149.386 356.793 -149.397C384.874 -149.397 412.955 -149.439 441.048 -149.492C494.46 -149.577 549.705 -149.662 604.034 -149.439C652.265 -149.238 669.889 -131.815 692.201 -109.745C702.329 -99.7175 713.832 -88.3428 729.694 -77.4668C774.881 -46.4624 822.337 -83.9288 864.212 -116.97C880.226 -129.597 895.359 -141.534 909.599 -149.238L911.691 -150.373L911.327 -148.198C905.628 -114.328 885.525 -80.4272 866.08 -47.6508C837.153 1.12658 807.239 51.5486 823.383 103.424C834.733 139.936 864.223 171.131 892.751 201.287C929.397 240.048 967.289 280.114 966.913 331.841C966.725 358.94 953.072 382.761 939.866 405.808C931.441 420.493 922.735 435.688 917.601 451.593C916.625 471.435 910.316 490.29 898.872 507.395L898.614 507.66C882.776 519.31 867.337 531.746 852.721 544.628C833.252 580.555 855.74 623.911 875.573 662.173C881.554 673.707 887.205 684.593 891.341 694.631C911.608 743.769 911.491 788.09 911.362 839.403L911.338 853.017Z" fill="url(#paint59_linear_96_6)"/>
</g>
<path d="M624.095 146.902L602.831 160.694L611.315 173.774L632.579 159.982L633.891 185.293L649.461 184.486L648.149 159.175L670.725 170.694L677.811 156.806L655.235 145.287L676.499 131.495L668.015 118.415L646.751 132.207L645.438 106.896L629.868 107.703L631.181 133.014L608.604 121.495L601.519 135.383L624.095 146.902Z" fill="#AEDA00"/>
<path d="M366.629 700.418C388.23 704.449 403.814 709.188 403.396 711.904C402.978 714.621 386.69 714.459 364.877 711.812C377.301 729.935 384.969 744.306 382.753 745.932C380.537 747.557 369.134 735.925 355.582 718.629C351.551 740.23 346.812 755.813 344.096 755.396C341.379 754.978 341.542 738.69 344.188 716.876C326.065 729.301 311.694 736.969 310.069 734.753C308.443 732.537 320.075 721.134 337.371 707.581C315.77 703.551 300.187 698.812 300.604 696.095C301.022 693.379 317.31 693.541 339.124 696.188C326.699 678.064 319.031 663.694 321.247 662.068C323.463 660.443 334.866 672.075 348.419 689.371C352.449 667.77 357.188 652.186 359.905 652.604C362.621 653.022 362.459 669.31 359.812 691.123C377.936 678.699 392.306 671.031 393.932 673.247C395.557 675.463 383.925 686.866 366.629 700.418Z" fill="#E6D7FF"/>
<path d="M725 419C711.736 489.5 678.877 554.796 630.216 607.349C581.556 659.903 519.079 697.569 450 716" stroke="#BDBDC9" stroke-width="2"/>
<defs>
<filter id="filter0_f_96_6" x="67" y="585" width="621" height="260" filterUnits="userSpaceOnUse" color-interpolation-filters="sRGB">
<feFlood flood-opacity="0" result="BackgroundImageFix"/>
<feBlend mode="normal" in="SourceGraphic" in2="BackgroundImageFix" result="shape"/>
<feGaussianBlur stdDeviation="44.5" result="effect1_foregroundBlur_96_6"/>
</filter>
<linearGradient id="paint0_linear_96_6" x1="10.7352" y1="207.446" x2="-67.5964" y2="207.446" gradientUnits="userSpaceOnUse">
<stop stop-color="#1611EC"/>
<stop offset="1" stop-color="#AD1DF0"/>
</linearGradient>
<linearGradient id="paint1_linear_96_6" x1="45.7566" y1="195.5" x2="-44.3768" y2="195.5" gradientUnits="userSpaceOnUse">
<stop stop-color="#1611EC"/>
<stop offset="1" stop-color="#AD1DF0"/>
</linearGradient>
<linearGradient id="paint2_linear_96_6" x1="77.9819" y1="186.804" x2="-22.3177" y2="186.804" gradientUnits="userSpaceOnUse">
<stop stop-color="#1611EC"/>
<stop offset="1" stop-color="#AD1DF0"/>
</linearGradient>
<linearGradient id="paint3_linear_96_6" x1="109.708" y1="182.713" x2="4.71408" y2="182.713" gradientUnits="userSpaceOnUse">
<stop stop-color="#1611EC"/>
<stop offset="1" stop-color="#AD1DF0"/>
</linearGradient>
<linearGradient id="paint4_linear_96_6" x1="138.629" y1="184.343" x2="34.7099" y2="184.343" gradientUnits="userSpaceOnUse">
<stop stop-color="#1611EC"/>
<stop offset="1" stop-color="#AD1DF0"/>
</linearGradient>
<linearGradient id="paint5_linear_96_6" x1="167.016" y1="191.034" x2="66.4805" y2="191.034" gradientUnits="userSpaceOnUse">
<stop stop-color="#1611EC"/>
<stop offset="1" stop-color="#AD1DF0"/>
</linearGradient>
<linearGradient id="paint6_linear_96_6" x1="192.679" y1="200.466" x2="95.3126" y2="200.466" gradientUnits="userSpaceOnUse">
<stop stop-color="#1611EC"/>
<stop offset="1" stop-color="#AD1DF0"/>
</linearGradient>
<linearGradient id="paint7_linear_96_6" x1="214.331" y1="210.296" x2="121.129" y2="210.296" gradientUnits="userSpaceOnUse">
<stop stop-color="#1611EC"/>
<stop offset="1" stop-color="#AD1DF0"/>
</linearGradient>
<linearGradient id="paint8_linear_96_6" x1="248.989" y1="218.159" x2="142.291" y2="218.159" gradientUnits="userSpaceOnUse">
<stop stop-color="#1611EC"/>
<stop offset="1" stop-color="#AD1DF0"/>
</linearGradient>
<linearGradient id="paint9_linear_96_6" x1="280.61" y1="221.697" x2="166.296" y2="221.697" gradientUnits="userSpaceOnUse">
<stop stop-color="#1611EC"/>
<stop offset="1" stop-color="#AD1DF0"/>
</linearGradient>
<linearGradient id="paint10_linear_96_6" x1="319.433" y1="221.641" x2="197.267" y2="221.641" gradientUnits="userSpaceOnUse">
<stop stop-color="#1611EC"/>
<stop offset="1" stop-color="#AD1DF0"/>
</linearGradient>
<linearGradient id="paint11_linear_96_6" x1="370.218" y1="220.597" x2="232.498" y2="220.597" gradientUnits="userSpaceOnUse">
<stop stop-color="#1611EC"/>
<stop offset="1" stop-color="#AD1DF0"/>
</linearGradient>
<linearGradient id="paint12_linear_96_6" x1="417.913" y1="219.594" x2="267.025" y2="219.594" gradientUnits="userSpaceOnUse">
<stop stop-color="#1611EC"/>
<stop offset="1" stop-color="#AD1DF0"/>
</linearGradient>
<linearGradient id="paint13_linear_96_6" x1="450.315" y1="220.012" x2="302.75" y2="220.012" gradientUnits="userSpaceOnUse">
<stop stop-color="#1611EC"/>
<stop offset="1" stop-color="#AD1DF0"/>
</linearGradient>
<linearGradient id="paint14_linear_96_6" x1="475.631" y1="223.846" x2="362.407" y2="223.846" gradientUnits="userSpaceOnUse">
<stop stop-color="#1611EC"/>
<stop offset="1" stop-color="#AD1DF0"/>
</linearGradient>
<linearGradient id="paint15_linear_96_6" x1="500.732" y1="230.273" x2="405.523" y2="230.273" gradientUnits="userSpaceOnUse">
<stop stop-color="#1611EC"/>
<stop offset="1" stop-color="#AD1DF0"/>
</linearGradient>
<linearGradient id="paint16_linear_96_6" x1="536.213" y1="238.143" x2="420.973" y2="238.143" gradientUnits="userSpaceOnUse">
<stop stop-color="#1611EC"/>
<stop offset="1" stop-color="#AD1DF0"/>
</linearGradient>
<linearGradient id="paint17_linear_96_6" x1="590.763" y1="246.322" x2="434.847" y2="246.322" gradientUnits="userSpaceOnUse">
<stop stop-color="#1611EC"/>
<stop offset="1" stop-color="#AD1DF0"/>
</linearGradient>
<linearGradient id="paint18_linear_96_6" x1="623.235" y1="254.003" x2="451.063" y2="254.003" gradientUnits="userSpaceOnUse">
<stop stop-color="#1611EC"/>
<stop offset="1" stop-color="#AD1DF0"/>
</linearGradient>
<linearGradient id="paint19_linear_96_6" x1="647.616" y1="261.148" x2="467.174" y2="261.148" gradientUnits="userSpaceOnUse">
<stop stop-color="#1611EC"/>
<stop offset="1" stop-color="#AD1DF0"/>
</linearGradient>
<linearGradient id="paint20_linear_96_6" x1="676.719" y1="266.957" x2="485.951" y2="266.957" gradientUnits="userSpaceOnUse">
<stop stop-color="#1611EC"/>
<stop offset="1" stop-color="#AD1DF0"/>
</linearGradient>
<linearGradient id="paint21_linear_96_6" x1="704.713" y1="270.658" x2="508.309" y2="270.658" gradientUnits="userSpaceOnUse">
<stop stop-color="#1611EC"/>
<stop offset="1" stop-color="#AD1DF0"/>
</linearGradient>
<linearGradient id="paint22_linear_96_6" x1="734.522" y1="271.593" x2="536.268" y2="271.593" gradientUnits="userSpaceOnUse">
<stop stop-color="#1611EC"/>
<stop offset="1" stop-color="#AD1DF0"/>
</linearGradient>
<linearGradient id="paint23_linear_96_6" x1="759.586" y1="271.947" x2="572.018" y2="271.947" gradientUnits="userSpaceOnUse">
<stop stop-color="#1611EC"/>
<stop offset="1" stop-color="#AD1DF0"/>
</linearGradient>
<linearGradient id="paint24_linear_96_6" x1="780.487" y1="272.586" x2="613.317" y2="272.586" gradientUnits="userSpaceOnUse">
<stop stop-color="#1611EC"/>
<stop offset="1" stop-color="#AD1DF0"/>
</linearGradient>
<linearGradient id="paint25_linear_96_6" x1="796.974" y1="273.317" x2="655.408" y2="273.317" gradientUnits="userSpaceOnUse">
<stop stop-color="#1611EC"/>
<stop offset="1" stop-color="#AD1DF0"/>
</linearGradient>
<linearGradient id="paint26_linear_96_6" x1="814.245" y1="273.967" x2="701.579" y2="273.967" gradientUnits="userSpaceOnUse">
<stop stop-color="#1611EC"/>
<stop offset="1" stop-color="#AD1DF0"/>
</linearGradient>
<linearGradient id="paint27_linear_96_6" x1="936.897" y1="690.948" x2="-217.797" y2="690.948" gradientUnits="userSpaceOnUse">
<stop stop-color="#1611EC"/>
<stop offset="1" stop-color="#AD1DF0"/>
</linearGradient>
<linearGradient id="paint28_linear_96_6" x1="936.8" y1="646.12" x2="-210.995" y2="646.12" gradientUnits="userSpaceOnUse">
<stop stop-color="#1611EC"/>
<stop offset="1" stop-color="#AD1DF0"/>
</linearGradient>
<linearGradient id="paint29_linear_96_6" x1="936.599" y1="608.626" x2="-201.241" y2="608.627" gradientUnits="userSpaceOnUse">
<stop stop-color="#1611EC"/>
<stop offset="1" stop-color="#AD1DF0"/>
</linearGradient>
<linearGradient id="paint30_linear_96_6" x1="931.269" y1="582.703" x2="-195.854" y2="582.703" gradientUnits="userSpaceOnUse">
<stop stop-color="#1611EC"/>
<stop offset="1" stop-color="#AD1DF0"/>
</linearGradient>
<linearGradient id="paint31_linear_96_6" x1="917.79" y1="558.816" x2="-199.868" y2="558.816" gradientUnits="userSpaceOnUse">
<stop stop-color="#1611EC"/>
<stop offset="1" stop-color="#AD1DF0"/>
</linearGradient>
<linearGradient id="paint32_linear_96_6" x1="900.481" y1="535.047" x2="-209.271" y2="535.047" gradientUnits="userSpaceOnUse">
<stop stop-color="#1611EC"/>
<stop offset="1" stop-color="#AD1DF0"/>
</linearGradient>
<linearGradient id="paint33_linear_96_6" x1="883.675" y1="510.869" x2="-220.136" y2="510.87" gradientUnits="userSpaceOnUse">
<stop stop-color="#1611EC"/>
<stop offset="1" stop-color="#AD1DF0"/>
</linearGradient>
<linearGradient id="paint34_linear_96_6" x1="871.872" y1="488.099" x2="-228.515" y2="488.099" gradientUnits="userSpaceOnUse">
<stop stop-color="#1611EC"/>
<stop offset="1" stop-color="#AD1DF0"/>
</linearGradient>
<linearGradient id="paint35_linear_96_6" x1="869.543" y1="460.6" x2="-230.757" y2="460.6" gradientUnits="userSpaceOnUse">
<stop stop-color="#1611EC"/>
<stop offset="1" stop-color="#AD1DF0"/>
</linearGradient>
<linearGradient id="paint36_linear_96_6" x1="883.202" y1="420.561" x2="-230.368" y2="420.562" gradientUnits="userSpaceOnUse">
<stop stop-color="#1611EC"/>
<stop offset="1" stop-color="#AD1DF0"/>
</linearGradient>
<linearGradient id="paint37_linear_96_6" x1="905.972" y1="379.311" x2="-231.02" y2="379.311" gradientUnits="userSpaceOnUse">
<stop stop-color="#1611EC"/>
<stop offset="1" stop-color="#AD1DF0"/>
</linearGradient>
<linearGradient id="paint38_linear_96_6" x1="927.466" y1="342.189" x2="-234.715" y2="342.19" gradientUnits="userSpaceOnUse">
<stop stop-color="#1611EC"/>
<stop offset="1" stop-color="#AD1DF0"/>
</linearGradient>
<linearGradient id="paint39_linear_96_6" x1="937.248" y1="310.946" x2="-243.432" y2="310.946" gradientUnits="userSpaceOnUse">
<stop stop-color="#1611EC"/>
<stop offset="1" stop-color="#AD1DF0"/>
</linearGradient>
<linearGradient id="paint40_linear_96_6" x1="944.996" y1="285.898" x2="-256.185" y2="285.898" gradientUnits="userSpaceOnUse">
<stop stop-color="#1611EC"/>
<stop offset="1" stop-color="#AD1DF0"/>
</linearGradient>
<linearGradient id="paint41_linear_96_6" x1="962.244" y1="261.164" x2="-269.147" y2="261.164" gradientUnits="userSpaceOnUse">
<stop stop-color="#1611EC"/>
<stop offset="1" stop-color="#AD1DF0"/>
</linearGradient>
<linearGradient id="paint42_linear_96_6" x1="981.32" y1="236.586" x2="-280.047" y2="236.586" gradientUnits="userSpaceOnUse">
<stop stop-color="#1611EC"/>
<stop offset="1" stop-color="#AD1DF0"/>
</linearGradient>
<linearGradient id="paint43_linear_96_6" x1="994.562" y1="209.825" x2="-286.594" y2="209.825" gradientUnits="userSpaceOnUse">
<stop stop-color="#1611EC"/>
<stop offset="1" stop-color="#AD1DF0"/>
</linearGradient>
<linearGradient id="paint44_linear_96_6" x1="995.11" y1="182.207" x2="-286.905" y2="182.207" gradientUnits="userSpaceOnUse">
<stop stop-color="#1611EC"/>
<stop offset="1" stop-color="#AD1DF0"/>
</linearGradient>
<linearGradient id="paint45_linear_96_6" x1="984.471" y1="158.235" x2="-282.175" y2="158.235" gradientUnits="userSpaceOnUse">
<stop stop-color="#1611EC"/>
<stop offset="1" stop-color="#AD1DF0"/>
</linearGradient>
<linearGradient id="paint46_linear_96_6" x1="965.864" y1="137.266" x2="-273.899" y2="137.266" gradientUnits="userSpaceOnUse">
<stop stop-color="#1611EC"/>
<stop offset="1" stop-color="#AD1DF0"/>
</linearGradient>
<linearGradient id="paint47_linear_96_6" x1="942.07" y1="117.581" x2="-263.296" y2="117.581" gradientUnits="userSpaceOnUse">
<stop stop-color="#1611EC"/>
<stop offset="1" stop-color="#AD1DF0"/>
</linearGradient>
<linearGradient id="paint48_linear_96_6" x1="915.824" y1="101.826" x2="-251.599" y2="101.826" gradientUnits="userSpaceOnUse">
<stop stop-color="#1611EC"/>
<stop offset="1" stop-color="#AD1DF0"/>
</linearGradient>
<linearGradient id="paint49_linear_96_6" x1="890.085" y1="86.9561" x2="-240.057" y2="86.9563" gradientUnits="userSpaceOnUse">
<stop stop-color="#1611EC"/>
<stop offset="1" stop-color="#AD1DF0"/>
</linearGradient>
<linearGradient id="paint50_linear_96_6" x1="867.336" y1="70.4795" x2="-229.884" y2="70.4796" gradientUnits="userSpaceOnUse">
<stop stop-color="#1611EC"/>
<stop offset="1" stop-color="#AD1DF0"/>
</linearGradient>
<linearGradient id="paint51_linear_96_6" x1="850.416" y1="50.087" x2="-222.314" y2="50.0871" gradientUnits="userSpaceOnUse">
<stop stop-color="#1611EC"/>
<stop offset="1" stop-color="#AD1DF0"/>
</linearGradient>
<linearGradient id="paint52_linear_96_6" x1="842" y1="25.8686" x2="-218.59" y2="25.8688" gradientUnits="userSpaceOnUse">
<stop stop-color="#1611EC"/>
<stop offset="1" stop-color="#AD1DF0"/>
</linearGradient>
<linearGradient id="paint53_linear_96_6" x1="843.367" y1="-0.660443" x2="-218.45" y2="-0.660297" gradientUnits="userSpaceOnUse">
<stop stop-color="#1611EC"/>
<stop offset="1" stop-color="#AD1DF0"/>
</linearGradient>
<linearGradient id="paint54_linear_96_6" x1="851.148" y1="-22.3786" x2="-218.599" y2="-22.3785" gradientUnits="userSpaceOnUse">
<stop stop-color="#1611EC"/>
<stop offset="1" stop-color="#AD1DF0"/>
</linearGradient>
<linearGradient id="paint55_linear_96_6" x1="863.461" y1="-39.9895" x2="-218.806" y2="-39.9893" gradientUnits="userSpaceOnUse">
<stop stop-color="#1611EC"/>
<stop offset="1" stop-color="#AD1DF0"/>
</linearGradient>
<linearGradient id="paint56_linear_96_6" x1="878.71" y1="-51.0007" x2="-219.074" y2="-51.0005" gradientUnits="userSpaceOnUse">
<stop stop-color="#1611EC"/>
<stop offset="1" stop-color="#AD1DF0"/>
</linearGradient>
<linearGradient id="paint57_linear_96_6" x1="894.92" y1="-57.5468" x2="-219.35" y2="-57.5465" gradientUnits="userSpaceOnUse">
<stop stop-color="#1611EC"/>
<stop offset="1" stop-color="#AD1DF0"/>
</linearGradient>
<linearGradient id="paint58_linear_96_6" x1="910.517" y1="-64.566" x2="-219.613" y2="-64.5658" gradientUnits="userSpaceOnUse">
<stop stop-color="#1611EC"/>
<stop offset="1" stop-color="#AD1DF0"/>
</linearGradient>
<linearGradient id="paint59_linear_96_6" x1="995.886" y1="271.272" x2="-287.601" y2="271.272" gradientUnits="userSpaceOnUse">
<stop stop-color="#1611EC"/>
<stop offset="1" stop-color="#AD1DF0"/>
</linearGradient>
</defs>
</svg>
